<svg width="593" height="393" viewBox="0 0 593 393" fill="none" xmlns="http://www.w3.org/2000/svg">
<rect width="593" height="393" rx="16.2891" fill="#1D1D41"/>
<path d="M26.1772 37.9474H33.8092L34.7692 40.8514H25.1212L26.1772 37.9474ZM34.6012 44.5474L29.9932 31.2994L25.2892 44.5474H21.6172L28.0972 27.3154H32.0812L38.5132 44.5474H34.6012ZM43.6604 37.5634V44.5474H40.3244V31.7314H43.3964V33.5554C43.8764 32.9154 44.4364 32.4114 45.0764 32.0434C45.7324 31.6754 46.4844 31.4914 47.3324 31.4914C48.6284 31.4914 49.6764 31.9074 50.4764 32.7394C51.2764 33.5554 51.6764 34.7314 51.6764 36.2674V44.5474H48.3644V37.3954C48.3644 36.4354 48.1724 35.7074 47.7884 35.2114C47.4204 34.6994 46.8604 34.4434 46.1084 34.4434C45.6604 34.4434 45.2444 34.5634 44.8604 34.8034C44.4924 35.0274 44.1964 35.3714 43.9724 35.8354C43.7644 36.2834 43.6604 36.8594 43.6604 37.5634ZM62.183 44.5474V42.9634C61.767 43.5554 61.239 44.0114 60.599 44.3314C59.959 44.6354 59.199 44.7874 58.319 44.7874C56.991 44.7874 55.919 44.4274 55.103 43.7074C54.287 42.9874 53.879 42.0274 53.879 40.8274C53.879 39.5794 54.375 38.6274 55.367 37.9714C56.359 37.3154 57.783 36.9874 59.639 36.9874C60.007 36.9874 60.359 37.0034 60.695 37.0354C61.031 37.0514 61.391 37.0834 61.775 37.1314V36.3634C61.775 35.6434 61.583 35.0834 61.199 34.6834C60.815 34.2834 60.271 34.0834 59.567 34.0834C58.847 34.0834 58.279 34.2834 57.863 34.6834C57.447 35.0834 57.207 35.6434 57.143 36.3634H54.143C54.207 35.3714 54.471 34.5154 54.935 33.7954C55.415 33.0594 56.047 32.4914 56.831 32.0914C57.631 31.6914 58.543 31.4914 59.567 31.4914C61.247 31.4914 62.551 31.9314 63.479 32.8114C64.423 33.6914 64.895 34.9154 64.895 36.4834V44.5474H62.183ZM57.023 40.7314C57.023 41.2594 57.199 41.6834 57.551 42.0034C57.919 42.3234 58.415 42.4834 59.039 42.4834C59.887 42.4834 60.551 42.2674 61.031 41.8354C61.527 41.3874 61.775 40.7954 61.775 40.0594V39.1474C61.391 39.0834 61.047 39.0434 60.743 39.0274C60.439 38.9954 60.143 38.9794 59.855 38.9794C58.927 38.9794 58.223 39.1234 57.743 39.4114C57.263 39.6994 57.023 40.1394 57.023 40.7314ZM71.1297 44.5474H67.7697V27.3154H71.1297V44.5474ZM85.6653 31.7314L79.4253 49.1794H75.8013L77.6253 44.4034L72.5853 31.7314H76.1853L79.4013 40.5154L82.3293 31.7314H85.6653ZM95.5659 41.3074V44.2114C95.1659 44.4194 94.7579 44.5634 94.3419 44.6434C93.9419 44.7394 93.4939 44.7874 92.9979 44.7874C92.1339 44.7874 91.3739 44.6274 90.7179 44.3074C90.0779 43.9714 89.5819 43.4754 89.2299 42.8194C88.8779 42.1474 88.7019 41.3394 88.7019 40.3954V34.5874H86.1099V31.7314H88.7019V27.9394H92.0139V31.7314H95.6859V34.5874H92.0139V39.6274C92.0139 40.3634 92.1739 40.8994 92.4939 41.2354C92.8299 41.5554 93.2939 41.7154 93.8859 41.7154C94.2059 41.7154 94.5099 41.6834 94.7979 41.6194C95.0859 41.5394 95.3419 41.4354 95.5659 41.3074ZM101.059 44.5474H97.7229V31.7314H101.059V44.5474ZM101.587 28.7554C101.587 29.3154 101.379 29.7874 100.963 30.1714C100.563 30.5394 100.027 30.7234 99.3549 30.7234C98.6989 30.7234 98.1629 30.5394 97.7469 30.1714C97.3469 29.7874 97.1469 29.3154 97.1469 28.7554C97.1469 28.1634 97.3469 27.6834 97.7469 27.3154C98.1629 26.9314 98.6989 26.7394 99.3549 26.7394C100.027 26.7394 100.563 26.9314 100.963 27.3154C101.379 27.6834 101.587 28.1634 101.587 28.7554ZM109.428 44.7874C108.196 44.7874 107.108 44.5074 106.164 43.9474C105.236 43.3874 104.508 42.6034 103.98 41.5954C103.452 40.5874 103.188 39.4354 103.188 38.1394C103.188 36.8594 103.452 35.7234 103.98 34.7314C104.524 33.7234 105.268 32.9314 106.212 32.3554C107.156 31.7794 108.228 31.4914 109.428 31.4914C110.532 31.4914 111.532 31.7314 112.428 32.2114C113.324 32.6754 114.052 33.3394 114.612 34.2034C115.172 35.0514 115.516 36.0514 115.644 37.2034H112.14C112.06 36.3554 111.772 35.6834 111.276 35.1874C110.796 34.6914 110.18 34.4434 109.428 34.4434C108.852 34.4434 108.348 34.5954 107.916 34.8994C107.5 35.2034 107.172 35.6274 106.932 36.1714C106.708 36.7154 106.596 37.3714 106.596 38.1394C106.596 38.8914 106.708 39.5474 106.932 40.1074C107.172 40.6674 107.5 41.0994 107.916 41.4034C108.348 41.6914 108.852 41.8354 109.428 41.8354C110.196 41.8354 110.812 41.5954 111.276 41.1154C111.756 40.6194 112.044 39.9394 112.14 39.0754H115.644C115.532 40.2434 115.196 41.2594 114.636 42.1234C114.076 42.9714 113.356 43.6274 112.476 44.0914C111.596 44.5554 110.58 44.7874 109.428 44.7874ZM128.609 40.4434C128.609 41.7714 128.113 42.8274 127.121 43.6114C126.145 44.3954 124.745 44.7874 122.921 44.7874C121.113 44.7874 119.697 44.3794 118.673 43.5634C117.665 42.7314 117.097 41.6034 116.969 40.1794H120.161C120.177 40.8354 120.441 41.3634 120.953 41.7634C121.481 42.1474 122.153 42.3394 122.969 42.3394C123.625 42.3394 124.169 42.2354 124.601 42.0274C125.033 41.8034 125.249 41.4674 125.249 41.0194C125.249 40.6194 125.113 40.3154 124.841 40.1074C124.569 39.8994 124.121 39.7394 123.497 39.6274L121.193 39.1954C120.041 38.9874 119.137 38.5714 118.481 37.9474C117.825 37.3234 117.497 36.5154 117.497 35.5234C117.497 34.7234 117.713 34.0194 118.145 33.4114C118.577 32.8034 119.185 32.3314 119.969 31.9954C120.753 31.6594 121.673 31.4914 122.729 31.4914C123.801 31.4914 124.745 31.6754 125.561 32.0434C126.393 32.3954 127.049 32.9074 127.529 33.5794C128.025 34.2514 128.313 35.0434 128.393 35.9554H125.201C125.153 35.3314 124.905 34.8434 124.457 34.4914C124.009 34.1234 123.433 33.9394 122.729 33.9394C122.121 33.9394 121.625 34.0514 121.241 34.2754C120.873 34.4834 120.689 34.7954 120.689 35.2114C120.689 35.5954 120.825 35.8834 121.097 36.0754C121.369 36.2514 121.793 36.3954 122.369 36.5074L124.841 36.9634C126.089 37.2034 127.025 37.6114 127.649 38.1874C128.289 38.7634 128.609 39.5154 128.609 40.4434Z" fill="white"/>
<rect x="505.522" y="28.1851" width="65.7649" height="26.963" rx="7.7373" stroke="#AEABD8" stroke-opacity="0.5" stroke-width="0.814453"/>
<path d="M513.672 43.9512V43.4625L515.705 41.2244C516.102 40.7878 516.425 40.4262 516.673 40.1395C516.927 39.8528 517.116 39.5922 517.239 39.3577C517.363 39.1231 517.425 38.869 517.425 38.5953C517.425 38.1588 517.298 37.8232 517.044 37.5887C516.79 37.3541 516.451 37.2368 516.028 37.2368C515.591 37.2368 515.223 37.3606 514.923 37.6082C514.63 37.8558 514.431 38.2011 514.327 38.6442L513.614 38.4878C513.698 38.0904 513.851 37.7483 514.073 37.4616C514.294 37.1749 514.571 36.9534 514.904 36.797C515.236 36.6341 515.607 36.5527 516.018 36.5527C516.454 36.5527 516.835 36.6406 517.161 36.8166C517.487 36.9925 517.741 37.2336 517.924 37.5398C518.113 37.846 518.207 38.1979 518.207 38.5953C518.207 38.869 518.148 39.1329 518.031 39.387C517.92 39.6411 517.751 39.9147 517.523 40.2079C517.295 40.5011 517.002 40.8432 516.643 41.2342L514.796 43.267H518.402V43.9512H513.672ZM522.552 44.0685C521.979 44.0685 521.474 43.9121 521.037 43.5993C520.607 43.2801 520.272 42.8403 520.031 42.2799C519.79 41.7131 519.669 41.055 519.669 40.3057C519.669 39.5564 519.79 38.9016 520.031 38.3412C520.272 37.7744 520.607 37.3346 521.037 37.0218C521.468 36.7091 521.969 36.5527 522.543 36.5527C523.116 36.5527 523.618 36.7091 524.048 37.0218C524.478 37.3346 524.813 37.7744 525.054 38.3412C525.295 38.9016 525.416 39.5564 525.416 40.3057C525.416 41.055 525.295 41.7131 525.054 42.2799C524.82 42.8468 524.488 43.2866 524.057 43.5993C523.627 43.9121 523.126 44.0685 522.552 44.0685ZM522.552 43.3354C522.969 43.3354 523.334 43.2084 523.647 42.9543C523.96 42.7002 524.204 42.3483 524.38 41.8987C524.556 41.4427 524.644 40.9116 524.644 40.3057C524.644 39.6997 524.556 39.172 524.38 38.7224C524.204 38.2663 523.96 37.9144 523.647 37.6669C523.334 37.4127 522.966 37.2857 522.543 37.2857C522.126 37.2857 521.761 37.4127 521.448 37.6669C521.135 37.9144 520.891 38.2663 520.715 38.7224C520.539 39.172 520.451 39.6997 520.451 40.3057C520.451 40.9051 520.539 41.4329 520.715 41.889C520.891 42.3451 521.135 42.7002 521.448 42.9543C521.767 43.2084 522.135 43.3354 522.552 43.3354ZM526.691 43.9512V43.4625L528.724 41.2244C529.121 40.7878 529.444 40.4262 529.691 40.1395C529.945 39.8528 530.134 39.5922 530.258 39.3577C530.382 39.1231 530.444 38.869 530.444 38.5953C530.444 38.1588 530.317 37.8232 530.063 37.5887C529.808 37.3541 529.47 37.2368 529.046 37.2368C528.61 37.2368 528.241 37.3606 527.942 37.6082C527.648 37.8558 527.45 38.2011 527.345 38.6442L526.632 38.4878C526.717 38.0904 526.87 37.7483 527.091 37.4616C527.313 37.1749 527.59 36.9534 527.922 36.797C528.254 36.6341 528.626 36.5527 529.036 36.5527C529.473 36.5527 529.854 36.6406 530.18 36.8166C530.506 36.9925 530.76 37.2336 530.942 37.5398C531.131 37.846 531.226 38.1979 531.226 38.5953C531.226 38.869 531.167 39.1329 531.05 39.387C530.939 39.6411 530.769 39.9147 530.541 40.2079C530.313 40.5011 530.02 40.8432 529.662 41.2342L527.815 43.267H531.421V43.9512H526.691ZM536.042 43.9512V42.231H532.338V41.5958L536.042 36.67H536.726V41.5958H537.616V42.231H536.726V43.9512H536.042ZM532.934 41.8792L532.846 41.5958H536.042V37.3443L536.287 37.4127L532.934 41.8792Z" fill="#8C89B4"/>
<path d="M288.511 34.9789C288.511 38.3881 286.126 41.1517 283.184 41.1517C280.243 41.1517 277.858 38.3881 277.858 34.9789C277.858 31.5698 280.243 28.8062 283.184 28.8062C286.126 28.8062 288.511 31.5698 288.511 34.9789Z" fill="#F8F3EF"/>
<path d="M399.476 34.9789C399.476 38.3881 397.092 41.1517 394.15 41.1517C391.208 41.1517 388.824 38.3881 388.824 34.9789C388.824 31.5698 391.208 28.8062 394.15 28.8062C397.092 28.8062 399.476 31.5698 399.476 34.9789Z" fill="#9FE2BF"/>
<path d="M307.783 32.8125H304.513V42H302.495V32.8125H299.225V31.155H307.783V32.8125ZM310.63 35.13C310.93 34.85 311.26 34.6225 311.62 34.4475C311.98 34.2725 312.402 34.185 312.887 34.185C313.307 34.185 313.68 34.2575 314.005 34.4025C314.33 34.5425 314.6 34.7425 314.815 35.0025C315.035 35.2575 315.2 35.565 315.31 35.925C315.425 36.28 315.482 36.6725 315.482 37.1025V42H313.63V37.1025C313.63 36.6325 313.522 36.27 313.307 36.015C313.092 35.755 312.765 35.625 312.325 35.625C312.005 35.625 311.705 35.6975 311.425 35.8425C311.145 35.9875 310.88 36.185 310.63 36.435V42H308.777V30.855H310.63V35.13ZM319.164 34.305V42H317.304V34.305H319.164ZM319.419 32.0625C319.419 32.2225 319.387 32.3725 319.322 32.5125C319.257 32.6525 319.169 32.775 319.059 32.88C318.954 32.985 318.829 33.07 318.684 33.135C318.539 33.195 318.384 33.225 318.219 33.225C318.059 33.225 317.907 33.195 317.762 33.135C317.622 33.07 317.499 32.985 317.394 32.88C317.289 32.775 317.204 32.6525 317.139 32.5125C317.079 32.3725 317.049 32.2225 317.049 32.0625C317.049 31.8975 317.079 31.7425 317.139 31.5975C317.204 31.4525 317.289 31.3275 317.394 31.2225C317.499 31.1175 317.622 31.035 317.762 30.975C317.907 30.91 318.059 30.8775 318.219 30.8775C318.384 30.8775 318.539 30.91 318.684 30.975C318.829 31.035 318.954 31.1175 319.059 31.2225C319.169 31.3275 319.257 31.4525 319.322 31.5975C319.387 31.7425 319.419 31.8975 319.419 32.0625ZM325.748 35.805C325.698 35.885 325.645 35.9425 325.59 35.9775C325.535 36.0075 325.465 36.0225 325.38 36.0225C325.29 36.0225 325.193 35.9975 325.088 35.9475C324.988 35.8975 324.87 35.8425 324.735 35.7825C324.6 35.7175 324.445 35.66 324.27 35.61C324.1 35.56 323.898 35.535 323.663 35.535C323.298 35.535 323.01 35.6125 322.8 35.7675C322.595 35.9225 322.493 36.125 322.493 36.375C322.493 36.54 322.545 36.68 322.65 36.795C322.76 36.905 322.903 37.0025 323.078 37.0875C323.258 37.1725 323.46 37.25 323.685 37.32C323.91 37.385 324.138 37.4575 324.368 37.5375C324.603 37.6175 324.833 37.71 325.058 37.815C325.283 37.915 325.483 38.045 325.658 38.205C325.838 38.36 325.98 38.5475 326.085 38.7675C326.195 38.9875 326.25 39.2525 326.25 39.5625C326.25 39.9325 326.183 40.275 326.048 40.59C325.918 40.9 325.723 41.17 325.463 41.4C325.203 41.625 324.88 41.8025 324.495 41.9325C324.115 42.0575 323.675 42.12 323.175 42.12C322.91 42.12 322.65 42.095 322.395 42.045C322.145 42 321.903 41.935 321.668 41.85C321.438 41.765 321.223 41.665 321.023 41.55C320.828 41.435 320.655 41.31 320.505 41.175L320.933 40.47C320.988 40.385 321.053 40.32 321.128 40.275C321.203 40.23 321.298 40.2075 321.413 40.2075C321.528 40.2075 321.635 40.24 321.735 40.305C321.84 40.37 321.96 40.44 322.095 40.515C322.23 40.59 322.388 40.66 322.568 40.725C322.753 40.79 322.985 40.8225 323.265 40.8225C323.485 40.8225 323.673 40.7975 323.828 40.7475C323.988 40.6925 324.118 40.6225 324.218 40.5375C324.323 40.4525 324.398 40.355 324.443 40.245C324.493 40.13 324.518 40.0125 324.518 39.8925C324.518 39.7125 324.463 39.565 324.353 39.45C324.248 39.335 324.105 39.235 323.925 39.15C323.75 39.065 323.548 38.99 323.318 38.925C323.093 38.855 322.86 38.78 322.62 38.7C322.385 38.62 322.153 38.5275 321.923 38.4225C321.698 38.3125 321.495 38.175 321.315 38.01C321.14 37.845 320.998 37.6425 320.888 37.4025C320.783 37.1625 320.73 36.8725 320.73 36.5325C320.73 36.2175 320.793 35.9175 320.918 35.6325C321.043 35.3475 321.225 35.1 321.465 34.89C321.71 34.675 322.013 34.505 322.373 34.38C322.738 34.25 323.158 34.185 323.633 34.185C324.163 34.185 324.645 34.2725 325.08 34.4475C325.515 34.6225 325.878 34.8525 326.168 35.1375L325.748 35.805ZM343.344 31.155V42H341.567V34.995C341.567 34.715 341.582 34.4125 341.612 34.0875L338.334 40.245C338.179 40.54 337.942 40.6875 337.622 40.6875H337.337C337.017 40.6875 336.779 40.54 336.624 40.245L333.309 34.065C333.324 34.23 333.337 34.3925 333.347 34.5525C333.357 34.7125 333.362 34.86 333.362 34.995V42H331.584V31.155H333.107C333.197 31.155 333.274 31.1575 333.339 31.1625C333.404 31.1675 333.462 31.18 333.512 31.2C333.567 31.22 333.614 31.2525 333.654 31.2975C333.699 31.3425 333.742 31.4025 333.782 31.4775L337.029 37.5C337.114 37.66 337.192 37.825 337.262 37.995C337.337 38.165 337.409 38.34 337.479 38.52C337.549 38.335 337.622 38.1575 337.697 37.9875C337.772 37.8125 337.852 37.645 337.937 37.485L341.139 31.4775C341.179 31.4025 341.222 31.3425 341.267 31.2975C341.312 31.2525 341.359 31.22 341.409 31.2C341.464 31.18 341.524 31.1675 341.589 31.1625C341.654 31.1575 341.732 31.155 341.822 31.155H343.344ZM348.642 34.185C349.212 34.185 349.73 34.2775 350.195 34.4625C350.665 34.6475 351.065 34.91 351.395 35.25C351.73 35.59 351.987 36.005 352.167 36.495C352.347 36.985 352.437 37.5325 352.437 38.1375C352.437 38.7475 352.347 39.2975 352.167 39.7875C351.987 40.2775 351.73 40.695 351.395 41.04C351.065 41.385 350.665 41.65 350.195 41.835C349.73 42.02 349.212 42.1125 348.642 42.1125C348.067 42.1125 347.545 42.02 347.075 41.835C346.605 41.65 346.202 41.385 345.867 41.04C345.537 40.695 345.28 40.2775 345.095 39.7875C344.915 39.2975 344.825 38.7475 344.825 38.1375C344.825 37.5325 344.915 36.985 345.095 36.495C345.28 36.005 345.537 35.59 345.867 35.25C346.202 34.91 346.605 34.6475 347.075 34.4625C347.545 34.2775 348.067 34.185 348.642 34.185ZM348.642 40.6875C349.282 40.6875 349.755 40.4725 350.06 40.0425C350.37 39.6125 350.525 38.9825 350.525 38.1525C350.525 37.3225 350.37 36.69 350.06 36.255C349.755 35.82 349.282 35.6025 348.642 35.6025C347.992 35.6025 347.51 35.8225 347.195 36.2625C346.885 36.6975 346.73 37.3275 346.73 38.1525C346.73 38.9775 346.885 39.6075 347.195 40.0425C347.51 40.4725 347.992 40.6875 348.642 40.6875ZM355.583 35.25C355.738 35.095 355.901 34.9525 356.071 34.8225C356.246 34.6875 356.428 34.575 356.618 34.485C356.813 34.39 357.021 34.3175 357.241 34.2675C357.461 34.2125 357.701 34.185 357.961 34.185C358.381 34.185 358.753 34.2575 359.078 34.4025C359.403 34.5425 359.673 34.7425 359.888 35.0025C360.108 35.2575 360.273 35.565 360.383 35.925C360.498 36.28 360.556 36.6725 360.556 37.1025V42H358.703V37.1025C358.703 36.6325 358.596 36.27 358.381 36.015C358.166 35.755 357.838 35.625 357.398 35.625C357.078 35.625 356.778 35.6975 356.498 35.8425C356.218 35.9875 355.953 36.185 355.703 36.435V42H353.851V34.305H354.983C355.223 34.305 355.381 34.4175 355.456 34.6425L355.583 35.25ZM364.78 42.12C364.11 42.12 363.595 41.9325 363.235 41.5575C362.88 41.1775 362.702 40.655 362.702 39.99V35.6925H361.915C361.815 35.6925 361.73 35.66 361.66 35.595C361.59 35.53 361.555 35.4325 361.555 35.3025V34.5675L362.792 34.365L363.182 32.265C363.207 32.165 363.255 32.0875 363.325 32.0325C363.395 31.9775 363.485 31.95 363.595 31.95H364.555V34.3725H366.61V35.6925H364.555V39.8625C364.555 40.1025 364.612 40.29 364.727 40.425C364.847 40.56 365.01 40.6275 365.215 40.6275C365.33 40.6275 365.425 40.615 365.5 40.59C365.58 40.56 365.647 40.53 365.702 40.5C365.762 40.47 365.815 40.4425 365.86 40.4175C365.905 40.3875 365.95 40.3725 365.995 40.3725C366.05 40.3725 366.095 40.3875 366.13 40.4175C366.165 40.4425 366.202 40.4825 366.242 40.5375L366.797 41.4375C366.527 41.6625 366.217 41.8325 365.867 41.9475C365.517 42.0625 365.155 42.12 364.78 42.12ZM369.648 35.13C369.948 34.85 370.278 34.6225 370.638 34.4475C370.998 34.2725 371.421 34.185 371.906 34.185C372.326 34.185 372.698 34.2575 373.023 34.4025C373.348 34.5425 373.618 34.7425 373.833 35.0025C374.053 35.2575 374.218 35.565 374.328 35.925C374.443 36.28 374.501 36.6725 374.501 37.1025V42H372.648V37.1025C372.648 36.6325 372.541 36.27 372.326 36.015C372.111 35.755 371.783 35.625 371.343 35.625C371.023 35.625 370.723 35.6975 370.443 35.8425C370.163 35.9875 369.898 36.185 369.648 36.435V42H367.796V30.855H369.648V35.13Z" fill="white"/>
<path d="M420.064 38.224V40H413.288V28.432H415.44V38.224H420.064ZM425.625 36.496C425.054 36.5227 424.574 36.5733 424.185 36.648C423.795 36.7173 423.483 36.808 423.249 36.92C423.014 37.032 422.846 37.1627 422.745 37.312C422.643 37.4613 422.593 37.624 422.593 37.8C422.593 38.1467 422.694 38.3947 422.897 38.544C423.105 38.6933 423.374 38.768 423.705 38.768C424.11 38.768 424.459 38.696 424.753 38.552C425.051 38.4027 425.342 38.1787 425.625 37.88V36.496ZM421.097 32.936C422.041 32.072 423.177 31.64 424.505 31.64C424.985 31.64 425.414 31.72 425.793 31.88C426.171 32.0347 426.491 32.2533 426.753 32.536C427.014 32.8133 427.211 33.1467 427.345 33.536C427.483 33.9253 427.553 34.352 427.553 34.816V40H426.657C426.47 40 426.326 39.9733 426.225 39.92C426.123 39.8613 426.043 39.7467 425.985 39.576L425.809 38.984C425.601 39.1707 425.398 39.336 425.201 39.48C425.003 39.6187 424.798 39.736 424.585 39.832C424.371 39.928 424.142 40 423.897 40.048C423.657 40.1013 423.39 40.128 423.097 40.128C422.75 40.128 422.43 40.0827 422.137 39.992C421.843 39.896 421.59 39.7547 421.377 39.568C421.163 39.3813 420.998 39.1493 420.881 38.872C420.763 38.5947 420.705 38.272 420.705 37.904C420.705 37.696 420.739 37.4907 420.809 37.288C420.878 37.08 420.99 36.8827 421.145 36.696C421.305 36.5093 421.51 36.3333 421.761 36.168C422.011 36.0027 422.318 35.8587 422.681 35.736C423.049 35.6133 423.475 35.5147 423.961 35.44C424.446 35.36 425.001 35.312 425.625 35.296V34.816C425.625 34.2667 425.507 33.8613 425.273 33.6C425.038 33.3333 424.699 33.2 424.257 33.2C423.937 33.2 423.67 33.2373 423.457 33.312C423.249 33.3867 423.065 33.472 422.905 33.568C422.745 33.6587 422.598 33.7413 422.465 33.816C422.337 33.8907 422.193 33.928 422.033 33.928C421.894 33.928 421.777 33.8933 421.681 33.824C421.585 33.7493 421.507 33.664 421.449 33.568L421.097 32.936ZM434.422 33.392C434.368 33.4773 434.312 33.5387 434.254 33.576C434.195 33.608 434.12 33.624 434.03 33.624C433.934 33.624 433.83 33.5973 433.718 33.544C433.611 33.4907 433.486 33.432 433.342 33.368C433.198 33.2987 433.032 33.2373 432.845 33.184C432.664 33.1307 432.448 33.104 432.198 33.104C431.808 33.104 431.502 33.1867 431.278 33.352C431.059 33.5173 430.95 33.7333 430.95 34C430.95 34.176 431.006 34.3253 431.118 34.448C431.235 34.5653 431.387 34.6693 431.574 34.76C431.766 34.8507 431.982 34.9333 432.222 35.008C432.462 35.0773 432.704 35.1547 432.95 35.24C433.2 35.3253 433.446 35.424 433.686 35.536C433.926 35.6427 434.139 35.7813 434.326 35.952C434.518 36.1173 434.67 36.3173 434.782 36.552C434.899 36.7867 434.958 37.0693 434.958 37.4C434.958 37.7947 434.886 38.16 434.742 38.496C434.603 38.8267 434.395 39.1147 434.118 39.36C433.84 39.6 433.496 39.7893 433.086 39.928C432.68 40.0613 432.211 40.128 431.678 40.128C431.395 40.128 431.118 40.1013 430.846 40.048C430.579 40 430.32 39.9307 430.07 39.84C429.824 39.7493 429.595 39.6427 429.382 39.52C429.174 39.3973 428.99 39.264 428.83 39.12L429.286 38.368C429.344 38.2773 429.414 38.208 429.493 38.16C429.573 38.112 429.675 38.088 429.798 38.088C429.92 38.088 430.035 38.1227 430.142 38.192C430.254 38.2613 430.382 38.336 430.526 38.416C430.67 38.496 430.838 38.5707 431.03 38.64C431.227 38.7093 431.475 38.744 431.774 38.744C432.008 38.744 432.208 38.7173 432.374 38.664C432.544 38.6053 432.683 38.5307 432.79 38.44C432.902 38.3493 432.981 38.2453 433.03 38.128C433.083 38.0053 433.11 37.88 433.11 37.752C433.11 37.56 433.051 37.4027 432.934 37.28C432.822 37.1573 432.67 37.0507 432.477 36.96C432.291 36.8693 432.075 36.7893 431.83 36.72C431.59 36.6453 431.342 36.5653 431.086 36.48C430.835 36.3947 430.587 36.296 430.342 36.184C430.102 36.0667 429.886 35.92 429.694 35.744C429.507 35.568 429.355 35.352 429.238 35.096C429.126 34.84 429.07 34.5307 429.07 34.168C429.07 33.832 429.136 33.512 429.27 33.208C429.403 32.904 429.598 32.64 429.854 32.416C430.115 32.1867 430.438 32.0053 430.822 31.872C431.211 31.7333 431.659 31.664 432.166 31.664C432.731 31.664 433.246 31.7573 433.71 31.944C434.174 32.1307 434.56 32.376 434.87 32.68L434.422 33.392ZM439.181 40.128C438.466 40.128 437.917 39.928 437.533 39.528C437.154 39.1227 436.965 38.5653 436.965 37.856V33.272H436.125C436.018 33.272 435.927 33.2373 435.853 33.168C435.778 33.0987 435.741 32.9947 435.741 32.856V32.072L437.061 31.856L437.477 29.616C437.503 29.5093 437.554 29.4267 437.629 29.368C437.703 29.3093 437.799 29.28 437.917 29.28H438.941V31.864H441.133V33.272H438.941V37.72C438.941 37.976 439.002 38.176 439.125 38.32C439.253 38.464 439.426 38.536 439.645 38.536C439.767 38.536 439.869 38.5227 439.949 38.496C440.034 38.464 440.106 38.432 440.165 38.4C440.229 38.368 440.285 38.3387 440.333 38.312C440.381 38.28 440.429 38.264 440.477 38.264C440.535 38.264 440.583 38.28 440.621 38.312C440.658 38.3387 440.698 38.3813 440.741 38.44L441.333 39.4C441.045 39.64 440.714 39.8213 440.341 39.944C439.967 40.0667 439.581 40.128 439.181 40.128ZM459.145 28.432V40H457.249V32.528C457.249 32.2293 457.265 31.9067 457.297 31.56L453.801 38.128C453.635 38.4427 453.382 38.6 453.041 38.6H452.737C452.395 38.6 452.142 38.4427 451.977 38.128L448.441 31.536C448.457 31.712 448.47 31.8853 448.481 32.056C448.491 32.2267 448.497 32.384 448.497 32.528V40H446.601V28.432H448.225C448.321 28.432 448.403 28.4347 448.473 28.44C448.542 28.4453 448.603 28.4587 448.657 28.48C448.715 28.5013 448.766 28.536 448.809 28.584C448.857 28.632 448.902 28.696 448.945 28.776L452.409 35.2C452.499 35.3707 452.582 35.5467 452.657 35.728C452.737 35.9093 452.814 36.096 452.889 36.288C452.963 36.0907 453.041 35.9013 453.121 35.72C453.201 35.5333 453.286 35.3547 453.377 35.184L456.793 28.776C456.835 28.696 456.881 28.632 456.929 28.584C456.977 28.536 457.027 28.5013 457.081 28.48C457.139 28.4587 457.203 28.4453 457.273 28.44C457.342 28.4347 457.425 28.432 457.521 28.432H459.145ZM464.796 31.664C465.404 31.664 465.956 31.7627 466.452 31.96C466.953 32.1573 467.38 32.4373 467.732 32.8C468.089 33.1627 468.363 33.6053 468.556 34.128C468.748 34.6507 468.844 35.2347 468.844 35.88C468.844 36.5307 468.748 37.1173 468.556 37.64C468.363 38.1627 468.089 38.608 467.732 38.976C467.38 39.344 466.953 39.6267 466.452 39.824C465.956 40.0213 465.404 40.12 464.796 40.12C464.182 40.12 463.625 40.0213 463.124 39.824C462.622 39.6267 462.193 39.344 461.836 38.976C461.484 38.608 461.209 38.1627 461.012 37.64C460.82 37.1173 460.724 36.5307 460.724 35.88C460.724 35.2347 460.82 34.6507 461.012 34.128C461.209 33.6053 461.484 33.1627 461.836 32.8C462.193 32.4373 462.622 32.1573 463.124 31.96C463.625 31.7627 464.182 31.664 464.796 31.664ZM464.796 38.6C465.478 38.6 465.982 38.3707 466.308 37.912C466.638 37.4533 466.804 36.7813 466.804 35.896C466.804 35.0107 466.638 34.336 466.308 33.872C465.982 33.408 465.478 33.176 464.796 33.176C464.102 33.176 463.588 33.4107 463.252 33.88C462.921 34.344 462.756 35.016 462.756 35.896C462.756 36.776 462.921 37.448 463.252 37.912C463.588 38.3707 464.102 38.6 464.796 38.6ZM472.199 32.8C472.364 32.6347 472.538 32.4827 472.719 32.344C472.906 32.2 473.1 32.08 473.303 31.984C473.511 31.8827 473.732 31.8053 473.967 31.752C474.202 31.6933 474.458 31.664 474.735 31.664C475.183 31.664 475.58 31.7413 475.927 31.896C476.274 32.0453 476.562 32.2587 476.791 32.536C477.026 32.808 477.202 33.136 477.319 33.52C477.442 33.8987 477.503 34.3173 477.503 34.776V40H475.527V34.776C475.527 34.2747 475.412 33.888 475.183 33.616C474.954 33.3387 474.604 33.2 474.135 33.2C473.794 33.2 473.474 33.2773 473.175 33.432C472.876 33.5867 472.594 33.7973 472.327 34.064V40H470.351V31.792H471.559C471.815 31.792 471.983 31.912 472.063 32.152L472.199 32.8ZM482.009 40.128C481.294 40.128 480.745 39.928 480.361 39.528C479.982 39.1227 479.793 38.5653 479.793 37.856V33.272H478.953C478.846 33.272 478.756 33.2373 478.681 33.168C478.606 33.0987 478.569 32.9947 478.569 32.856V32.072L479.889 31.856L480.305 29.616C480.332 29.5093 480.382 29.4267 480.457 29.368C480.532 29.3093 480.628 29.28 480.745 29.28H481.769V31.864H483.961V33.272H481.769V37.72C481.769 37.976 481.83 38.176 481.953 38.32C482.081 38.464 482.254 38.536 482.473 38.536C482.596 38.536 482.697 38.5227 482.777 38.496C482.862 38.464 482.934 38.432 482.993 38.4C483.057 38.368 483.113 38.3387 483.161 38.312C483.209 38.28 483.257 38.264 483.305 38.264C483.364 38.264 483.412 38.28 483.449 38.312C483.486 38.3387 483.526 38.3813 483.569 38.44L484.161 39.4C483.873 39.64 483.542 39.8213 483.169 39.944C482.796 40.0667 482.409 40.128 482.009 40.128ZM487.202 32.672C487.522 32.3733 487.874 32.1307 488.258 31.944C488.642 31.7573 489.093 31.664 489.61 31.664C490.058 31.664 490.455 31.7413 490.802 31.896C491.149 32.0453 491.437 32.2587 491.666 32.536C491.901 32.808 492.077 33.136 492.194 33.52C492.317 33.8987 492.378 34.3173 492.378 34.776V40H490.402V34.776C490.402 34.2747 490.287 33.888 490.058 33.616C489.829 33.3387 489.479 33.2 489.01 33.2C488.669 33.2 488.349 33.2773 488.05 33.432C487.751 33.5867 487.469 33.7973 487.202 34.064V40H485.226V28.112H487.202V32.672Z" fill="white"/>
<path d="M557.491 40.1235L561.338 44.2387L564.593 40.1235" stroke="#8C89B4" stroke-width="0.814453"/>
<line x1="49.7123" y1="155.969" x2="571.694" y2="155.969" stroke="#8C89B4" stroke-opacity="0.5" stroke-width="0.814453" stroke-dasharray="3.26 3.26"/>
<line x1="49.7123" y1="98.3574" x2="571.694" y2="98.3574" stroke="#8C89B4" stroke-opacity="0.5" stroke-width="0.814453" stroke-dasharray="3.26 3.26"/>
<line x1="49.7123" y1="212.554" x2="571.694" y2="212.554" stroke="#8C89B4" stroke-opacity="0.5" stroke-width="0.814453" stroke-dasharray="3.26 3.26"/>
<line x1="49.7123" y1="271.193" x2="571.694" y2="271.193" stroke="#8C89B4" stroke-opacity="0.5" stroke-width="0.814453" stroke-dasharray="3.26 3.26"/>
<line x1="49.7123" y1="328.809" x2="571.694" y2="328.809" stroke="#8C89B4" stroke-opacity="0.5" stroke-width="0.814453" stroke-dasharray="3.26 3.26"/>
<path d="M24.5092 101.597C24.0212 101.597 23.5772 101.497 23.1772 101.297C22.7852 101.089 22.4692 100.809 22.2292 100.457C21.9972 100.097 21.8732 99.6846 21.8572 99.2206H22.6732C22.7132 99.7166 22.9012 100.113 23.2372 100.409C23.5732 100.705 23.9972 100.853 24.5092 100.853C24.9172 100.853 25.2652 100.773 25.5532 100.613C25.8492 100.453 26.0732 100.229 26.2252 99.9406C26.3772 99.6526 26.4532 99.3206 26.4532 98.9446C26.4532 98.6006 26.3732 98.2926 26.2132 98.0206C26.0532 97.7406 25.8292 97.5206 25.5412 97.3606C25.2532 97.1926 24.9172 97.1086 24.5332 97.1086C24.1412 97.1086 23.7972 97.1926 23.5012 97.3606C23.2052 97.5206 22.9572 97.7566 22.7572 98.0686L22.1092 97.8766L22.8172 93.3646H26.8492V94.0966H23.4172L22.9732 97.0246C23.2212 96.8006 23.4812 96.6406 23.7532 96.5446C24.0332 96.4406 24.3292 96.3886 24.6412 96.3886C25.1932 96.3886 25.6692 96.5046 26.0692 96.7366C26.4692 96.9606 26.7732 97.2686 26.9812 97.6606C27.1972 98.0446 27.3052 98.4686 27.3052 98.9326C27.3052 99.3086 27.2412 99.6606 27.1132 99.9886C26.9852 100.309 26.7972 100.593 26.5492 100.841C26.3092 101.081 26.0172 101.269 25.6732 101.405C25.3292 101.533 24.9412 101.597 24.5092 101.597ZM28.4094 97.4326C28.4094 96.0886 28.6574 95.0566 29.1534 94.3366C29.6494 93.6086 30.3614 93.2446 31.2894 93.2446C32.2094 93.2446 32.9174 93.6086 33.4134 94.3366C33.9174 95.0566 34.1694 96.0886 34.1694 97.4326C34.1694 98.7766 33.9214 99.8086 33.4254 100.529C32.9374 101.241 32.2254 101.597 31.2894 101.597C30.3534 101.597 29.6374 101.241 29.1414 100.529C28.6534 99.8086 28.4094 98.7766 28.4094 97.4326ZM29.2734 97.4326C29.2734 98.5446 29.4414 99.3926 29.7774 99.9766C30.1214 100.561 30.6254 100.853 31.2894 100.853C31.9454 100.853 32.4454 100.565 32.7894 99.9886C33.1334 99.4126 33.3054 98.5606 33.3054 97.4326C33.3054 96.2966 33.1334 95.4406 32.7894 94.8646C32.4454 94.2806 31.9454 93.9886 31.2894 93.9886C30.6334 93.9886 30.1334 94.2806 29.7894 94.8646C29.4454 95.4486 29.2734 96.3046 29.2734 97.4326ZM36.6537 101.477H35.7537V92.8606H36.6537V97.0126L40.7337 92.8606H41.7777L37.5777 97.1566L41.8977 101.477H40.7337L36.6537 97.4326V101.477Z" fill="#8C89B4"/>
<path d="M27.5212 157.157H26.4292V159.089H25.6012V157.157H21.6532V156.593L25.8412 150.977H26.4292V156.425H27.5212V157.157ZM22.6252 156.425H25.6012V152.345L22.6252 156.425ZM28.6437 155.045C28.6437 153.701 28.8917 152.669 29.3877 151.949C29.8837 151.221 30.5957 150.857 31.5237 150.857C32.4437 150.857 33.1517 151.221 33.6477 151.949C34.1517 152.669 34.4037 153.701 34.4037 155.045C34.4037 156.389 34.1557 157.421 33.6597 158.141C33.1717 158.853 32.4597 159.209 31.5237 159.209C30.5877 159.209 29.8717 158.853 29.3757 158.141C28.8877 157.421 28.6437 156.389 28.6437 155.045ZM29.5077 155.045C29.5077 156.157 29.6757 157.005 30.0117 157.589C30.3557 158.173 30.8597 158.465 31.5237 158.465C32.1797 158.465 32.6797 158.177 33.0237 157.601C33.3677 157.025 33.5397 156.173 33.5397 155.045C33.5397 153.909 33.3677 153.053 33.0237 152.477C32.6797 151.893 32.1797 151.601 31.5237 151.601C30.8677 151.601 30.3677 151.893 30.0237 152.477C29.6797 153.061 29.5077 153.917 29.5077 155.045ZM36.8881 159.089H35.9881V150.473H36.8881V154.625L40.9681 150.473H42.0121L37.8121 154.769L42.1321 159.089H40.9681L36.8881 155.045V159.089Z" fill="#8C89B4"/>
<path d="M24.7132 216.811C24.1772 216.811 23.7012 216.715 23.2852 216.523C22.8772 216.323 22.5572 216.047 22.3252 215.695C22.1012 215.343 21.9812 214.935 21.9652 214.471H22.7812C22.8052 214.967 22.9892 215.367 23.3332 215.671C23.6852 215.975 24.1452 216.127 24.7132 216.127C25.2972 216.127 25.7532 215.979 26.0812 215.683C26.4172 215.387 26.5852 214.983 26.5852 214.471C26.5852 213.991 26.4012 213.607 26.0332 213.319C25.6652 213.023 25.1692 212.875 24.5452 212.875H23.7412V212.179H24.5212C24.8572 212.179 25.1492 212.115 25.3972 211.987C25.6532 211.851 25.8532 211.667 25.9972 211.435C26.1412 211.203 26.2132 210.935 26.2132 210.631C26.2132 210.199 26.0652 209.847 25.7692 209.575C25.4812 209.295 25.1052 209.155 24.6412 209.155C24.1692 209.155 23.7812 209.295 23.4772 209.575C23.1812 209.855 23.0212 210.227 22.9972 210.691H22.1932C22.2092 210.267 22.3252 209.887 22.5412 209.551C22.7572 209.215 23.0492 208.951 23.4172 208.759C23.7932 208.567 24.2092 208.471 24.6652 208.471C25.1452 208.471 25.5652 208.563 25.9252 208.747C26.2852 208.923 26.5652 209.171 26.7652 209.491C26.9732 209.803 27.0772 210.171 27.0772 210.595C27.0772 211.011 26.9532 211.383 26.7052 211.711C26.4652 212.031 26.1252 212.287 25.6852 212.479C26.2452 212.615 26.6772 212.855 26.9812 213.199C27.2932 213.543 27.4492 213.963 27.4492 214.459C27.4492 214.923 27.3332 215.331 27.1012 215.683C26.8692 216.035 26.5492 216.311 26.1412 216.511C25.7332 216.711 25.2572 216.811 24.7132 216.811ZM28.7844 212.659C28.7844 211.315 29.0324 210.283 29.5284 209.563C30.0244 208.835 30.7364 208.471 31.6644 208.471C32.5844 208.471 33.2924 208.835 33.7884 209.563C34.2924 210.283 34.5444 211.315 34.5444 212.659C34.5444 214.003 34.2964 215.035 33.8004 215.755C33.3124 216.467 32.6004 216.823 31.6644 216.823C30.7284 216.823 30.0124 216.467 29.5164 215.755C29.0284 215.035 28.7844 214.003 28.7844 212.659ZM29.6484 212.659C29.6484 213.771 29.8164 214.619 30.1524 215.203C30.4964 215.787 31.0004 216.079 31.6644 216.079C32.3204 216.079 32.8204 215.791 33.1644 215.215C33.5084 214.639 33.6804 213.787 33.6804 212.659C33.6804 211.523 33.5084 210.667 33.1644 210.091C32.8204 209.507 32.3204 209.215 31.6644 209.215C31.0084 209.215 30.5084 209.507 30.1644 210.091C29.8204 210.675 29.6484 211.531 29.6484 212.659ZM37.0287 216.703H36.1287V208.087H37.0287V212.239L41.1087 208.087H42.1527L37.9527 212.383L42.2727 216.703H41.1087L37.0287 212.659V216.703Z" fill="#8C89B4"/>
<path d="M26.8612 274.611V275.343H21.9652V274.863L24.5572 271.935C24.8932 271.567 25.1572 271.243 25.3492 270.963C25.5412 270.683 25.6812 270.423 25.7692 270.183C25.8572 269.943 25.9012 269.695 25.9012 269.439C25.9012 269.135 25.8332 268.863 25.6972 268.623C25.5612 268.383 25.3692 268.195 25.1212 268.059C24.8812 267.923 24.6012 267.855 24.2812 267.855C23.9532 267.855 23.6612 267.927 23.4052 268.071C23.1572 268.207 22.9612 268.403 22.8172 268.659C22.6732 268.907 22.6012 269.203 22.6012 269.547H21.7852C21.7852 269.067 21.8932 268.647 22.1092 268.287C22.3252 267.919 22.6212 267.631 22.9972 267.423C23.3812 267.215 23.8212 267.111 24.3172 267.111C24.7892 267.111 25.2092 267.211 25.5772 267.411C25.9532 267.603 26.2452 267.867 26.4532 268.203C26.6692 268.539 26.7772 268.927 26.7772 269.367C26.7772 269.655 26.7292 269.935 26.6332 270.207C26.5452 270.479 26.3852 270.779 26.1532 271.107C25.9212 271.435 25.5972 271.831 25.1812 272.295L23.2012 274.611H26.8612ZM28.0461 271.299C28.0461 269.955 28.2941 268.923 28.7901 268.203C29.2861 267.475 29.9981 267.111 30.9261 267.111C31.8461 267.111 32.5541 267.475 33.0501 268.203C33.5541 268.923 33.8061 269.955 33.8061 271.299C33.8061 272.643 33.5581 273.675 33.0621 274.395C32.5741 275.107 31.8621 275.463 30.9261 275.463C29.9901 275.463 29.2741 275.107 28.7781 274.395C28.2901 273.675 28.0461 272.643 28.0461 271.299ZM28.9101 271.299C28.9101 272.411 29.0781 273.259 29.4141 273.843C29.7581 274.427 30.2621 274.719 30.9261 274.719C31.5821 274.719 32.0821 274.431 32.4261 273.855C32.7701 273.279 32.9421 272.427 32.9421 271.299C32.9421 270.163 32.7701 269.307 32.4261 268.731C32.0821 268.147 31.5821 267.855 30.9261 267.855C30.2701 267.855 29.7701 268.147 29.4261 268.731C29.0821 269.315 28.9101 270.171 28.9101 271.299ZM36.2905 275.343H35.3905V266.727H36.2905V270.879L40.3705 266.727H41.4145L37.2145 271.023L41.5345 275.343H40.3705L36.2905 271.299V275.343Z" fill="#8C89B4"/>
<path d="M23.9452 332.955H23.1172V325.563H21.5212V324.843H23.9452V332.955ZM25.5851 328.911C25.5851 327.567 25.8331 326.535 26.3291 325.815C26.8251 325.087 27.5371 324.723 28.4651 324.723C29.3851 324.723 30.0931 325.087 30.5891 325.815C31.0931 326.535 31.3451 327.567 31.3451 328.911C31.3451 330.255 31.0971 331.287 30.6011 332.007C30.1131 332.719 29.4011 333.075 28.4651 333.075C27.5291 333.075 26.8131 332.719 26.3171 332.007C25.8291 331.287 25.5851 330.255 25.5851 328.911ZM26.4491 328.911C26.4491 330.023 26.6171 330.871 26.9531 331.455C27.2971 332.039 27.8011 332.331 28.4651 332.331C29.1211 332.331 29.6211 332.043 29.9651 331.467C30.3091 330.891 30.4811 330.039 30.4811 328.911C30.4811 327.775 30.3091 326.919 29.9651 326.343C29.6211 325.759 29.1211 325.467 28.4651 325.467C27.8091 325.467 27.3091 325.759 26.9651 326.343C26.6211 326.927 26.4491 327.783 26.4491 328.911ZM33.8295 332.955H32.9295V324.339H33.8295V328.491L37.9095 324.339H38.9535L34.7535 328.635L39.0735 332.955H37.9095L33.8295 328.911V332.955Z" fill="#8C89B4"/>
<path d="M84.9956 344.915V350.675C84.9956 351.331 84.8756 351.887 84.6356 352.343C84.4036 352.791 84.0716 353.131 83.6396 353.363C83.2076 353.595 82.6956 353.711 82.1036 353.711C81.5436 353.711 81.0516 353.599 80.6276 353.375C80.2116 353.151 79.8836 352.835 79.6436 352.427C79.4036 352.019 79.2676 351.539 79.2356 350.987H80.1356C80.1596 351.395 80.2556 351.743 80.4236 352.031C80.5916 352.319 80.8196 352.539 81.1076 352.691C81.4036 352.835 81.7356 352.907 82.1036 352.907C82.5036 352.907 82.8516 352.831 83.1476 352.679C83.4436 352.519 83.6756 352.279 83.8436 351.959C84.0116 351.639 84.0956 351.235 84.0956 350.747V344.915H84.9956ZM90.71 353.531V352.379C90.526 352.771 90.25 353.083 89.882 353.315C89.514 353.539 89.082 353.651 88.586 353.651C87.93 353.651 87.406 353.483 87.014 353.147C86.622 352.803 86.426 352.347 86.426 351.779C86.426 351.163 86.67 350.699 87.158 350.387C87.646 350.067 88.37 349.907 89.33 349.907C89.522 349.907 89.71 349.911 89.894 349.919C90.078 349.927 90.322 349.947 90.626 349.979V349.439C90.626 348.911 90.49 348.499 90.218 348.203C89.954 347.907 89.582 347.759 89.102 347.759C88.59 347.759 88.182 347.911 87.878 348.215C87.574 348.511 87.418 348.915 87.41 349.427H86.642C86.65 348.955 86.758 348.547 86.966 348.203C87.174 347.851 87.458 347.579 87.818 347.387C88.186 347.187 88.61 347.087 89.09 347.087C89.834 347.087 90.41 347.291 90.818 347.699C91.226 348.107 91.43 348.679 91.43 349.415V353.531H90.71ZM87.23 351.755C87.23 352.139 87.366 352.451 87.638 352.691C87.91 352.923 88.266 353.039 88.706 353.039C89.298 353.039 89.766 352.863 90.11 352.511C90.454 352.151 90.626 351.675 90.626 351.083V350.519C90.354 350.495 90.118 350.479 89.918 350.471C89.726 350.463 89.542 350.459 89.366 350.459C88.654 350.459 88.118 350.567 87.758 350.783C87.406 350.991 87.23 351.315 87.23 351.755ZM94.037 349.847V353.531H93.197V347.207H93.977V348.395C94.185 348.011 94.469 347.699 94.829 347.459C95.197 347.211 95.609 347.087 96.065 347.087C96.721 347.087 97.245 347.291 97.637 347.699C98.037 348.107 98.237 348.683 98.237 349.427V353.531H97.397V349.715C97.397 349.107 97.261 348.639 96.989 348.311C96.725 347.983 96.333 347.819 95.813 347.819C95.485 347.819 95.185 347.907 94.913 348.083C94.641 348.251 94.425 348.487 94.265 348.791C94.113 349.095 94.037 349.447 94.037 349.847Z" fill="#8C89B4"/>
<path d="M150.122 353.531H149.222V344.915H154.166V345.695H150.122V349.055H153.602V349.835H150.122V353.531ZM157.787 353.651C157.195 353.651 156.675 353.515 156.227 353.243C155.787 352.963 155.443 352.571 155.195 352.067C154.955 351.563 154.835 350.979 154.835 350.315C154.835 349.699 154.959 349.151 155.207 348.671C155.463 348.183 155.807 347.799 156.239 347.519C156.679 347.231 157.179 347.087 157.739 347.087C158.187 347.087 158.591 347.175 158.951 347.351C159.319 347.519 159.627 347.759 159.875 348.071C160.131 348.383 160.319 348.751 160.439 349.175C160.567 349.591 160.611 350.055 160.571 350.567H155.291V349.991H159.695C159.663 349.279 159.471 348.727 159.119 348.335C158.775 347.935 158.311 347.735 157.727 347.735C157.319 347.735 156.959 347.843 156.647 348.059C156.343 348.267 156.103 348.563 155.927 348.947C155.751 349.331 155.663 349.787 155.663 350.315C155.663 350.859 155.747 351.335 155.915 351.743C156.083 352.143 156.323 352.451 156.635 352.667C156.955 352.883 157.335 352.991 157.775 352.991C158.303 352.991 158.739 352.851 159.083 352.571C159.435 352.283 159.663 351.891 159.767 351.395H160.595C160.451 352.091 160.127 352.643 159.623 353.051C159.127 353.451 158.515 353.651 157.787 353.651ZM167.755 350.363C167.755 351.011 167.639 351.583 167.407 352.079C167.183 352.575 166.863 352.963 166.447 353.243C166.031 353.515 165.539 353.651 164.971 353.651C164.491 353.651 164.055 353.523 163.663 353.267C163.271 353.011 162.963 352.655 162.739 352.199V353.531H161.959V344.915H162.799V348.539C163.007 348.075 163.299 347.719 163.675 347.471C164.059 347.215 164.491 347.087 164.971 347.087C165.539 347.087 166.027 347.227 166.435 347.507C166.851 347.779 167.175 348.163 167.407 348.659C167.639 349.147 167.755 349.715 167.755 350.363ZM166.903 350.363C166.903 349.563 166.711 348.939 166.327 348.491C165.951 348.043 165.455 347.819 164.839 347.819C164.447 347.819 164.095 347.919 163.783 348.119C163.471 348.319 163.227 348.607 163.051 348.983C162.875 349.359 162.787 349.811 162.787 350.339C162.787 350.867 162.871 351.327 163.039 351.719C163.215 352.103 163.459 352.399 163.771 352.607C164.083 352.815 164.439 352.919 164.839 352.919C165.455 352.919 165.951 352.695 166.327 352.247C166.711 351.799 166.903 351.171 166.903 350.363Z" fill="#8C89B4"/>
<path d="M223.312 353.531L220.192 346.223V353.531H219.352V344.915H220.516L223.708 352.427L226.924 344.915H228.076V353.531H227.248V346.223L224.104 353.531H223.312ZM233.844 353.531V352.379C233.66 352.771 233.384 353.083 233.016 353.315C232.648 353.539 232.216 353.651 231.72 353.651C231.064 353.651 230.54 353.483 230.148 353.147C229.756 352.803 229.56 352.347 229.56 351.779C229.56 351.163 229.804 350.699 230.292 350.387C230.78 350.067 231.504 349.907 232.464 349.907C232.656 349.907 232.844 349.911 233.028 349.919C233.212 349.927 233.456 349.947 233.76 349.979V349.439C233.76 348.911 233.624 348.499 233.352 348.203C233.088 347.907 232.716 347.759 232.236 347.759C231.724 347.759 231.316 347.911 231.012 348.215C230.708 348.511 230.552 348.915 230.544 349.427H229.776C229.784 348.955 229.892 348.547 230.1 348.203C230.308 347.851 230.592 347.579 230.952 347.387C231.32 347.187 231.744 347.087 232.224 347.087C232.968 347.087 233.544 347.291 233.952 347.699C234.36 348.107 234.564 348.679 234.564 349.415V353.531H233.844ZM230.364 351.755C230.364 352.139 230.5 352.451 230.772 352.691C231.044 352.923 231.4 353.039 231.84 353.039C232.432 353.039 232.9 352.863 233.244 352.511C233.588 352.151 233.76 351.675 233.76 351.083V350.519C233.488 350.495 233.252 350.479 233.052 350.471C232.86 350.463 232.676 350.459 232.5 350.459C231.788 350.459 231.252 350.567 230.892 350.783C230.54 350.991 230.364 351.315 230.364 351.755ZM237.171 350.147V353.531H236.331V347.207H237.111V348.647C237.335 348.183 237.663 347.811 238.095 347.531C238.527 347.251 239.003 347.111 239.523 347.111V347.987C239.083 347.971 238.683 348.047 238.323 348.215C237.971 348.383 237.691 348.631 237.483 348.959C237.275 349.287 237.171 349.683 237.171 350.147Z" fill="#8C89B4"/>
<path d="M287.06 350.411H291.224L291.476 351.143H286.7L287.06 350.411ZM292.004 353.531L289.1 345.875L286.172 353.531H285.284L288.632 344.915H289.616L292.952 353.531H292.004ZM299.976 350.363C299.976 351.011 299.86 351.583 299.628 352.079C299.404 352.575 299.084 352.963 298.668 353.243C298.26 353.515 297.772 353.651 297.204 353.651C296.732 353.651 296.304 353.527 295.92 353.279C295.536 353.031 295.236 352.683 295.02 352.235V355.847H294.18V347.207H294.96V348.575C295.176 348.103 295.484 347.739 295.884 347.483C296.284 347.219 296.724 347.087 297.204 347.087C297.764 347.087 298.252 347.227 298.668 347.507C299.084 347.779 299.404 348.163 299.628 348.659C299.86 349.147 299.976 349.715 299.976 350.363ZM299.124 350.363C299.124 349.563 298.932 348.939 298.548 348.491C298.172 348.043 297.676 347.819 297.06 347.819C296.676 347.819 296.328 347.919 296.016 348.119C295.704 348.319 295.456 348.607 295.272 348.983C295.096 349.359 295.008 349.819 295.008 350.363C295.008 350.883 295.096 351.335 295.272 351.719C295.448 352.103 295.692 352.399 296.004 352.607C296.316 352.815 296.668 352.919 297.06 352.919C297.676 352.919 298.172 352.695 298.548 352.247C298.932 351.799 299.124 351.171 299.124 350.363ZM302.169 353.531H301.329V347.207H302.169V353.531ZM302.421 345.743C302.421 345.927 302.357 346.079 302.229 346.199C302.109 346.319 301.945 346.379 301.737 346.379C301.545 346.379 301.385 346.319 301.257 346.199C301.129 346.079 301.065 345.927 301.065 345.743C301.065 345.559 301.129 345.411 301.257 345.299C301.385 345.179 301.545 345.119 301.737 345.119C301.945 345.119 302.109 345.179 302.229 345.299C302.357 345.411 302.421 345.559 302.421 345.743Z" fill="#8C89B4"/>
<path d="M424.993 344.915V350.675C424.993 351.331 424.873 351.887 424.633 352.343C424.401 352.791 424.069 353.131 423.637 353.363C423.205 353.595 422.693 353.711 422.101 353.711C421.541 353.711 421.049 353.599 420.625 353.375C420.209 353.151 419.881 352.835 419.641 352.427C419.401 352.019 419.265 351.539 419.233 350.987H420.133C420.157 351.395 420.253 351.743 420.421 352.031C420.589 352.319 420.817 352.539 421.105 352.691C421.401 352.835 421.733 352.907 422.101 352.907C422.501 352.907 422.849 352.831 423.145 352.679C423.441 352.519 423.673 352.279 423.841 351.959C424.009 351.639 424.093 351.235 424.093 350.747V344.915H424.993ZM430.864 350.987V347.207H431.692V353.531H430.912V352.391C430.752 352.759 430.492 353.063 430.132 353.303C429.772 353.535 429.36 353.651 428.896 353.651C428.472 353.651 428.096 353.571 427.768 353.411C427.448 353.243 427.2 352.987 427.024 352.643C426.848 352.291 426.76 351.851 426.76 351.323V347.207H427.6V351.143C427.6 351.783 427.744 352.243 428.032 352.523C428.32 352.795 428.684 352.931 429.124 352.931C429.46 352.931 429.756 352.847 430.012 352.679C430.276 352.511 430.484 352.279 430.636 351.983C430.788 351.687 430.864 351.355 430.864 350.987ZM434.351 349.847V353.531H433.511V347.207H434.291V348.395C434.499 348.011 434.783 347.699 435.143 347.459C435.511 347.211 435.923 347.087 436.379 347.087C437.035 347.087 437.559 347.291 437.951 347.699C438.351 348.107 438.551 348.683 438.551 349.427V353.531H437.711V349.715C437.711 349.107 437.575 348.639 437.303 348.311C437.039 347.983 436.647 347.819 436.127 347.819C435.799 347.819 435.499 347.907 435.227 348.083C434.955 348.251 434.739 348.487 434.579 348.791C434.427 349.095 434.351 349.447 434.351 349.847Z" fill="#8C89B4"/>
<path d="M355.583 353.531L352.463 346.223V353.531H351.623V344.915H352.787L355.979 352.427L359.195 344.915H360.347V353.531H359.519V346.223L356.375 353.531H355.583ZM366.115 353.531V352.379C365.931 352.771 365.655 353.083 365.287 353.315C364.919 353.539 364.487 353.651 363.991 353.651C363.335 353.651 362.811 353.483 362.419 353.147C362.027 352.803 361.831 352.347 361.831 351.779C361.831 351.163 362.075 350.699 362.563 350.387C363.051 350.067 363.775 349.907 364.735 349.907C364.927 349.907 365.115 349.911 365.299 349.919C365.483 349.927 365.727 349.947 366.031 349.979V349.439C366.031 348.911 365.895 348.499 365.623 348.203C365.359 347.907 364.987 347.759 364.507 347.759C363.995 347.759 363.587 347.911 363.283 348.215C362.979 348.511 362.823 348.915 362.815 349.427H362.047C362.055 348.955 362.163 348.547 362.371 348.203C362.579 347.851 362.863 347.579 363.223 347.387C363.591 347.187 364.015 347.087 364.495 347.087C365.239 347.087 365.815 347.291 366.223 347.699C366.631 348.107 366.835 348.679 366.835 349.415V353.531H366.115ZM362.635 351.755C362.635 352.139 362.771 352.451 363.043 352.691C363.315 352.923 363.671 353.039 364.111 353.039C364.703 353.039 365.171 352.863 365.515 352.511C365.859 352.151 366.031 351.675 366.031 351.083V350.519C365.759 350.495 365.523 350.479 365.323 350.471C365.131 350.463 364.947 350.459 364.771 350.459C364.059 350.459 363.523 350.567 363.163 350.783C362.811 350.991 362.635 351.315 362.635 351.755ZM373.286 347.207L370.046 355.847H369.146L370.07 353.447L367.562 347.207H368.462L370.502 352.439L372.434 347.207H373.286Z" fill="#8C89B4"/>
<path d="M493.348 344.915V350.675C493.348 351.331 493.228 351.887 492.988 352.343C492.756 352.791 492.424 353.131 491.992 353.363C491.56 353.595 491.048 353.711 490.456 353.711C489.896 353.711 489.404 353.599 488.98 353.375C488.564 353.151 488.236 352.835 487.996 352.427C487.756 352.019 487.62 351.539 487.588 350.987H488.488C488.512 351.395 488.608 351.743 488.776 352.031C488.944 352.319 489.172 352.539 489.46 352.691C489.756 352.835 490.088 352.907 490.456 352.907C490.856 352.907 491.204 352.831 491.5 352.679C491.796 352.519 492.028 352.279 492.196 351.959C492.364 351.639 492.448 351.235 492.448 350.747V344.915H493.348ZM499.219 350.987V347.207H500.047V353.531H499.267V352.391C499.107 352.759 498.847 353.063 498.487 353.303C498.127 353.535 497.715 353.651 497.251 353.651C496.827 353.651 496.451 353.571 496.123 353.411C495.803 353.243 495.555 352.987 495.379 352.643C495.203 352.291 495.115 351.851 495.115 351.323V347.207H495.955V351.143C495.955 351.783 496.099 352.243 496.387 352.523C496.675 352.795 497.039 352.931 497.479 352.931C497.815 352.931 498.111 352.847 498.367 352.679C498.631 352.511 498.839 352.279 498.991 351.983C499.143 351.687 499.219 351.355 499.219 350.987ZM502.706 353.531H501.866V344.915H502.706V353.531Z" fill="#8C89B4"/>
<path d="M553.377 350.411H557.541L557.793 351.143H553.017L553.377 350.411ZM558.321 353.531L555.417 345.875L552.489 353.531H551.601L554.949 344.915H555.933L559.269 353.531H558.321ZM564.307 350.987V347.207H565.135V353.531H564.355V352.391C564.195 352.759 563.935 353.063 563.575 353.303C563.215 353.535 562.803 353.651 562.339 353.651C561.915 353.651 561.539 353.571 561.211 353.411C560.891 353.243 560.643 352.987 560.467 352.643C560.291 352.291 560.203 351.851 560.203 351.323V347.207H561.043V351.143C561.043 351.783 561.187 352.243 561.475 352.523C561.763 352.795 562.127 352.931 562.567 352.931C562.903 352.931 563.199 352.847 563.455 352.679C563.719 352.511 563.927 352.279 564.079 351.983C564.231 351.687 564.307 351.355 564.307 350.987ZM569.342 355.979C568.814 355.979 568.35 355.887 567.95 355.703C567.55 355.527 567.238 355.267 567.014 354.923C566.798 354.587 566.678 354.187 566.654 353.723H567.458C567.498 354.235 567.678 354.627 567.998 354.899C568.318 355.171 568.762 355.307 569.33 355.307C569.962 355.307 570.438 355.143 570.758 354.815C571.078 354.495 571.238 354.027 571.238 353.411V352.079C571.046 352.519 570.766 352.863 570.398 353.111C570.038 353.359 569.622 353.483 569.15 353.483C568.622 353.483 568.158 353.351 567.758 353.087C567.358 352.823 567.046 352.451 566.822 351.971C566.598 351.483 566.486 350.919 566.486 350.279C566.486 349.639 566.594 349.079 566.81 348.599C567.034 348.119 567.346 347.747 567.746 347.483C568.146 347.219 568.61 347.087 569.138 347.087C569.618 347.087 570.042 347.215 570.41 347.471C570.786 347.727 571.078 348.087 571.286 348.551V347.207H572.066V353.387C572.066 354.211 571.826 354.847 571.346 355.295C570.874 355.751 570.206 355.979 569.342 355.979ZM567.326 350.279C567.326 351.055 567.498 351.663 567.842 352.103C568.194 352.543 568.67 352.763 569.27 352.763C569.67 352.763 570.014 352.663 570.302 352.463C570.598 352.263 570.83 351.983 570.998 351.623C571.166 351.255 571.25 350.827 571.25 350.339C571.25 349.571 571.07 348.959 570.71 348.503C570.358 348.039 569.878 347.807 569.27 347.807C568.67 347.807 568.194 348.027 567.842 348.467C567.498 348.907 567.326 349.511 567.326 350.279Z" fill="#8C89B4"/>
<path d="M79.0076 236.642C79.0076 234.926 80.3987 233.535 82.1147 233.535C83.8306 233.535 85.2217 234.926 85.2217 236.642V329.213H79.0076V236.642Z" fill="#9FE2BF"/>
<path d="M283.184 236.642C283.184 234.926 284.575 233.535 286.291 233.535C288.007 233.535 289.398 234.926 289.398 236.642V329.213H283.184V236.642Z" fill="#9FE2BF"/>
<path d="M91.4356 179.031C91.4356 177.315 92.8267 175.924 94.5426 175.924C96.2586 175.924 97.6497 177.315 97.6497 179.031V329.215H91.4356V179.031Z" fill="#F8F3EF"/>
<path d="M296.5 179.031C296.5 177.315 297.891 175.924 299.607 175.924C301.323 175.924 302.714 177.315 302.714 179.031V329.215H296.5V179.031Z" fill="#F8F3EF"/>
<path d="M148.25 193.436C148.25 191.72 149.641 190.329 151.357 190.329C153.073 190.329 154.464 191.72 154.464 193.436V329.216H148.25V193.436Z" fill="#9FE2BF"/>
<path d="M349.764 193.436C349.764 191.72 351.155 190.329 352.871 190.329C354.587 190.329 355.978 191.72 355.978 193.436V329.216H349.764V193.436Z" fill="#9FE2BF"/>
<path d="M218.38 260.305C218.38 258.589 219.771 257.198 221.487 257.198C223.203 257.198 224.595 258.589 224.595 260.305V329.214H218.38V260.305Z" fill="#9FE2BF"/>
<path d="M419.005 229.442C419.005 227.726 420.397 226.334 422.113 226.334C423.828 226.334 425.22 227.726 425.22 229.442V329.214H419.005V229.442Z" fill="#9FE2BF"/>
<path d="M484.698 229.442C484.698 227.726 486.089 226.334 487.805 226.334C489.521 226.334 490.912 227.726 490.912 229.442V329.214H484.698V229.442Z" fill="#9FE2BF"/>
<path d="M551.277 229.442C551.277 227.726 552.668 226.334 554.384 226.334C556.1 226.334 557.491 227.726 557.491 229.442V329.214H551.277V229.442Z" fill="#9FE2BF"/>
<path d="M160.677 235.615C160.677 233.899 162.069 232.508 163.785 232.508C165.5 232.508 166.892 233.899 166.892 235.615V329.215H160.677V235.615Z" fill="#F8F3EF"/>
<path d="M362.191 152.283C362.191 150.567 363.582 149.176 365.298 149.176C367.014 149.176 368.405 150.567 368.405 152.283V329.215H362.191V152.283Z" fill="#F8F3EF"/>
<path d="M431.434 259.277C431.434 257.561 432.826 256.17 434.541 256.17C436.257 256.17 437.649 257.561 437.649 259.277V329.214H431.434V259.277Z" fill="#F8F3EF"/>
<path d="M563.704 259.277C563.704 257.561 565.095 256.17 566.811 256.17C568.527 256.17 569.918 257.561 569.918 259.277V329.214H563.704V259.277Z" fill="#F8F3EF"/>
<path d="M497.126 259.277C497.126 257.561 498.517 256.17 500.233 256.17C501.949 256.17 503.34 257.561 503.34 259.277V329.214H497.126V259.277Z" fill="#F8F3EF"/>
<path d="M230.809 218.126C230.809 216.41 232.2 215.019 233.916 215.019C235.632 215.019 237.023 216.41 237.023 218.126V329.215H230.809V218.126Z" fill="#F8F3EF"/>
<g filter="url(#filter0_d_646_91)">
<path d="M368.406 165.895C368.406 162.344 371.285 159.465 374.836 159.465H463.177C466.728 159.465 469.607 162.344 469.607 165.895V209.619C469.607 213.17 466.728 216.049 463.177 216.049H368.406V165.895Z" fill="#464687"/>
</g>
<path d="M387.928 174.7H388.997V179.739C388.997 180.195 388.907 180.585 388.727 180.909C388.548 181.233 388.297 181.48 387.974 181.651C387.65 181.82 387.27 181.905 386.835 181.905C386.435 181.905 386.075 181.832 385.756 181.686C385.439 181.54 385.188 181.329 385.003 181.051C384.82 180.771 384.728 180.431 384.728 180.031H385.794C385.794 180.227 385.839 180.397 385.929 180.541C386.022 180.684 386.148 180.796 386.308 180.877C386.47 180.956 386.655 180.995 386.863 180.995C387.09 180.995 387.282 180.948 387.439 180.853C387.599 180.756 387.72 180.614 387.803 180.426C387.887 180.239 387.928 180.01 387.928 179.739V174.7ZM393.852 179.597V176.477H394.893V181.808H393.873V180.884H393.817C393.695 181.169 393.498 181.406 393.227 181.596C392.959 181.783 392.625 181.877 392.224 181.877C391.882 181.877 391.579 181.802 391.315 181.651C391.053 181.499 390.848 181.273 390.697 180.975C390.549 180.676 390.475 180.307 390.475 179.868V176.477H391.513V179.743C391.513 180.106 391.613 180.395 391.815 180.61C392.016 180.825 392.277 180.933 392.599 180.933C392.793 180.933 392.987 180.884 393.179 180.787C393.373 180.69 393.534 180.543 393.661 180.346C393.791 180.15 393.854 179.9 393.852 179.597ZM397.325 174.7V181.808H396.288V174.7H397.325ZM399.377 183.807C399.222 183.807 399.081 183.794 398.954 183.769C398.827 183.745 398.732 183.72 398.669 183.692L398.919 182.842C399.109 182.893 399.278 182.915 399.426 182.908C399.574 182.901 399.705 182.845 399.818 182.741C399.934 182.637 400.036 182.467 400.123 182.231L400.252 181.877L398.301 176.477H399.412L400.762 180.614H400.818L402.168 176.477H403.282L401.085 182.519C400.983 182.797 400.853 183.032 400.696 183.224C400.539 183.418 400.351 183.564 400.134 183.661C399.916 183.758 399.664 183.807 399.377 183.807ZM406.83 181.808V181.03L409.235 178.538C409.492 178.268 409.703 178.03 409.87 177.827C410.039 177.621 410.165 177.425 410.248 177.24C410.332 177.055 410.373 176.858 410.373 176.65C410.373 176.414 410.318 176.211 410.207 176.039C410.096 175.866 409.944 175.733 409.752 175.64C409.56 175.545 409.344 175.498 409.103 175.498C408.848 175.498 408.626 175.55 408.437 175.654C408.247 175.758 408.101 175.905 407.999 176.095C407.898 176.285 407.847 176.507 407.847 176.761H406.823C406.823 176.329 406.922 175.95 407.121 175.626C407.32 175.302 407.593 175.051 407.94 174.873C408.287 174.693 408.682 174.602 409.124 174.602C409.57 174.602 409.964 174.692 410.304 174.87C410.646 175.046 410.914 175.286 411.106 175.592C411.298 175.895 411.394 176.237 411.394 176.619C411.394 176.883 411.344 177.141 411.244 177.393C411.147 177.645 410.977 177.926 410.734 178.236C410.491 178.544 410.153 178.918 409.721 179.357L408.308 180.836V180.888H411.508V181.808H406.83ZM415.298 181.926C414.75 181.923 414.281 181.779 413.893 181.492C413.504 181.205 413.207 180.787 413.001 180.239C412.795 179.691 412.692 179.03 412.692 178.257C412.692 177.487 412.795 176.828 413.001 176.282C413.209 175.736 413.507 175.32 413.896 175.033C414.287 174.746 414.754 174.602 415.298 174.602C415.842 174.602 416.308 174.747 416.697 175.036C417.086 175.323 417.383 175.74 417.589 176.286C417.797 176.83 417.901 177.487 417.901 178.257C417.901 179.032 417.798 179.694 417.592 180.242C417.386 180.788 417.089 181.206 416.7 181.495C416.312 181.782 415.844 181.926 415.298 181.926ZM415.298 180.999C415.779 180.999 416.155 180.764 416.426 180.294C416.699 179.825 416.836 179.146 416.836 178.257C416.836 177.667 416.773 177.168 416.648 176.761C416.526 176.352 416.349 176.042 416.117 175.831C415.888 175.618 415.615 175.512 415.298 175.512C414.819 175.512 414.443 175.748 414.17 176.22C413.897 176.692 413.76 177.371 413.757 178.257C413.757 178.849 413.819 179.35 413.941 179.76C414.066 180.167 414.243 180.476 414.472 180.687C414.701 180.895 414.977 180.999 415.298 180.999ZM419.132 181.808V181.03L421.538 178.538C421.794 178.268 422.006 178.03 422.173 177.827C422.342 177.621 422.468 177.425 422.551 177.24C422.634 177.055 422.676 176.858 422.676 176.65C422.676 176.414 422.62 176.211 422.509 176.039C422.398 175.866 422.247 175.733 422.055 175.64C421.863 175.545 421.646 175.498 421.406 175.498C421.151 175.498 420.929 175.55 420.739 175.654C420.55 175.758 420.404 175.905 420.302 176.095C420.2 176.285 420.149 176.507 420.149 176.761H419.125C419.125 176.329 419.225 175.95 419.424 175.626C419.623 175.302 419.896 175.051 420.243 174.873C420.59 174.693 420.985 174.602 421.427 174.602C421.873 174.602 422.266 174.692 422.607 174.87C422.949 175.046 423.216 175.286 423.408 175.592C423.6 175.895 423.696 176.237 423.696 176.619C423.696 176.883 423.647 177.141 423.547 177.393C423.45 177.645 423.28 177.926 423.037 178.236C422.794 178.544 422.456 178.918 422.023 179.357L420.611 180.836V180.888H423.811V181.808H419.132ZM424.824 180.419V179.552L427.896 174.7H428.58V175.977H428.146L425.949 179.454V179.51H430.159V180.419H424.824ZM428.194 181.808V180.156L428.201 179.76V174.7H429.218V181.808H428.194ZM387.748 197.808L388.914 190.7H389.747L388.581 197.808H387.748ZM384.531 195.906L384.666 195.073H390.052L389.917 195.906H384.531ZM385.249 197.808L386.415 190.7H387.248L386.082 197.808H385.249ZM384.944 193.435L385.079 192.602H390.465L390.33 193.435H384.944ZM393.638 197.905C393.203 197.905 392.812 197.821 392.465 197.655C392.12 197.486 391.844 197.255 391.639 196.961C391.433 196.667 391.323 196.331 391.309 195.954H392.35C392.375 196.26 392.511 196.511 392.756 196.707C393.001 196.904 393.295 197.002 393.638 197.002C393.911 197.002 394.152 196.94 394.363 196.815C394.576 196.688 394.742 196.513 394.863 196.291C394.985 196.069 395.047 195.815 395.047 195.531C395.047 195.242 394.984 194.984 394.859 194.757C394.734 194.53 394.562 194.352 394.342 194.222C394.125 194.093 393.875 194.027 393.593 194.025C393.377 194.025 393.161 194.062 392.944 194.136C392.726 194.21 392.55 194.307 392.416 194.427L391.434 194.281L391.833 190.7H395.741V191.619H392.725L392.499 193.608H392.541C392.68 193.474 392.864 193.362 393.093 193.271C393.324 193.181 393.572 193.136 393.835 193.136C394.268 193.136 394.653 193.239 394.991 193.445C395.331 193.651 395.599 193.932 395.793 194.288C395.99 194.642 396.087 195.05 396.084 195.51C396.087 195.97 395.983 196.381 395.772 196.742C395.564 197.103 395.275 197.388 394.904 197.596C394.537 197.802 394.114 197.905 393.638 197.905ZM399.834 197.905C399.517 197.9 399.204 197.842 398.897 197.731C398.591 197.62 398.314 197.435 398.064 197.176C397.814 196.917 397.614 196.569 397.463 196.131C397.315 195.694 397.241 195.148 397.241 194.493C397.241 193.873 397.302 193.322 397.425 192.841C397.55 192.36 397.729 191.954 397.963 191.623C398.197 191.29 398.479 191.036 398.81 190.863C399.141 190.689 399.512 190.602 399.924 190.602C400.347 190.602 400.723 190.686 401.052 190.852C401.38 191.019 401.647 191.249 401.85 191.543C402.056 191.837 402.187 192.171 402.242 192.546H401.184C401.112 192.25 400.97 192.008 400.757 191.821C400.544 191.633 400.266 191.54 399.924 191.54C399.403 191.54 398.997 191.766 398.706 192.22C398.417 192.673 398.271 193.304 398.268 194.111H398.32C398.443 193.91 398.594 193.739 398.772 193.598C398.952 193.454 399.153 193.344 399.376 193.268C399.6 193.189 399.836 193.15 400.084 193.15C400.495 193.15 400.868 193.251 401.201 193.452C401.537 193.651 401.804 193.926 402.003 194.278C402.202 194.63 402.301 195.032 402.301 195.486C402.301 195.939 402.198 196.35 401.992 196.718C401.789 197.086 401.502 197.377 401.132 197.592C400.762 197.805 400.329 197.909 399.834 197.905ZM399.83 197.002C400.103 197.002 400.347 196.935 400.563 196.801C400.778 196.667 400.948 196.486 401.073 196.26C401.198 196.033 401.26 195.78 401.26 195.5C401.26 195.227 401.199 194.978 401.076 194.753C400.956 194.529 400.789 194.351 400.576 194.219C400.366 194.087 400.125 194.021 399.855 194.021C399.649 194.021 399.458 194.06 399.282 194.139C399.108 194.218 398.956 194.327 398.824 194.465C398.692 194.604 398.588 194.764 398.511 194.944C398.437 195.122 398.4 195.311 398.4 195.51C398.4 195.776 398.462 196.023 398.584 196.249C398.709 196.476 398.879 196.659 399.094 196.798C399.312 196.934 399.557 197.002 399.83 197.002ZM403.939 197.874C403.749 197.874 403.586 197.806 403.449 197.672C403.313 197.536 403.245 197.371 403.245 197.179C403.245 196.99 403.313 196.828 403.449 196.694C403.586 196.557 403.749 196.489 403.939 196.489C404.128 196.489 404.291 196.557 404.428 196.694C404.565 196.828 404.633 196.99 404.633 197.179C404.633 197.307 404.6 197.424 404.536 197.53C404.473 197.634 404.39 197.717 404.286 197.78C404.182 197.842 404.066 197.874 403.939 197.874ZM405.86 196.419V195.552L408.931 190.7H409.615V191.977H409.181L406.984 195.454V195.51H411.194V196.419H405.86ZM409.23 197.808V196.156L409.237 195.76V190.7H410.254V197.808H409.23ZM414.75 197.905C414.315 197.905 413.924 197.821 413.577 197.655C413.232 197.486 412.957 197.255 412.751 196.961C412.545 196.667 412.435 196.331 412.421 195.954H413.462C413.488 196.26 413.623 196.511 413.868 196.707C414.114 196.904 414.407 197.002 414.75 197.002C415.023 197.002 415.265 196.94 415.475 196.815C415.688 196.688 415.855 196.513 415.975 196.291C416.098 196.069 416.159 195.815 416.159 195.531C416.159 195.242 416.096 194.984 415.971 194.757C415.847 194.53 415.674 194.352 415.454 194.222C415.237 194.093 414.987 194.027 414.705 194.025C414.49 194.025 414.273 194.062 414.056 194.136C413.838 194.21 413.662 194.307 413.528 194.427L412.546 194.281L412.945 190.7H416.853V191.619H413.837L413.611 193.608H413.653C413.792 193.474 413.976 193.362 414.205 193.271C414.436 193.181 414.684 193.136 414.948 193.136C415.38 193.136 415.766 193.239 416.103 193.445C416.444 193.651 416.711 193.932 416.905 194.288C417.102 194.642 417.199 195.05 417.197 195.51C417.199 195.97 417.095 196.381 416.884 196.742C416.676 197.103 416.387 197.388 416.017 197.596C415.649 197.802 415.226 197.905 414.75 197.905ZM420.946 197.905C420.629 197.9 420.316 197.842 420.009 197.731C419.703 197.62 419.426 197.435 419.176 197.176C418.926 196.917 418.726 196.569 418.575 196.131C418.427 195.694 418.353 195.148 418.353 194.493C418.353 193.873 418.415 193.322 418.537 192.841C418.662 192.36 418.841 191.954 419.075 191.623C419.309 191.29 419.591 191.036 419.922 190.863C420.253 190.689 420.624 190.602 421.036 190.602C421.46 190.602 421.835 190.686 422.164 190.852C422.493 191.019 422.759 191.249 422.962 191.543C423.168 191.837 423.299 192.171 423.354 192.546H422.296C422.224 192.25 422.082 192.008 421.869 191.821C421.656 191.633 421.379 191.54 421.036 191.54C420.515 191.54 420.109 191.766 419.818 192.22C419.529 192.673 419.383 193.304 419.381 194.111H419.433C419.555 193.91 419.706 193.739 419.884 193.598C420.064 193.454 420.266 193.344 420.488 193.268C420.712 193.189 420.948 193.15 421.196 193.15C421.608 193.15 421.98 193.251 422.313 193.452C422.649 193.651 422.916 193.926 423.115 194.278C423.314 194.63 423.414 195.032 423.414 195.486C423.414 195.939 423.311 196.35 423.105 196.718C422.901 197.086 422.614 197.377 422.244 197.592C421.874 197.805 421.441 197.909 420.946 197.905ZM420.942 197.002C421.215 197.002 421.46 196.935 421.675 196.801C421.89 196.667 422.06 196.486 422.185 196.26C422.31 196.033 422.372 195.78 422.372 195.5C422.372 195.227 422.311 194.978 422.188 194.753C422.068 194.529 421.901 194.351 421.689 194.219C421.478 194.087 421.237 194.021 420.967 194.021C420.761 194.021 420.57 194.06 420.394 194.139C420.22 194.218 420.068 194.327 419.936 194.465C419.804 194.604 419.7 194.764 419.624 194.944C419.549 195.122 419.512 195.311 419.512 195.51C419.512 195.776 419.574 196.023 419.696 196.249C419.821 196.476 419.991 196.659 420.207 196.798C420.424 196.934 420.669 197.002 420.942 197.002ZM425.051 197.874C424.861 197.874 424.698 197.806 424.561 197.672C424.425 197.536 424.357 197.371 424.357 197.179C424.357 196.99 424.425 196.828 424.561 196.694C424.698 196.557 424.861 196.489 425.051 196.489C425.241 196.489 425.404 196.557 425.54 196.694C425.677 196.828 425.745 196.99 425.745 197.179C425.745 197.307 425.713 197.424 425.648 197.53C425.585 197.634 425.502 197.717 425.398 197.78C425.294 197.842 425.178 197.874 425.051 197.874ZM429.399 190.602C429.716 190.605 430.028 190.663 430.336 190.776C430.644 190.889 430.921 191.074 431.169 191.331C431.419 191.588 431.618 191.935 431.766 192.373C431.916 192.808 431.992 193.349 431.995 193.997C431.995 194.619 431.932 195.173 431.807 195.659C431.682 196.143 431.503 196.551 431.269 196.884C431.038 197.218 430.757 197.471 430.426 197.644C430.095 197.818 429.723 197.905 429.308 197.905C428.885 197.905 428.509 197.821 428.18 197.655C427.852 197.488 427.585 197.258 427.379 196.964C427.173 196.668 427.044 196.328 426.994 195.944H428.052C428.121 196.249 428.263 196.497 428.475 196.687C428.691 196.874 428.968 196.968 429.308 196.968C429.829 196.968 430.235 196.741 430.527 196.287C430.818 195.832 430.965 195.195 430.967 194.379H430.912C430.792 194.578 430.641 194.749 430.461 194.892C430.283 195.036 430.082 195.147 429.86 195.225C429.638 195.304 429.401 195.343 429.149 195.343C428.739 195.343 428.367 195.243 428.031 195.041C427.696 194.84 427.429 194.564 427.23 194.212C427.031 193.86 426.931 193.459 426.931 193.008C426.931 192.559 427.033 192.152 427.236 191.786C427.442 191.42 427.729 191.131 428.097 190.918C428.467 190.703 428.901 190.598 429.399 190.602ZM429.402 191.505C429.131 191.505 428.887 191.572 428.67 191.706C428.455 191.838 428.285 192.017 428.16 192.244C428.035 192.469 427.972 192.718 427.972 192.994C427.972 193.269 428.032 193.519 428.153 193.743C428.275 193.966 428.442 194.143 428.652 194.274C428.865 194.404 429.108 194.469 429.381 194.469C429.585 194.469 429.775 194.429 429.951 194.351C430.126 194.272 430.28 194.163 430.412 194.025C430.544 193.883 430.647 193.724 430.721 193.546C430.795 193.367 430.832 193.18 430.832 192.983C430.832 192.722 430.77 192.479 430.645 192.255C430.522 192.03 430.353 191.85 430.138 191.713C429.923 191.574 429.678 191.505 429.402 191.505Z" fill="white"/>
<defs>
<filter id="filter0_d_646_91" x="336.257" y="149.177" width="165.5" height="120.883" filterUnits="userSpaceOnUse" color-interpolation-filters="sRGB">
<feFlood flood-opacity="0" result="BackgroundImageFix"/>
<feColorMatrix in="SourceAlpha" type="matrix" values="0 0 0 0 0 0 0 0 0 0 0 0 0 0 0 0 0 0 127 0" result="hardAlpha"/>
<feOffset dy="21.8616"/>
<feGaussianBlur stdDeviation="16.0747"/>
<feComposite in2="hardAlpha" operator="out"/>
<feColorMatrix type="matrix" values="0 0 0 0 0 0 0 0 0 0 0 0 0 0 0 0 0 0 0.17 0"/>
<feBlend mode="normal" in2="BackgroundImageFix" result="effect1_dropShadow_646_91"/>
<feBlend mode="normal" in="SourceGraphic" in2="effect1_dropShadow_646_91" result="shape"/>
</filter>
</defs>
</svg>
