<svg width="229" height="135" viewBox="0 0 229 135" fill="none" xmlns="http://www.w3.org/2000/svg">
<g filter="url(#filter0_f_391_325)">
<path d="M75.5664 6.92285H172.12L101.134 86.4444H4.58008L75.5664 6.92285Z" fill="#06863B"/>
<path d="M79.7947 93.8146L52.3 124.615H153.434L224.42 45.0938H149.777L106.285 93.8146H79.7947Z" fill="#0D030C"/>
<path d="M51.784 67L59.272 50.2H63.112L70.624 67H66.544L60.4 52.168H61.936L55.768 67H51.784ZM55.528 63.4L56.56 60.448H65.2L66.256 63.4H55.528ZM77.2658 67.192C75.7458 67.192 74.5618 66.808 73.7138 66.04C72.8658 65.256 72.4418 64.096 72.4418 62.56V51.232H76.1858V62.512C76.1858 63.056 76.3298 63.48 76.6178 63.784C76.9058 64.072 77.2978 64.216 77.7938 64.216C78.3858 64.216 78.8898 64.056 79.3058 63.736L80.3138 66.376C79.9298 66.648 79.4658 66.856 78.9218 67C78.3938 67.128 77.8418 67.192 77.2658 67.192ZM70.4498 57.256V54.376H79.4018V57.256H70.4498ZM82.4155 67V49.192H86.1595V67H82.4155ZM97.5543 67V64.48L97.3143 63.928V59.416C97.3143 58.616 97.0663 57.992 96.5703 57.544C96.0903 57.096 95.3463 56.872 94.3383 56.872C93.6503 56.872 92.9703 56.984 92.2983 57.208C91.6423 57.416 91.0823 57.704 90.6183 58.072L89.2743 55.456C89.9783 54.96 90.8263 54.576 91.8183 54.304C92.8103 54.032 93.8183 53.896 94.8423 53.896C96.8103 53.896 98.3383 54.36 99.4263 55.288C100.514 56.216 101.058 57.664 101.058 59.632V67H97.5543ZM93.6183 67.192C92.6103 67.192 91.7463 67.024 91.0263 66.688C90.3063 66.336 89.7543 65.864 89.3703 65.272C88.9863 64.68 88.7943 64.016 88.7943 63.28C88.7943 62.512 88.9783 61.84 89.3463 61.264C89.7303 60.688 90.3303 60.24 91.1463 59.92C91.9623 59.584 93.0263 59.416 94.3383 59.416H97.7703V61.6H94.7463C93.8663 61.6 93.2583 61.744 92.9223 62.032C92.6023 62.32 92.4423 62.68 92.4423 63.112C92.4423 63.592 92.6263 63.976 92.9943 64.264C93.3783 64.536 93.8983 64.672 94.5543 64.672C95.1783 64.672 95.7383 64.528 96.2343 64.24C96.7303 63.936 97.0903 63.496 97.3143 62.92L97.8903 64.648C97.6183 65.48 97.1223 66.112 96.4023 66.544C95.6823 66.976 94.7543 67.192 93.6183 67.192ZM108.791 67.192C107.687 67.192 106.623 67.064 105.599 66.808C104.591 66.536 103.791 66.2 103.199 65.8L104.447 63.112C105.039 63.48 105.735 63.784 106.535 64.024C107.351 64.248 108.151 64.36 108.935 64.36C109.799 64.36 110.407 64.256 110.759 64.048C111.127 63.84 111.311 63.552 111.311 63.184C111.311 62.88 111.167 62.656 110.879 62.512C110.607 62.352 110.239 62.232 109.775 62.152C109.311 62.072 108.799 61.992 108.239 61.912C107.695 61.832 107.143 61.728 106.583 61.6C106.023 61.456 105.511 61.248 105.047 60.976C104.583 60.704 104.207 60.336 103.919 59.872C103.647 59.408 103.511 58.808 103.511 58.072C103.511 57.256 103.743 56.536 104.207 55.912C104.687 55.288 105.375 54.8 106.271 54.448C107.167 54.08 108.239 53.896 109.487 53.896C110.367 53.896 111.263 53.992 112.175 54.184C113.087 54.376 113.847 54.656 114.455 55.024L113.207 57.688C112.583 57.32 111.951 57.072 111.311 56.944C110.687 56.8 110.079 56.728 109.487 56.728C108.655 56.728 108.047 56.84 107.663 57.064C107.279 57.288 107.087 57.576 107.087 57.928C107.087 58.248 107.223 58.488 107.495 58.648C107.783 58.808 108.159 58.936 108.623 59.032C109.087 59.128 109.591 59.216 110.135 59.296C110.695 59.36 111.255 59.464 111.815 59.608C112.375 59.752 112.879 59.96 113.327 60.232C113.791 60.488 114.167 60.848 114.455 61.312C114.743 61.76 114.887 62.352 114.887 63.088C114.887 63.888 114.647 64.6 114.167 65.224C113.687 65.832 112.991 66.312 112.079 66.664C111.183 67.016 110.087 67.192 108.791 67.192ZM122.501 67L115.253 50.2H119.453L125.789 65.08H123.317L129.749 50.2H133.613L126.341 67H122.501ZM140.199 67.192C138.727 67.192 137.431 66.904 136.311 66.328C135.207 65.752 134.351 64.968 133.743 63.976C133.135 62.968 132.831 61.824 132.831 60.544C132.831 59.248 133.127 58.104 133.719 57.112C134.327 56.104 135.151 55.32 136.191 54.76C137.231 54.184 138.407 53.896 139.719 53.896C140.983 53.896 142.119 54.168 143.127 54.712C144.151 55.24 144.959 56.008 145.551 57.016C146.143 58.008 146.439 59.2 146.439 60.592C146.439 60.736 146.431 60.904 146.415 61.096C146.399 61.272 146.383 61.44 146.367 61.6H135.879V59.416H144.398L142.959 60.064C142.959 59.392 142.823 58.808 142.551 58.312C142.279 57.816 141.903 57.432 141.423 57.16C140.943 56.872 140.383 56.728 139.743 56.728C139.103 56.728 138.535 56.872 138.039 57.16C137.559 57.432 137.183 57.824 136.911 58.336C136.639 58.832 136.503 59.424 136.503 60.112V60.688C136.503 61.392 136.655 62.016 136.959 62.56C137.279 63.088 137.719 63.496 138.279 63.784C138.855 64.056 139.527 64.192 140.295 64.192C140.983 64.192 141.583 64.088 142.095 63.88C142.623 63.672 143.103 63.36 143.535 62.944L145.527 65.104C144.935 65.776 144.191 66.296 143.295 66.664C142.399 67.016 141.367 67.192 140.199 67.192ZM153.275 67.192C152.171 67.192 151.107 67.064 150.083 66.808C149.075 66.536 148.275 66.2 147.683 65.8L148.931 63.112C149.523 63.48 150.219 63.784 151.019 64.024C151.835 64.248 152.635 64.36 153.419 64.36C154.283 64.36 154.891 64.256 155.243 64.048C155.611 63.84 155.795 63.552 155.795 63.184C155.795 62.88 155.651 62.656 155.363 62.512C155.091 62.352 154.723 62.232 154.259 62.152C153.795 62.072 153.283 61.992 152.723 61.912C152.179 61.832 151.627 61.728 151.067 61.6C150.507 61.456 149.995 61.248 149.531 60.976C149.067 60.704 148.691 60.336 148.403 59.872C148.131 59.408 147.995 58.808 147.995 58.072C147.995 57.256 148.227 56.536 148.691 55.912C149.171 55.288 149.859 54.8 150.755 54.448C151.651 54.08 152.723 53.896 153.971 53.896C154.851 53.896 155.747 53.992 156.659 54.184C157.571 54.376 158.331 54.656 158.939 55.024L157.691 57.688C157.067 57.32 156.435 57.072 155.795 56.944C155.171 56.8 154.563 56.728 153.971 56.728C153.139 56.728 152.531 56.84 152.147 57.064C151.763 57.288 151.571 57.576 151.571 57.928C151.571 58.248 151.707 58.488 151.979 58.648C152.267 58.808 152.643 58.936 153.107 59.032C153.571 59.128 154.075 59.216 154.619 59.296C155.179 59.36 155.739 59.464 156.299 59.608C156.859 59.752 157.363 59.96 157.811 60.232C158.275 60.488 158.651 60.848 158.939 61.312C159.227 61.76 159.371 62.352 159.371 63.088C159.371 63.888 159.131 64.6 158.651 65.224C158.171 65.832 157.475 66.312 156.563 66.664C155.667 67.016 154.571 67.192 153.275 67.192ZM166.961 67.192C165.441 67.192 164.257 66.808 163.409 66.04C162.561 65.256 162.137 64.096 162.137 62.56V51.232H165.881V62.512C165.881 63.056 166.025 63.48 166.313 63.784C166.601 64.072 166.993 64.216 167.489 64.216C168.081 64.216 168.585 64.056 169.001 63.736L170.009 66.376C169.625 66.648 169.161 66.856 168.617 67C168.089 67.128 167.537 67.192 166.961 67.192ZM160.145 57.256V54.376H169.097V57.256H160.145Z" fill="white"/>
</g>
<defs>
<filter id="filter0_f_391_325" x="-4" y="-4" width="237" height="143" filterUnits="userSpaceOnUse" color-interpolation-filters="sRGB">
<feFlood flood-opacity="0" result="BackgroundImageFix"/>
<feBlend mode="normal" in="SourceGraphic" in2="BackgroundImageFix" result="shape"/>
<feGaussianBlur stdDeviation="2" result="effect1_foregroundBlur_391_325"/>
</filter>
</defs>
</svg>
