<svg width="56" height="50" viewBox="0 0 56 50" fill="none" xmlns="http://www.w3.org/2000/svg">
<path fill-rule="evenodd" clip-rule="evenodd" d="M27.9448 33.4135C32.9896 33.4135 37.0792 29.7167 37.0792 25.1566C37.0792 20.5964 32.9896 16.8997 27.9448 16.8997C22.8999 16.8997 18.8103 20.5964 18.8103 25.1566C18.8103 29.7167 22.8999 33.4135 27.9448 33.4135ZM27.9448 29.4846C25.3004 29.4846 23.1567 27.5469 23.1567 25.1566C23.1567 22.7663 25.3004 20.8286 27.9448 20.8286C30.5891 20.8286 32.7328 22.7663 32.7328 25.1566C32.7328 27.5469 30.5891 29.4846 27.9448 29.4846Z" fill="#0F0F0F"/>
<path d="M16.5267 25.1566C16.5267 26.2966 15.5043 27.2208 14.2431 27.2208C12.9819 27.2208 11.9595 26.2966 11.9595 25.1566C11.9595 24.0165 12.9819 23.0924 14.2431 23.0924C15.5043 23.0924 16.5267 24.0165 16.5267 25.1566Z" fill="#0F0F0F"/>
<path d="M41.6464 27.2208C42.9076 27.2208 43.93 26.2966 43.93 25.1566C43.93 24.0165 42.9076 23.0924 41.6464 23.0924C40.3852 23.0924 39.3628 24.0165 39.3628 25.1566C39.3628 26.2966 40.3852 27.2208 41.6464 27.2208Z" fill="#0F0F0F"/>
<path fill-rule="evenodd" clip-rule="evenodd" d="M48.4972 10.707C52.2809 10.707 55.3481 13.4796 55.3481 16.8997V33.4135C55.3481 36.8336 52.2809 39.6061 48.4972 39.6061H7.39227C3.60866 39.6061 0.541443 36.8336 0.541443 33.4135V16.8997C0.541443 13.4796 3.60866 10.707 7.39227 10.707H48.4972ZM9.67588 14.8355H46.2136C46.2136 15.3776 46.3318 15.9145 46.5613 16.4154C46.7908 16.9162 47.1272 17.3714 47.5513 17.7547C47.9754 18.1381 48.4789 18.4422 49.0331 18.6497C49.5872 18.8571 50.1811 18.9639 50.7809 18.9639V31.3492C50.1811 31.3492 49.5872 31.456 49.0331 31.6635C48.4789 31.871 47.9754 32.1751 47.5513 32.5584C47.1272 32.9418 46.7908 33.3969 46.5613 33.8978C46.3318 34.3987 46.2136 34.9355 46.2136 35.4777H9.67588C9.67588 34.9355 9.55775 34.3987 9.32822 33.8978C9.0987 33.3969 8.76228 32.9418 8.33817 32.5584C7.91407 32.1751 7.41058 31.871 6.85646 31.6635C6.30234 31.456 5.70844 31.3492 5.10866 31.3492V18.9639C5.70844 18.9639 6.30234 18.8571 6.85646 18.6497C7.41058 18.4422 7.91407 18.1381 8.33817 17.7547C8.76228 17.3714 9.0987 16.9162 9.32822 16.4154C9.55775 15.9145 9.67588 15.3776 9.67588 14.8355Z" fill="#0F0F0F"/>
</svg>
