<svg width="28" height="32" viewBox="0 0 28 32" fill="none" xmlns="http://www.w3.org/2000/svg">
<path d="M1.16669 2.66683C1.16669 1.93045 1.68902 1.3335 2.33335 1.3335C2.97769 1.3335 3.50002 1.93045 3.50002 2.66683V26.6668C3.50002 27.4032 4.02235 28.0002 4.66669 28.0002L25.6667 28.0002C26.311 28.0002 26.8334 28.5971 26.8334 29.3335C26.8334 30.0699 26.311 30.6668 25.6667 30.6668H3.50002C2.21136 30.6668 1.16669 29.4729 1.16669 28.0002V2.66683Z" fill="#0F0F0F"/>
<path d="M23.2499 7.16202C23.4892 6.4783 23.1982 5.70234 22.6 5.42886C22.0017 5.15538 21.3228 5.48793 21.0835 6.17164L17.2929 17.0019C17.1475 17.4173 16.6925 17.5544 16.3868 17.2749L12.928 14.1126C12.0889 13.3453 10.8486 13.6157 10.3154 14.682L5.98707 23.3386C5.66739 23.978 5.86175 24.7925 6.42119 25.1578C6.98063 25.5232 7.69329 25.301 8.01297 24.6617L11.6646 17.3585C11.8423 17.003 12.2557 16.9129 12.5355 17.1686L16.1572 20.48C17.0742 21.3183 18.4391 20.9071 18.8753 19.661L23.2499 7.16202Z" fill="#0F0F0F"/>
</svg>
