<svg width="332" height="267" viewBox="0 0 332 267" fill="none" xmlns="http://www.w3.org/2000/svg">
<rect width="332" height="267" rx="15" fill="white"/>
<path d="M121.303 39C121.303 33.4772 125.781 29 131.303 29H217.641C223.163 29 227.641 33.4772 227.641 39V65.7416C227.641 71.2644 223.163 75.7416 217.641 75.7416H131.303C125.781 75.7416 121.303 71.2644 121.303 65.7416V39Z" fill="#9FE2BF"/>
<path d="M121.303 119.629C121.303 114.107 125.781 109.629 131.303 109.629H302.944C308.467 109.629 312.944 114.107 312.944 119.629V146.371C312.944 151.894 308.467 156.371 302.944 156.371H131.303C125.781 156.371 121.303 151.894 121.303 146.371V119.629Z" fill="#979DA3"/>
<path d="M121.303 200.258C121.303 194.735 125.781 190.258 131.303 190.258H302.944C308.467 190.258 312.944 194.735 312.944 200.258V227C312.944 232.523 308.467 237 302.944 237H131.303C125.781 237 121.303 232.523 121.303 227V200.258Z" fill="#3A824C"/>
<path d="M35.494 45.358L31.238 59H29.414L26.089 48.8825C26.013 48.6798 25.9465 48.436 25.8895 48.151C25.8198 48.4423 25.7533 48.6862 25.69 48.8825L22.327 59H20.5125L16.2565 45.358H17.9475C18.1248 45.358 18.2737 45.4023 18.394 45.491C18.5143 45.5733 18.5935 45.6873 18.6315 45.833L21.32 54.9625C21.3707 55.1398 21.415 55.333 21.453 55.542C21.4973 55.751 21.5417 55.9695 21.586 56.1975C21.6303 55.9695 21.6747 55.751 21.719 55.542C21.7697 55.333 21.8267 55.1398 21.89 54.9625L24.968 45.833C25.006 45.7063 25.0852 45.5955 25.2055 45.5005C25.3322 45.4055 25.481 45.358 25.652 45.358H26.2315C26.4088 45.358 26.5545 45.4023 26.6685 45.491C26.7825 45.5797 26.8648 45.6937 26.9155 45.833L29.984 54.9625C30.098 55.3108 30.1993 55.7067 30.288 56.15C30.364 55.713 30.4463 55.3172 30.535 54.9625L33.233 45.833C33.2647 45.7063 33.3438 45.5955 33.4705 45.5005C33.5972 45.4055 33.746 45.358 33.917 45.358H35.494ZM38.9075 49.348V59H37.055V49.348H38.9075ZM39.259 46.365C39.259 46.536 39.2241 46.7007 39.1545 46.859C39.0848 47.011 38.9898 47.1472 38.8695 47.2675C38.7555 47.3815 38.6193 47.4733 38.461 47.543C38.3026 47.6063 38.138 47.638 37.967 47.638C37.796 47.638 37.6345 47.6063 37.4825 47.543C37.3305 47.4733 37.1943 47.3815 37.074 47.2675C36.96 47.1472 36.8681 47.011 36.7985 46.859C36.7351 46.7007 36.7035 46.536 36.7035 46.365C36.7035 46.1877 36.7351 46.023 36.7985 45.871C36.8681 45.7127 36.96 45.5765 37.074 45.4625C37.1943 45.3422 37.3305 45.2503 37.4825 45.187C37.6345 45.1173 37.796 45.0825 37.967 45.0825C38.138 45.0825 38.3026 45.1173 38.461 45.187C38.6193 45.2503 38.7555 45.3422 38.8695 45.4625C38.9898 45.5765 39.0848 45.7127 39.1545 45.871C39.2241 46.023 39.259 46.1877 39.259 46.365ZM44.6106 59.152C43.8316 59.152 43.2299 58.9335 42.8056 58.4965C42.3876 58.0595 42.1786 57.4357 42.1786 56.625V50.849H41.0576C40.9499 50.849 40.8581 50.8173 40.7821 50.754C40.7124 50.6843 40.6776 50.583 40.6776 50.45V49.6995L42.2451 49.481L42.6631 46.6025C42.6884 46.4948 42.7359 46.4125 42.8056 46.3555C42.8816 46.2922 42.9766 46.2605 43.0906 46.2605H44.0311V49.5H46.7671V50.849H44.0311V56.5015C44.0311 56.8815 44.1229 57.1665 44.3066 57.3565C44.4966 57.5402 44.7373 57.632 45.0286 57.632C45.1996 57.632 45.3453 57.6098 45.4656 57.5655C45.5923 57.5212 45.6999 57.4737 45.7886 57.423C45.8773 57.366 45.9533 57.3153 46.0166 57.271C46.0799 57.2267 46.1369 57.2045 46.1876 57.2045C46.2509 57.2045 46.2984 57.2203 46.3301 57.252C46.3681 57.2773 46.4061 57.3217 46.4441 57.385L46.9951 58.278C46.6911 58.5567 46.3301 58.772 45.9121 58.924C45.4941 59.076 45.0603 59.152 44.6106 59.152ZM50.3259 50.5735C50.7312 50.1618 51.1777 49.8293 51.6654 49.576C52.1594 49.3227 52.7262 49.196 53.3659 49.196C53.8979 49.196 54.3634 49.2847 54.7624 49.462C55.1677 49.6393 55.5065 49.8895 55.7789 50.2125C56.0512 50.5292 56.257 50.9123 56.3964 51.362C56.5357 51.8117 56.6054 52.3088 56.6054 52.8535V59H54.7434V52.8535C54.7434 52.1632 54.585 51.628 54.2684 51.248C53.9517 50.8617 53.4672 50.6685 52.8149 50.6685C52.3399 50.6685 51.8934 50.7825 51.4754 51.0105C51.0637 51.2322 50.6805 51.5362 50.3259 51.9225V59H48.4734V44.978H50.3259V50.5735ZM65.3277 51.685C65.0237 51.286 64.6944 51.0073 64.3397 50.849C63.9914 50.6907 63.5987 50.6115 63.1617 50.6115C62.313 50.6115 61.6544 50.9187 61.1857 51.533C60.7234 52.141 60.4922 53.0308 60.4922 54.2025C60.4922 54.8168 60.5429 55.3425 60.6442 55.7795C60.7519 56.2102 60.9039 56.5648 61.1002 56.8435C61.3029 57.1158 61.5499 57.3185 61.8412 57.4515C62.1325 57.5782 62.4619 57.6415 62.8292 57.6415C63.3675 57.6415 63.833 57.5212 64.2257 57.2805C64.6184 57.0398 64.9857 56.701 65.3277 56.264V51.685ZM67.1897 44.978V59H66.0687C65.809 59 65.6475 58.8765 65.5842 58.6295L65.4227 57.518C65.011 58.0057 64.5424 58.3983 64.0167 58.696C63.4974 58.9873 62.8957 59.133 62.2117 59.133C61.6607 59.133 61.1604 59.0253 60.7107 58.81C60.2674 58.5947 59.8874 58.2812 59.5707 57.8695C59.254 57.4515 59.0102 56.9353 58.8392 56.321C58.6682 55.7067 58.5827 55.0005 58.5827 54.2025C58.5827 53.4868 58.6777 52.8218 58.8677 52.2075C59.0577 51.5932 59.3332 51.0612 59.6942 50.6115C60.0552 50.1618 60.4922 49.8103 61.0052 49.557C61.5182 49.2973 62.0977 49.1675 62.7437 49.1675C63.3264 49.1675 63.8204 49.2625 64.2257 49.4525C64.6374 49.6425 65.0047 49.9117 65.3277 50.26V44.978H67.1897ZM71.5222 51.2005C71.8325 50.5672 72.2062 50.07 72.6432 49.709C73.0802 49.348 73.6058 49.1675 74.2202 49.1675C74.4292 49.1675 74.6255 49.1928 74.8092 49.2435C74.9992 49.2878 75.1638 49.3575 75.3032 49.4525L75.1797 50.849C75.1353 51.02 75.0308 51.1055 74.8662 51.1055C74.7775 51.1055 74.6445 51.0897 74.4672 51.058C74.2898 51.02 74.0998 51.001 73.8972 51.001C73.5995 51.001 73.3367 51.0453 73.1087 51.134C72.8807 51.2163 72.6748 51.343 72.4912 51.514C72.3138 51.6787 72.1555 51.8845 72.0162 52.1315C71.8768 52.3722 71.747 52.6477 71.6267 52.958V59H69.7742V49.348H70.8382C71.0408 49.348 71.177 49.386 71.2467 49.462C71.3227 49.5317 71.3765 49.6583 71.4082 49.842L71.5222 51.2005ZM81.7707 54.7155C81.0171 54.7408 80.3774 54.801 79.8517 54.896C79.3261 54.9847 78.8986 55.105 78.5692 55.257C78.2399 55.409 78.0024 55.5895 77.8567 55.7985C77.7111 56.0012 77.6382 56.2292 77.6382 56.4825C77.6382 56.7232 77.6762 56.9322 77.7522 57.1095C77.8346 57.2805 77.9422 57.423 78.0752 57.537C78.2146 57.6447 78.3761 57.7238 78.5597 57.7745C78.7434 57.8252 78.9429 57.8505 79.1582 57.8505C79.4432 57.8505 79.7029 57.822 79.9372 57.765C80.1779 57.708 80.4027 57.6288 80.6117 57.5275C80.8207 57.4198 81.0202 57.29 81.2102 57.138C81.4002 56.986 81.5871 56.8118 81.7707 56.6155V54.7155ZM76.3367 50.697C76.8751 50.184 77.4577 49.8008 78.0847 49.5475C78.7181 49.2942 79.4116 49.1675 80.1652 49.1675C80.7162 49.1675 81.2039 49.2593 81.6282 49.443C82.0526 49.6203 82.4104 49.8705 82.7017 50.1935C82.9931 50.5165 83.2116 50.9028 83.3572 51.3525C83.5092 51.8022 83.5852 52.2993 83.5852 52.844V59H82.7587C82.5751 59 82.4357 58.9715 82.3407 58.9145C82.2457 58.8512 82.1697 58.7372 82.1127 58.5725L81.9132 57.727C81.6662 57.955 81.4224 58.1577 81.1817 58.335C80.9411 58.506 80.6877 58.6548 80.4217 58.7815C80.1621 58.9018 79.8834 58.9937 79.5857 59.057C79.2881 59.1203 78.9587 59.152 78.5977 59.152C78.2177 59.152 77.8599 59.1013 77.5242 59C77.1949 58.8923 76.9067 58.7308 76.6597 58.5155C76.4127 58.3002 76.2164 58.031 76.0707 57.708C75.9314 57.385 75.8617 57.0082 75.8617 56.5775C75.8617 56.1975 75.9631 55.8333 76.1657 55.485C76.3747 55.1303 76.7104 54.8137 77.1727 54.535C77.6414 54.2563 78.2494 54.0283 78.9967 53.851C79.7504 53.6737 80.6751 53.5723 81.7707 53.547V52.844C81.7707 52.1157 81.6156 51.571 81.3052 51.21C80.9949 50.849 80.5389 50.6685 79.9372 50.6685C79.5319 50.6685 79.1899 50.7192 78.9112 50.8205C78.6389 50.9218 78.4014 51.0358 78.1987 51.1625C78.0024 51.2828 77.8282 51.3937 77.6762 51.495C77.5306 51.5963 77.3786 51.647 77.2202 51.647C77.0936 51.647 76.9827 51.6122 76.8877 51.5425C76.7991 51.4728 76.7262 51.3905 76.6692 51.2955L76.3367 50.697ZM99.4145 49.348L96.308 59H94.826C94.6486 59 94.5283 58.8828 94.465 58.6485L92.432 52.3595C92.3813 52.2012 92.337 52.046 92.299 51.894C92.261 51.7357 92.2261 51.5773 92.1945 51.419C92.1375 51.7483 92.0583 52.0682 91.957 52.3785L89.8955 58.6485C89.8321 58.8828 89.696 59 89.487 59H88.081L84.965 49.348H86.428C86.5736 49.348 86.694 49.3828 86.789 49.4525C86.8903 49.5222 86.9568 49.6108 86.9885 49.7185L88.727 55.6465C88.784 55.8872 88.8346 56.1215 88.879 56.3495C88.9233 56.5775 88.9645 56.8055 89.0025 57.0335C89.0595 56.8055 89.1196 56.5775 89.183 56.3495C89.2526 56.1215 89.3223 55.8872 89.392 55.6465L91.3205 49.6805C91.3521 49.5728 91.4123 49.4873 91.501 49.424C91.5896 49.3543 91.6973 49.3195 91.824 49.3195H92.6315C92.7708 49.3195 92.8848 49.3543 92.9735 49.424C93.0685 49.4873 93.1318 49.5728 93.1635 49.6805L95.0445 55.6465C95.1141 55.8872 95.1806 56.1247 95.244 56.359C95.3073 56.587 95.3643 56.8182 95.415 57.0525C95.453 56.8245 95.4973 56.5965 95.548 56.3685C95.5986 56.1342 95.6556 55.8935 95.719 55.6465L97.486 49.7185C97.5176 49.6108 97.581 49.5222 97.676 49.4525C97.7773 49.3828 97.8913 49.348 98.018 49.348H99.4145ZM106.059 54.7155C105.305 54.7408 104.665 54.801 104.14 54.896C103.614 54.9847 103.187 55.105 102.857 55.257C102.528 55.409 102.29 55.5895 102.145 55.7985C101.999 56.0012 101.926 56.2292 101.926 56.4825C101.926 56.7232 101.964 56.9322 102.04 57.1095C102.123 57.2805 102.23 57.423 102.363 57.537C102.503 57.6447 102.664 57.7238 102.848 57.7745C103.031 57.8252 103.231 57.8505 103.446 57.8505C103.731 57.8505 103.991 57.822 104.225 57.765C104.466 57.708 104.691 57.6288 104.9 57.5275C105.109 57.4198 105.308 57.29 105.498 57.138C105.688 56.986 105.875 56.8118 106.059 56.6155V54.7155ZM100.625 50.697C101.163 50.184 101.746 49.8008 102.373 49.5475C103.006 49.2942 103.7 49.1675 104.453 49.1675C105.004 49.1675 105.492 49.2593 105.916 49.443C106.341 49.6203 106.698 49.8705 106.99 50.1935C107.281 50.5165 107.5 50.9028 107.645 51.3525C107.797 51.8022 107.873 52.2993 107.873 52.844V59H107.047C106.863 59 106.724 58.9715 106.629 58.9145C106.534 58.8512 106.458 58.7372 106.401 58.5725L106.201 57.727C105.954 57.955 105.71 58.1577 105.47 58.335C105.229 58.506 104.976 58.6548 104.71 58.7815C104.45 58.9018 104.171 58.9937 103.874 59.057C103.576 59.1203 103.247 59.152 102.886 59.152C102.506 59.152 102.148 59.1013 101.812 59C101.483 58.8923 101.195 58.7308 100.948 58.5155C100.701 58.3002 100.504 58.031 100.359 57.708C100.219 57.385 100.15 57.0082 100.15 56.5775C100.15 56.1975 100.251 55.8333 100.454 55.485C100.663 55.1303 100.998 54.8137 101.461 54.535C101.929 54.2563 102.537 54.0283 103.285 53.851C104.038 53.6737 104.963 53.5723 106.059 53.547V52.844C106.059 52.1157 105.904 51.571 105.593 51.21C105.283 50.849 104.827 50.6685 104.225 50.6685C103.82 50.6685 103.478 50.7192 103.199 50.8205C102.927 50.9218 102.689 51.0358 102.487 51.1625C102.29 51.2828 102.116 51.3937 101.964 51.495C101.819 51.5963 101.667 51.647 101.508 51.647C101.382 51.647 101.271 51.6122 101.176 51.5425C101.087 51.4728 101.014 51.3905 100.957 51.2955L100.625 50.697ZM112.253 44.978V59H110.391V44.978H112.253Z" fill="black"/>
<path d="M61.585 132.179C61.585 133.199 61.4203 134.126 61.091 134.962C60.768 135.798 60.3088 136.517 59.7135 137.119C59.1182 137.714 58.4057 138.177 57.576 138.506C56.7463 138.835 55.8248 139 54.8115 139H49.6815V125.358H54.8115C55.8248 125.358 56.7463 125.523 57.576 125.852C58.4057 126.181 59.1182 126.647 59.7135 127.248C60.3088 127.844 60.768 128.563 61.091 129.405C61.4203 130.241 61.585 131.166 61.585 132.179ZM59.514 132.179C59.514 131.368 59.4032 130.643 59.1815 130.003C58.9598 129.357 58.6432 128.813 58.2315 128.369C57.8262 127.92 57.3322 127.578 56.7495 127.343C56.1732 127.109 55.5272 126.992 54.8115 126.992H51.7145V137.366H54.8115C55.5272 137.366 56.1732 137.249 56.7495 137.014C57.3322 136.78 57.8262 136.441 58.2315 135.998C58.6432 135.548 58.9598 135.004 59.1815 134.364C59.4032 133.724 59.514 132.996 59.514 132.179ZM70.0192 133.1C70.0192 132.733 69.9654 132.394 69.8577 132.084C69.7564 131.774 69.6044 131.504 69.4017 131.276C69.1991 131.048 68.9521 130.871 68.6607 130.744C68.3694 130.618 68.0337 130.554 67.6537 130.554C66.8747 130.554 66.2604 130.779 65.8107 131.229C65.3674 131.679 65.0856 132.302 64.9652 133.1H70.0192ZM71.5487 137.622C71.3207 137.888 71.0579 138.12 70.7602 138.316C70.4626 138.506 70.1459 138.661 69.8102 138.781C69.4746 138.902 69.1262 138.99 68.7652 139.048C68.4106 139.105 68.0591 139.133 67.7107 139.133C67.0457 139.133 66.4282 139.022 65.8582 138.8C65.2946 138.572 64.8037 138.243 64.3857 137.812C63.9741 137.375 63.6511 136.837 63.4167 136.197C63.1887 135.551 63.0747 134.81 63.0747 133.974C63.0747 133.303 63.1792 132.679 63.3882 132.103C63.5972 131.52 63.8949 131.014 64.2812 130.583C64.6739 130.152 65.1521 129.813 65.7157 129.566C66.2794 129.319 66.9127 129.196 67.6157 129.196C68.2047 129.196 68.7462 129.294 69.2402 129.49C69.7406 129.68 70.1712 129.959 70.5322 130.326C70.8932 130.694 71.1751 131.147 71.3777 131.685C71.5867 132.223 71.6912 132.838 71.6912 133.528C71.6912 133.813 71.6596 134.006 71.5962 134.107C71.5329 134.202 71.4157 134.25 71.2447 134.25H64.9177C64.9367 134.826 65.0191 135.33 65.1647 135.76C65.3104 136.185 65.5099 136.539 65.7632 136.824C66.0229 137.109 66.3301 137.322 66.6847 137.461C67.0394 137.6 67.4352 137.67 67.8722 137.67C68.2839 137.67 68.6386 137.622 68.9362 137.527C69.2402 137.432 69.4999 137.331 69.7152 137.223C69.9369 137.109 70.1206 137.005 70.2662 136.91C70.4182 136.815 70.5512 136.767 70.6652 136.767C70.8172 136.767 70.9344 136.824 71.0167 136.938L71.5487 137.622ZM75.5349 136.625C75.8389 137.024 76.165 137.303 76.5134 137.461C76.868 137.619 77.2639 137.698 77.7009 137.698C78.5495 137.698 79.205 137.394 79.6674 136.786C80.136 136.172 80.3704 135.279 80.3704 134.107C80.3704 133.493 80.3165 132.971 80.2089 132.54C80.1075 132.103 79.9555 131.748 79.7529 131.476C79.5565 131.197 79.3127 130.995 79.0214 130.868C78.73 130.735 78.4007 130.668 78.0334 130.668C77.495 130.668 77.0264 130.789 76.6274 131.029C76.2347 131.27 75.8705 131.612 75.5349 132.055V136.625ZM75.4399 130.792C75.6425 130.551 75.8579 130.333 76.0859 130.136C76.3202 129.934 76.5704 129.763 76.8364 129.623C77.1024 129.478 77.3842 129.367 77.6819 129.291C77.9859 129.209 78.3089 129.167 78.6509 129.167C79.2019 129.167 79.699 129.275 80.1424 129.49C80.592 129.706 80.9752 130.022 81.2919 130.44C81.6085 130.858 81.8524 131.375 82.0234 131.989C82.2007 132.603 82.2894 133.309 82.2894 134.107C82.2894 134.823 82.1912 135.488 81.9949 136.102C81.8049 136.71 81.5294 137.239 81.1684 137.689C80.8137 138.139 80.3767 138.493 79.8574 138.753C79.3444 139.006 78.7649 139.133 78.1189 139.133C77.5425 139.133 77.0485 139.038 76.6369 138.848C76.2252 138.658 75.8579 138.392 75.5349 138.05V142.24H73.6824V129.348H74.7939C75.0535 129.348 75.215 129.471 75.2784 129.718L75.4399 130.792ZM88.4834 129.196C89.1927 129.196 89.8324 129.313 90.4024 129.547C90.9787 129.775 91.4664 130.108 91.8654 130.545C92.2707 130.976 92.581 131.498 92.7964 132.112C93.0117 132.72 93.1194 133.404 93.1194 134.164C93.1194 134.924 93.0117 135.612 92.7964 136.226C92.581 136.84 92.2707 137.363 91.8654 137.793C91.4664 138.224 90.9787 138.557 90.4024 138.791C89.8324 139.019 89.1927 139.133 88.4834 139.133C87.7677 139.133 87.1217 139.019 86.5454 138.791C85.9754 138.557 85.4877 138.224 85.0824 137.793C84.677 137.363 84.3635 136.84 84.1419 136.226C83.9265 135.612 83.8189 134.924 83.8189 134.164C83.8189 133.404 83.9265 132.72 84.1419 132.112C84.3635 131.498 84.677 130.976 85.0824 130.545C85.4877 130.108 85.9754 129.775 86.5454 129.547C87.1217 129.313 87.7677 129.196 88.4834 129.196ZM88.4834 137.689C89.3954 137.689 90.0762 137.382 90.5259 136.767C90.9755 136.153 91.2004 135.289 91.2004 134.174C91.2004 133.059 90.9755 132.195 90.5259 131.58C90.0762 130.96 89.3954 130.649 88.4834 130.649C87.5587 130.649 86.8684 130.96 86.4124 131.58C85.9627 132.195 85.7379 133.059 85.7379 134.174C85.7379 135.289 85.9627 136.153 86.4124 136.767C86.8684 137.382 87.5587 137.689 88.4834 137.689ZM100.878 131.01C100.827 131.093 100.773 131.153 100.716 131.191C100.659 131.223 100.586 131.238 100.498 131.238C100.396 131.238 100.282 131.204 100.156 131.134C100.035 131.064 99.8866 130.988 99.7092 130.906C99.5382 130.824 99.3356 130.748 99.1012 130.678C98.8669 130.608 98.5882 130.573 98.2652 130.573C97.9992 130.573 97.7554 130.608 97.5337 130.678C97.3184 130.741 97.1347 130.833 96.9827 130.953C96.8307 131.067 96.7136 131.207 96.6312 131.371C96.5489 131.53 96.5077 131.701 96.5077 131.884C96.5077 132.125 96.5774 132.325 96.7167 132.483C96.8624 132.641 97.0492 132.777 97.2772 132.891C97.5116 133.005 97.7744 133.11 98.0657 133.205C98.3634 133.294 98.6642 133.389 98.9682 133.49C99.2786 133.591 99.5794 133.708 99.8707 133.841C100.168 133.968 100.431 134.13 100.659 134.326C100.894 134.516 101.08 134.747 101.22 135.019C101.365 135.292 101.438 135.624 101.438 136.017C101.438 136.467 101.356 136.885 101.191 137.271C101.033 137.651 100.795 137.98 100.479 138.259C100.168 138.538 99.7821 138.756 99.3197 138.914C98.8574 139.073 98.3286 139.152 97.7332 139.152C97.0682 139.152 96.4539 139.041 95.8902 138.819C95.3266 138.598 94.8547 138.316 94.4747 137.974L94.9117 137.261C94.9624 137.173 95.0257 137.106 95.1017 137.062C95.1777 137.011 95.2791 136.986 95.4057 136.986C95.5261 136.986 95.6496 137.03 95.7762 137.119C95.9029 137.208 96.0549 137.306 96.2322 137.413C96.4096 137.515 96.6249 137.61 96.8782 137.698C97.1316 137.781 97.4482 137.822 97.8282 137.822C98.1449 137.822 98.4204 137.784 98.6547 137.708C98.8891 137.626 99.0822 137.518 99.2342 137.385C99.3926 137.246 99.5097 137.087 99.5857 136.91C99.6617 136.733 99.6997 136.546 99.6997 136.349C99.6997 136.096 99.6269 135.887 99.4812 135.722C99.3419 135.551 99.1551 135.406 98.9207 135.285C98.6927 135.165 98.4299 135.061 98.1322 134.972C97.8346 134.883 97.5306 134.788 97.2202 134.687C96.9099 134.586 96.6059 134.468 96.3082 134.335C96.0106 134.202 95.7446 134.035 95.5102 133.832C95.2822 133.629 95.0954 133.382 94.9497 133.091C94.8104 132.8 94.7407 132.445 94.7407 132.027C94.7407 131.653 94.8167 131.295 94.9687 130.953C95.1271 130.611 95.3519 130.311 95.6432 130.051C95.9409 129.791 96.3051 129.585 96.7357 129.433C97.1727 129.275 97.6699 129.196 98.2272 129.196C98.8669 129.196 99.4432 129.297 99.9562 129.5C100.476 129.703 100.919 129.981 101.286 130.336L100.878 131.01ZM105.382 129.348V139H103.53V129.348H105.382ZM105.734 126.365C105.734 126.536 105.699 126.701 105.629 126.859C105.559 127.011 105.464 127.147 105.344 127.267C105.23 127.381 105.094 127.473 104.936 127.543C104.777 127.606 104.613 127.638 104.442 127.638C104.271 127.638 104.109 127.606 103.957 127.543C103.805 127.473 103.669 127.381 103.549 127.267C103.435 127.147 103.343 127.011 103.273 126.859C103.21 126.701 103.178 126.536 103.178 126.365C103.178 126.188 103.21 126.023 103.273 125.871C103.343 125.713 103.435 125.576 103.549 125.462C103.669 125.342 103.805 125.25 103.957 125.187C104.109 125.117 104.271 125.082 104.442 125.082C104.613 125.082 104.777 125.117 104.936 125.187C105.094 125.25 105.23 125.342 105.344 125.462C105.464 125.576 105.559 125.713 105.629 125.871C105.699 126.023 105.734 126.188 105.734 126.365ZM111.085 139.152C110.306 139.152 109.705 138.933 109.28 138.496C108.862 138.059 108.653 137.436 108.653 136.625V130.849H107.532C107.425 130.849 107.333 130.817 107.257 130.754C107.187 130.684 107.152 130.583 107.152 130.45V129.699L108.72 129.481L109.138 126.602C109.163 126.495 109.211 126.412 109.28 126.355C109.356 126.292 109.451 126.26 109.565 126.26H110.506V129.5H113.242V130.849H110.506V136.501C110.506 136.881 110.598 137.166 110.781 137.356C110.971 137.54 111.212 137.632 111.503 137.632C111.674 137.632 111.82 137.61 111.94 137.565C112.067 137.521 112.175 137.474 112.263 137.423C112.352 137.366 112.428 137.315 112.491 137.271C112.555 137.227 112.612 137.204 112.662 137.204C112.726 137.204 112.773 137.22 112.805 137.252C112.843 137.277 112.881 137.322 112.919 137.385L113.47 138.278C113.166 138.557 112.805 138.772 112.387 138.924C111.969 139.076 111.535 139.152 111.085 139.152Z" fill="black"/>
<path d="M23.7145 220H21.6815V206.358H23.7145V220ZM28.291 211.687C28.5 211.466 28.7185 211.263 28.9465 211.079C29.1745 210.896 29.4151 210.741 29.6685 210.614C29.9281 210.481 30.2036 210.38 30.495 210.31C30.7926 210.234 31.1093 210.196 31.445 210.196C31.977 210.196 32.4425 210.285 32.8415 210.462C33.2468 210.639 33.5856 210.889 33.858 211.212C34.1303 211.529 34.3361 211.912 34.4755 212.362C34.6148 212.812 34.6845 213.309 34.6845 213.853V220H32.8225V213.853C32.8225 213.163 32.6641 212.628 32.3475 212.248C32.0308 211.862 31.5463 211.668 30.894 211.668C30.419 211.668 29.9725 211.782 29.5545 212.01C29.1428 212.232 28.7596 212.536 28.405 212.922V220H26.5525V210.348H27.664C27.9236 210.348 28.0851 210.471 28.1485 210.718L28.291 211.687ZM45.3592 210.348L41.4452 220H39.7732L35.8592 210.348H37.3887C37.5344 210.348 37.6547 210.383 37.7497 210.453C37.8447 210.522 37.908 210.611 37.9397 210.718L40.2482 216.646C40.3305 216.893 40.4002 217.14 40.4572 217.387C40.5205 217.628 40.5775 217.869 40.6282 218.109C40.6789 217.869 40.7359 217.628 40.7992 217.387C40.8625 217.147 40.9385 216.9 41.0272 216.646L43.3642 210.718C43.4022 210.611 43.4687 210.522 43.5637 210.453C43.6587 210.383 43.7727 210.348 43.9057 210.348H45.3592ZM52.9479 214.1C52.9479 213.733 52.8941 213.394 52.7864 213.084C52.6851 212.774 52.5331 212.504 52.3304 212.276C52.1278 212.048 51.8808 211.871 51.5894 211.744C51.2981 211.618 50.9624 211.554 50.5824 211.554C49.8034 211.554 49.1891 211.779 48.7394 212.229C48.2961 212.679 48.0143 213.302 47.8939 214.1H52.9479ZM54.4774 218.622C54.2494 218.888 53.9866 219.12 53.6889 219.316C53.3913 219.506 53.0746 219.661 52.7389 219.781C52.4033 219.902 52.0549 219.99 51.6939 220.048C51.3393 220.105 50.9878 220.133 50.6394 220.133C49.9744 220.133 49.3569 220.022 48.7869 219.8C48.2233 219.572 47.7324 219.243 47.3144 218.812C46.9028 218.375 46.5798 217.837 46.3454 217.197C46.1174 216.551 46.0034 215.81 46.0034 214.974C46.0034 214.303 46.1079 213.679 46.3169 213.103C46.5259 212.52 46.8236 212.014 47.2099 211.583C47.6026 211.152 48.0808 210.813 48.6444 210.566C49.2081 210.319 49.8414 210.196 50.5444 210.196C51.1334 210.196 51.6749 210.294 52.1689 210.49C52.6693 210.68 53.0999 210.959 53.4609 211.326C53.8219 211.694 54.1038 212.147 54.3064 212.685C54.5154 213.223 54.6199 213.838 54.6199 214.528C54.6199 214.813 54.5883 215.006 54.5249 215.107C54.4616 215.202 54.3444 215.25 54.1734 215.25H47.8464C47.8654 215.826 47.9478 216.33 48.0934 216.76C48.2391 217.185 48.4386 217.539 48.6919 217.824C48.9516 218.109 49.2588 218.322 49.6134 218.461C49.9681 218.6 50.3639 218.67 50.8009 218.67C51.2126 218.67 51.5673 218.622 51.8649 218.527C52.1689 218.432 52.4286 218.331 52.6439 218.223C52.8656 218.109 53.0493 218.005 53.1949 217.91C53.3469 217.815 53.4799 217.767 53.5939 217.767C53.7459 217.767 53.8631 217.824 53.9454 217.938L54.4774 218.622ZM62.3016 212.01C62.2509 212.093 62.1971 212.153 62.1401 212.191C62.0831 212.223 62.0102 212.238 61.9216 212.238C61.8202 212.238 61.7062 212.204 61.5796 212.134C61.4592 212.064 61.3104 211.988 61.1331 211.906C60.9621 211.824 60.7594 211.748 60.5251 211.678C60.2907 211.608 60.0121 211.573 59.6891 211.573C59.4231 211.573 59.1792 211.608 58.9576 211.678C58.7422 211.741 58.5586 211.833 58.4066 211.953C58.2546 212.067 58.1374 212.207 58.0551 212.371C57.9727 212.53 57.9316 212.701 57.9316 212.884C57.9316 213.125 58.0012 213.325 58.1406 213.483C58.2862 213.641 58.4731 213.777 58.7011 213.891C58.9354 214.005 59.1982 214.11 59.4896 214.205C59.7872 214.294 60.0881 214.389 60.3921 214.49C60.7024 214.591 61.0032 214.708 61.2946 214.841C61.5922 214.968 61.8551 215.13 62.0831 215.326C62.3174 215.516 62.5042 215.747 62.6436 216.019C62.7892 216.292 62.8621 216.624 62.8621 217.017C62.8621 217.467 62.7797 217.885 62.6151 218.271C62.4567 218.651 62.2192 218.98 61.9026 219.259C61.5922 219.538 61.2059 219.756 60.7436 219.914C60.2812 220.073 59.7524 220.152 59.1571 220.152C58.4921 220.152 57.8777 220.041 57.3141 219.819C56.7504 219.598 56.2786 219.316 55.8986 218.974L56.3356 218.261C56.3862 218.173 56.4496 218.106 56.5256 218.062C56.6016 218.011 56.7029 217.986 56.8296 217.986C56.9499 217.986 57.0734 218.03 57.2001 218.119C57.3267 218.208 57.4787 218.306 57.6561 218.413C57.8334 218.515 58.0487 218.61 58.3021 218.698C58.5554 218.781 58.8721 218.822 59.2521 218.822C59.5687 218.822 59.8442 218.784 60.0786 218.708C60.3129 218.626 60.5061 218.518 60.6581 218.385C60.8164 218.246 60.9336 218.087 61.0096 217.91C61.0856 217.733 61.1236 217.546 61.1236 217.349C61.1236 217.096 61.0507 216.887 60.9051 216.722C60.7657 216.551 60.5789 216.406 60.3446 216.285C60.1166 216.165 59.8537 216.061 59.5561 215.972C59.2584 215.883 58.9544 215.788 58.6441 215.687C58.3337 215.586 58.0297 215.468 57.7321 215.335C57.4344 215.202 57.1684 215.035 56.9341 214.832C56.7061 214.629 56.5192 214.382 56.3736 214.091C56.2342 213.8 56.1646 213.445 56.1646 213.027C56.1646 212.653 56.2406 212.295 56.3926 211.953C56.5509 211.611 56.7757 211.311 57.0671 211.051C57.3647 210.791 57.7289 210.585 58.1596 210.433C58.5966 210.275 59.0937 210.196 59.6511 210.196C60.2907 210.196 60.8671 210.297 61.3801 210.5C61.8994 210.703 62.3427 210.981 62.7101 211.336L62.3016 212.01ZM67.8889 220.152C67.1099 220.152 66.5082 219.933 66.0839 219.496C65.6659 219.059 65.4569 218.436 65.4569 217.625V211.849H64.3359C64.2282 211.849 64.1364 211.817 64.0604 211.754C63.9907 211.684 63.9559 211.583 63.9559 211.45V210.699L65.5234 210.481L65.9414 207.602C65.9667 207.495 66.0142 207.412 66.0839 207.355C66.1599 207.292 66.2549 207.26 66.3689 207.26H67.3094V210.5H70.0454V211.849H67.3094V217.501C67.3094 217.881 67.4012 218.166 67.5849 218.356C67.7749 218.54 68.0156 218.632 68.3069 218.632C68.4779 218.632 68.6236 218.61 68.7439 218.565C68.8706 218.521 68.9782 218.474 69.0669 218.423C69.1556 218.366 69.2316 218.315 69.2949 218.271C69.3582 218.227 69.4152 218.204 69.4659 218.204C69.5292 218.204 69.5767 218.22 69.6084 218.252C69.6464 218.277 69.6844 218.322 69.7224 218.385L70.2734 219.278C69.9694 219.557 69.6084 219.772 69.1904 219.924C68.7724 220.076 68.3386 220.152 67.8889 220.152ZM71.7517 220V210.348H72.8632C73.1229 210.348 73.2844 210.471 73.3477 210.718L73.4807 211.64C73.8354 211.216 74.228 210.87 74.6587 210.604C75.0957 210.332 75.6055 210.196 76.1882 210.196C76.8279 210.196 77.3472 210.373 77.7462 210.728C78.1452 211.076 78.4365 211.551 78.6202 212.153C78.7595 211.811 78.94 211.516 79.1617 211.269C79.3834 211.022 79.6304 210.82 79.9027 210.661C80.175 210.503 80.4632 210.386 80.7672 210.31C81.0775 210.234 81.391 210.196 81.7077 210.196C82.2207 210.196 82.6767 210.278 83.0757 210.443C83.481 210.601 83.823 210.836 84.1017 211.146C84.3804 211.456 84.5925 211.839 84.7382 212.295C84.8839 212.751 84.9567 213.271 84.9567 213.853V220H83.0947V213.853C83.0947 213.131 82.9364 212.587 82.6197 212.219C82.3094 211.852 81.8534 211.668 81.2517 211.668C80.9857 211.668 80.7324 211.716 80.4917 211.811C80.251 211.9 80.0389 212.036 79.8552 212.219C79.6779 212.403 79.5354 212.631 79.4277 212.903C79.3264 213.176 79.2757 213.492 79.2757 213.853V220H77.4137V213.853C77.4137 213.106 77.2649 212.555 76.9672 212.2C76.6695 211.846 76.2325 211.668 75.6562 211.668C75.2572 211.668 74.8867 211.773 74.5447 211.982C74.2027 212.191 73.8892 212.476 73.6042 212.837V220H71.7517ZM93.8425 214.1C93.8425 213.733 93.7886 213.394 93.681 213.084C93.5796 212.774 93.4276 212.504 93.225 212.276C93.0223 212.048 92.7753 211.871 92.484 211.744C92.1926 211.618 91.857 211.554 91.477 211.554C90.698 211.554 90.0836 211.779 89.634 212.229C89.1906 212.679 88.9088 213.302 88.7885 214.1H93.8425ZM95.372 218.622C95.144 218.888 94.8811 219.12 94.5835 219.316C94.2858 219.506 93.9691 219.661 93.6335 219.781C93.2978 219.902 92.9495 219.99 92.5885 220.048C92.2338 220.105 91.8823 220.133 91.534 220.133C90.869 220.133 90.2515 220.022 89.6815 219.8C89.1178 219.572 88.627 219.243 88.209 218.812C87.7973 218.375 87.4743 217.837 87.24 217.197C87.012 216.551 86.898 215.81 86.898 214.974C86.898 214.303 87.0025 213.679 87.2115 213.103C87.4205 212.52 87.7181 212.014 88.1045 211.583C88.4971 211.152 88.9753 210.813 89.539 210.566C90.1026 210.319 90.736 210.196 91.439 210.196C92.028 210.196 92.5695 210.294 93.0635 210.49C93.5638 210.68 93.9945 210.959 94.3555 211.326C94.7165 211.694 94.9983 212.147 95.201 212.685C95.41 213.223 95.5145 213.838 95.5145 214.528C95.5145 214.813 95.4828 215.006 95.4195 215.107C95.3561 215.202 95.239 215.25 95.068 215.25H88.741C88.76 215.826 88.8423 216.33 88.988 216.76C89.1336 217.185 89.3331 217.539 89.5865 217.824C89.8461 218.109 90.1533 218.322 90.508 218.461C90.8626 218.6 91.2585 218.67 91.6955 218.67C92.1071 218.67 92.4618 218.622 92.7595 218.527C93.0635 218.432 93.3231 218.331 93.5385 218.223C93.7601 218.109 93.9438 218.005 94.0895 217.91C94.2415 217.815 94.3745 217.767 94.4885 217.767C94.6405 217.767 94.7576 217.824 94.84 217.938L95.372 218.622ZM99.2441 211.687C99.4531 211.466 99.6716 211.263 99.8996 211.079C100.128 210.896 100.368 210.741 100.622 210.614C100.881 210.481 101.157 210.38 101.448 210.31C101.746 210.234 102.062 210.196 102.398 210.196C102.93 210.196 103.396 210.285 103.795 210.462C104.2 210.639 104.539 210.889 104.811 211.212C105.083 211.529 105.289 211.912 105.429 212.362C105.568 212.812 105.638 213.309 105.638 213.853V220H103.776V213.853C103.776 213.163 103.617 212.628 103.301 212.248C102.984 211.862 102.499 211.668 101.847 211.668C101.372 211.668 100.926 211.782 100.508 212.01C100.096 212.232 99.7128 212.536 99.3581 212.922V220H97.5056V210.348H98.6171C98.8768 210.348 99.0383 210.471 99.1016 210.718L99.2441 211.687ZM111.029 220.152C110.25 220.152 109.648 219.933 109.224 219.496C108.806 219.059 108.597 218.436 108.597 217.625V211.849H107.476C107.368 211.849 107.276 211.817 107.2 211.754C107.13 211.684 107.096 211.583 107.096 211.45V210.699L108.663 210.481L109.081 207.602C109.106 207.495 109.154 207.412 109.224 207.355C109.3 207.292 109.395 207.26 109.509 207.26H110.449V210.5H113.185V211.849H110.449V217.501C110.449 217.881 110.541 218.166 110.725 218.356C110.915 218.54 111.155 218.632 111.447 218.632C111.618 218.632 111.763 218.61 111.884 218.565C112.01 218.521 112.118 218.474 112.207 218.423C112.295 218.366 112.371 218.315 112.435 218.271C112.498 218.227 112.555 218.204 112.606 218.204C112.669 218.204 112.716 218.22 112.748 218.252C112.786 218.277 112.824 218.322 112.862 218.385L113.413 219.278C113.109 219.557 112.748 219.772 112.33 219.924C111.912 220.076 111.478 220.152 111.029 220.152Z" fill="black"/>
</svg>
