<svg width="246" height="265" viewBox="0 0 246 265" fill="none" xmlns="http://www.w3.org/2000/svg">
<path d="M6.27995 251.792L239.925 253.967L239.869 257.302L6.21752 255.551L6.27995 251.792Z" fill="#263238"/>
<path d="M6.0469 8.09181L7.32033 251.817L240.741 253.846L244.825 7.96509L6.0469 8.09181Z" fill="white"/>
<path d="M5.20052 10.059L243.983 9.65005L244.273 9.65487L244.268 9.94988C243.099 80.3317 241.72 163.387 240.248 251.996L240.179 256.165L239.851 256.159L6.43102 254.091L6.15365 254.086L6.15834 253.804C5.57066 107.731 5.18397 12.5735 5.16248 10.0712C5.12158 12.534 5.78499 107.735 6.7135 253.788L6.44082 253.501L239.862 255.492L239.529 255.82L239.592 251.972C241.064 163.363 242.444 80.308 243.613 9.92617L243.898 10.226L5.20052 10.059Z" fill="#263238"/>
<path d="M4.2405 11.6726L244.928 14.272L245.401 4.00258L4.40903 1.52641L4.2405 11.6726Z" fill="#263238"/>
<path d="M115.317 262.238C114.914 262.231 114.517 260.313 114.443 257.925C114.369 255.538 114.654 253.592 115.058 253.573C115.462 253.554 115.858 255.485 115.932 257.873C116.006 260.261 115.733 262.245 115.317 262.238Z" fill="#263238"/>
<path d="M151.893 145.857C151.893 145.857 151.893 145.857 151.742 145.854L151.313 145.847L149.648 145.896L143.226 146.072L119.61 146.578C99.6647 146.991 72.101 147.521 41.674 148.08L31.2039 148.266L30.9643 148.262L30.9684 148.018C29.3205 119.673 27.8256 94.2698 26.8048 76.0078C26.3005 66.8897 25.9053 59.5569 25.6234 54.5098C25.5021 51.9416 25.3952 50.0281 25.3289 48.7055C25.3399 48.0385 25.2726 47.537 25.2658 47.1904C25.2589 46.8439 25.2707 46.8954 25.2721 46.8056C25.2736 46.7158 25.2743 46.6773 25.2743 46.6773C25.2794 46.72 25.2787 46.7631 25.2721 46.8056C25.2707 46.8954 25.2685 47.0237 25.2658 47.1904C25.263 47.3572 25.3273 48.0383 25.3795 48.6935C25.4591 49.9779 25.5899 51.9688 25.7623 54.4993C26.0694 59.5468 26.5277 66.8806 27.0955 75.9741C28.2054 94.1863 29.7265 119.526 31.3977 147.987L31.1494 147.751L41.6197 147.553C72.0465 147.007 99.6472 146.528 119.552 146.218L143.179 145.866L149.599 145.793L151.263 145.82L151.843 145.83L151.893 145.857Z" fill="#455A64"/>
<path d="M69.1279 39.5151L69.0736 42.786L102.359 41.7222L102.405 38.9772L69.1279 39.5151Z" fill="#263238"/>
<path d="M42.2543 141.238L53.8153 141.431L52.5302 109.474L41.196 109.286L42.2543 141.238Z" fill="#9FE2BF"/>
<path d="M63.2076 141.599L74.7561 141.791L73.6944 97.136L62.3603 96.9478L63.2076 141.599Z" fill="#9FE2BF"/>
<path d="M82.8486 140.501L94.4097 140.693L93.5647 82.2362L82.2432 82.0481L82.8486 140.501Z" fill="#9FE2BF"/>
<path d="M127.895 138.979L139.443 139.17L138.963 59.5103L127.629 59.322L127.895 138.979Z" fill="#9FE2BF"/>
<path d="M105.991 138.884L117.54 139.076L116.863 70.5237L105.541 70.3357L105.991 138.884Z" fill="#9FE2BF"/>
<path d="M35.6601 100.918C35.3654 100.438 56.2491 86.774 82.2853 70.3984C108.321 54.0229 129.697 41.1368 129.99 41.6805C130.284 42.2243 109.401 55.8242 83.3525 72.1996C57.3037 88.575 35.9295 101.397 35.6601 100.918Z" fill="#9FE2BF"/>
<path d="M118.556 41.4395C118.465 40.8734 125.973 39.0992 135.357 37.4588L137.735 37.0492L136.352 39.0663L136.274 39.1805C130.795 47.1727 125.949 53.3921 125.513 53.1154C125.076 52.8387 129.136 46.0546 134.591 38.0491L134.668 37.9349L135.676 39.5426C126.305 41.1191 118.648 41.9927 118.556 41.4395Z" fill="#0819B9"/>
<path d="M40.4865 152L52.5645 152.2L52.9065 154.387L40.4503 154.18L40.4865 152Z" fill="#263238"/>
<path d="M61.8837 151.457L73.9616 151.657L74.3036 153.844L61.8474 153.637L61.8837 151.457Z" fill="#263238"/>
<path d="M83.907 151.181L95.985 151.382L96.327 153.569L83.8708 153.362L83.907 151.181Z" fill="#263238"/>
<path d="M104.542 150.998L116.62 151.199L116.961 153.398L104.505 153.191L104.542 150.998Z" fill="#263238"/>
<path d="M130.11 150.652L142.188 150.853L142.53 153.053L130.073 152.846L130.11 150.652Z" fill="#263238"/>
<path d="M224.584 107.046C223.843 106.524 223.052 106.081 222.222 105.723C219.906 104.96 217.407 104.991 215.108 105.81C212.143 106.698 209.178 109.035 206.292 111.977C203.405 114.918 200.307 118.485 195.834 120.528C193.675 121.575 191.258 121.941 188.893 121.58C186.762 121.093 184.708 120.308 182.79 119.246C181.102 118.315 179.291 117.633 177.414 117.219C175.78 116.93 174.098 117.116 172.562 117.755C170.302 118.686 168.438 120.4 167.299 122.594C166.931 123.419 166.626 124.272 166.386 125.145C166.441 124.218 166.675 123.311 167.074 122.475C168.168 120.157 170.055 118.323 172.38 117.315C173.974 116.625 175.724 116.401 177.436 116.668C179.376 117.068 181.25 117.747 183.001 118.685C184.87 119.711 186.869 120.47 188.942 120.939C191.179 121.261 193.461 120.906 195.504 119.919C199.799 117.963 202.846 114.421 205.807 111.532C208.768 108.643 211.823 106.218 214.901 105.358C217.295 104.553 219.886 104.596 222.252 105.48C222.882 105.74 223.475 106.086 224.013 106.51C224.224 106.664 224.416 106.844 224.584 107.046Z" fill="#263238"/>
<path d="M227.428 132.446C227.425 132.638 213.731 132.552 196.85 132.272C179.968 131.991 166.279 131.623 166.282 131.43C166.285 131.238 179.979 131.324 196.861 131.605C213.742 131.885 227.431 132.266 227.428 132.446Z" fill="#263238"/>
<path d="M224.024 132.389C223.848 132.386 223.828 124.457 223.991 114.67C224.153 104.883 224.436 96.9708 224.613 96.9737C224.789 96.9766 224.809 104.906 224.646 114.68C224.484 124.455 224.213 132.392 224.024 132.389Z" fill="#263238"/>
<path d="M172.695 116.615C172.695 116.615 172.609 116.485 172.701 116.255C172.762 116.094 172.856 115.949 172.978 115.829C173.1 115.709 173.246 115.618 173.406 115.561C173.648 115.458 173.912 115.423 174.172 115.461C174.431 115.499 174.675 115.609 174.878 115.778C175.096 116.036 175.222 116.361 175.235 116.7C175.247 117.04 175.147 117.373 174.949 117.647C174.751 117.921 174.468 118.119 174.145 118.208C173.823 118.296 173.481 118.271 173.174 118.136C172.959 118.001 172.784 117.81 172.666 117.582C172.547 117.355 172.491 117.099 172.502 116.842C172.502 116.671 172.536 116.502 172.601 116.344C172.667 116.187 172.763 116.044 172.883 115.925C173.075 115.774 173.213 115.776 173.225 115.802C173.238 115.828 172.879 116.169 172.956 116.824C172.971 116.993 173.024 117.155 173.112 117.299C173.199 117.443 173.318 117.565 173.46 117.654C173.636 117.702 173.822 117.695 173.994 117.634C174.167 117.573 174.317 117.461 174.426 117.312C174.534 117.162 174.596 116.983 174.603 116.798C174.611 116.613 174.563 116.429 174.466 116.272C174.341 116.164 174.193 116.089 174.033 116.053C173.873 116.017 173.707 116.02 173.549 116.064C172.904 116.156 172.783 116.642 172.695 116.615Z" fill="#263238"/>
<path d="M214.135 104.434C214.135 104.434 214.138 104.28 214.367 104.156C214.662 104.011 215.002 103.989 215.313 104.094C215.561 104.167 215.784 104.308 215.959 104.501C216.134 104.694 216.253 104.932 216.304 105.189C216.318 105.52 216.222 105.846 216.031 106.115C215.841 106.384 215.567 106.58 215.253 106.671C214.94 106.762 214.606 106.743 214.305 106.617C214.003 106.492 213.752 106.266 213.592 105.978C213.506 105.729 213.487 105.461 213.538 105.202C213.589 104.943 213.707 104.703 213.882 104.507C214.099 104.254 214.405 104.098 214.734 104.072C214.961 104.076 215.073 104.155 215.06 104.193C215.046 104.231 214.579 104.249 214.255 104.795C214.166 104.931 214.108 105.087 214.088 105.249C214.068 105.411 214.085 105.576 214.139 105.73C214.247 105.87 214.394 105.975 214.562 106.029C214.729 106.084 214.908 106.087 215.077 106.037C215.245 105.988 215.396 105.888 215.509 105.751C215.621 105.614 215.692 105.446 215.71 105.269C215.679 105.108 215.612 104.958 215.513 104.829C215.415 104.7 215.288 104.597 215.142 104.528C214.592 104.236 214.197 104.525 214.135 104.434Z" fill="#263238"/>
<path d="M224.099 62.6052C224.096 62.7848 210.83 62.7184 194.478 62.4468C178.126 62.1751 164.866 61.8009 164.869 61.6213C164.872 61.4418 178.125 61.5079 194.489 61.7798C210.854 62.0516 224.101 62.4513 224.099 62.6052Z" fill="#263238"/>
<path d="M223.959 71.0068C223.956 71.1992 210.691 71.12 194.339 70.8484C177.987 70.5768 164.726 70.2154 164.729 70.023C164.732 69.8306 177.985 69.9095 194.35 70.1814C210.714 70.4532 223.962 70.8272 223.959 71.0068Z" fill="#263238"/>
<path d="M223.82 79.383C223.817 79.5626 210.551 79.4962 194.2 79.2246C177.848 78.953 164.587 78.5787 164.59 78.3992C164.593 78.2196 177.846 78.2858 194.211 78.5576C210.575 78.8294 223.823 79.1906 223.82 79.383Z" fill="#263238"/>
<path d="M223.681 87.7461C223.678 87.9385 210.413 87.8593 194.061 87.5876C177.709 87.316 164.448 86.9546 164.451 86.7622C164.454 86.5698 177.707 86.6488 194.072 86.9206C210.436 87.1925 223.684 87.5665 223.681 87.7461Z" fill="#263238"/>
<path d="M196.641 46.8678L165.123 46.3442L165.078 49.0507L196.596 49.5743L196.641 46.8678Z" fill="#263238"/>
<path d="M64.3001 179.083L32.7814 178.559L32.7364 181.266L64.2551 181.789L64.3001 179.083Z" fill="#263238"/>
<path d="M118.769 195.679C118.765 195.871 99.6375 195.695 76.0489 195.303C52.4603 194.911 33.3245 194.452 33.3277 194.26C33.3309 194.067 52.4588 194.244 76.06 194.636C99.6612 195.028 118.772 195.499 118.769 195.679Z" fill="#263238"/>
<path d="M119.147 203.282C119.144 203.461 99.6754 203.292 75.6707 202.893C51.6661 202.494 32.2027 202.017 32.2056 201.837C32.2086 201.658 51.6645 201.827 75.6818 202.226C99.699 202.625 119.149 203.128 119.147 203.282Z" fill="#263238"/>
<path d="M120.024 210.455C120.021 210.635 100.439 210.463 76.2956 210.062C52.1523 209.661 32.5754 209.182 32.5784 209.002C32.5814 208.823 52.1634 208.994 76.3067 209.395C100.45 209.796 120.027 210.263 120.024 210.455Z" fill="#263238"/>
<path d="M77.927 217.377C77.924 217.557 67.8355 217.543 55.4297 217.337C43.024 217.131 32.9531 216.81 32.9561 216.63C32.9591 216.451 43.0477 216.464 55.4408 216.67C67.834 216.876 77.93 217.198 77.927 217.377Z" fill="#263238"/>
</svg>
