<svg width="625" height="306" viewBox="0 0 625 306" fill="none" xmlns="http://www.w3.org/2000/svg">
<g clip-path="url(#clip0_646_250)">
<path d="M93.5472 33.9124C92.8836 31.8053 94.0523 29.553 96.1786 28.9534C111.557 24.6174 127.606 23.1064 143.545 24.5058C160.813 26.022 177.613 30.9244 192.987 38.9333C208.36 46.9423 222.006 57.9008 233.144 71.1832C243.425 83.4432 251.384 97.4615 256.644 112.549C257.371 114.635 256.195 116.884 254.088 117.547L211.357 131.006C209.25 131.669 207.013 130.495 206.244 128.424C203.095 119.944 198.512 112.057 192.686 105.11C186.003 97.1405 177.816 90.5654 168.592 85.76C159.368 80.9547 149.288 78.0132 138.927 77.1035C129.896 76.3106 120.806 77.0749 112.051 79.3535C109.913 79.9099 107.669 78.7501 107.006 76.643L93.5472 33.9124Z" fill="#F8F3EF" stroke="#F8F3EF" stroke-width="4"/>
<path d="M254.533 118.99C256.647 118.351 258.886 119.546 259.46 121.68C264.185 139.227 265.24 157.577 262.54 175.577C259.643 194.897 252.493 213.333 241.607 229.555C230.721 245.777 216.37 259.38 199.589 269.383C182.808 279.386 164.016 285.54 144.569 287.4C125.122 289.26 105.504 286.781 87.1313 280.14C68.7585 273.5 52.0888 262.864 38.3248 249C24.5608 235.136 14.0458 218.39 7.53832 199.969C1.47537 182.807 -0.967925 164.59 0.344817 146.465C0.504397 144.262 2.47561 142.664 4.67314 142.89L49.2375 147.479C51.4351 147.705 53.0225 149.67 52.9074 151.876C52.3679 162.223 53.8632 172.588 57.323 182.382C61.2275 193.434 67.5365 203.481 75.7949 211.8C84.0533 220.118 94.0551 226.5 105.079 230.484C116.102 234.468 127.873 235.956 139.541 234.84C151.21 233.724 162.485 230.032 172.553 224.03C182.622 218.028 191.232 209.866 197.764 200.133C204.296 190.4 208.586 179.338 210.324 167.746C211.865 157.475 211.368 147.014 208.877 136.957C208.345 134.813 209.531 132.582 211.646 131.943L254.533 118.99Z" fill="#06863B" stroke="white" stroke-width="4"/>
<path d="M4 156C1.79086 156 -0.00632631 154.208 0.0605874 152C0.895252 124.456 10.3332 97.826 27.1008 75.8742C43.8684 53.9223 67.078 37.8112 93.4319 29.7601C95.5446 29.1147 97.7461 30.3772 98.3273 32.5085L110.113 75.7305C110.694 77.8619 109.433 80.051 107.334 80.739C92.1517 85.7145 78.7962 95.1786 69.0605 107.924C59.3247 120.67 53.7073 136.045 52.901 152.001C52.7895 154.208 51.0091 156 48.8 156L4 156Z" fill="#9CA3AF" stroke="white" stroke-width="4"/>
<rect x="312" y="59" width="16" height="16" rx="4" fill="#F8F3EF"/>
<path d="M340.415 72L337.119 72L337.119 61.8182L340.519 61.8182C341.517 61.8182 342.374 62.022 343.089 62.4297C343.805 62.834 344.354 63.4157 344.735 64.1747C345.12 64.9304 345.312 65.8369 345.312 66.8942C345.312 67.9548 345.118 68.8662 344.73 69.6286C344.346 70.3909 343.789 70.9775 343.06 71.3885C342.33 71.7962 341.449 72 340.415 72ZM338.655 70.6577L340.33 70.6577C341.106 70.6577 341.75 70.5118 342.264 70.2202C342.778 69.9252 343.162 69.4993 343.418 68.9425C343.673 68.3823 343.8 67.6996 343.8 66.8942C343.8 66.0954 343.673 65.4176 343.418 64.8608C343.166 64.304 342.79 63.8814 342.289 63.593C341.789 63.3047 341.167 63.1605 340.425 63.1605L338.655 63.1605L338.655 70.6577ZM350.394 72.1541C349.642 72.1541 348.994 71.9934 348.45 71.6719C347.91 71.3471 347.492 70.8913 347.197 70.3047C346.906 69.7147 346.76 69.0237 346.76 68.2315C346.76 67.4493 346.906 66.7599 347.197 66.1634C347.492 65.5668 347.903 65.1011 348.43 64.7663C348.961 64.4316 349.58 64.2642 350.29 64.2642C350.72 64.2642 351.138 64.3355 351.542 64.478C351.947 64.6205 352.31 64.8442 352.631 65.1491C352.953 65.4541 353.206 65.8501 353.392 66.3374C353.577 66.8213 353.67 67.4096 353.67 68.1023L353.67 68.6293L347.6 68.6293L347.6 67.5156L352.214 67.5156C352.214 67.1245 352.134 66.7782 351.975 66.4766C351.816 66.1716 351.592 65.9313 351.304 65.7557C351.019 65.58 350.684 65.4922 350.3 65.4922C349.882 65.4922 349.517 65.5949 349.206 65.8004C348.898 66.0026 348.659 66.2678 348.49 66.5959C348.324 66.9207 348.241 67.2737 348.241 67.6548L348.241 68.5249C348.241 69.0353 348.331 69.4695 348.51 69.8274C348.692 70.1854 348.946 70.4588 349.27 70.6477C349.595 70.8333 349.975 70.9261 350.409 70.9261C350.691 70.9261 350.948 70.8864 351.18 70.8068C351.412 70.724 351.612 70.6013 351.781 70.4389C351.95 70.2765 352.079 70.076 352.169 69.8374L353.576 70.0909C353.463 70.5052 353.261 70.8681 352.969 71.1797C352.681 71.4879 352.318 71.7282 351.881 71.9006C351.446 72.0696 350.951 72.1541 350.394 72.1541ZM355.32 74.8636L355.32 64.3636L356.771 64.3636L356.771 65.6016L356.896 65.6016C356.982 65.4425 357.106 65.2585 357.268 65.0497C357.431 64.8409 357.656 64.6586 357.945 64.5028C358.233 64.3438 358.614 64.2642 359.088 64.2642C359.705 64.2642 360.255 64.42 360.739 64.7315C361.223 65.0431 361.602 65.4922 361.877 66.0788C362.156 66.6655 362.295 67.3714 362.295 68.1967C362.295 69.022 362.157 69.7296 361.882 70.3196C361.607 70.9063 361.229 71.3587 360.749 71.6768C360.268 71.9917 359.719 72.1491 359.103 72.1491C358.639 72.1491 358.259 72.0713 357.964 71.9155C357.673 71.7597 357.444 71.5774 357.278 71.3686C357.113 71.1598 356.985 70.9742 356.896 70.8118L356.806 70.8118L356.806 74.8636L355.32 74.8636ZM356.776 68.1818C356.776 68.7187 356.854 69.1894 357.01 69.5938C357.166 69.9981 357.391 70.3146 357.686 70.5433C357.981 70.7687 358.342 70.8814 358.77 70.8814C359.214 70.8814 359.585 70.7637 359.884 70.5284C360.182 70.2898 360.407 69.9666 360.56 69.5589C360.715 69.1513 360.793 68.6922 360.793 68.1818C360.793 67.678 360.717 67.2256 360.565 66.8246C360.415 66.4235 360.19 66.107 359.888 65.875C359.59 65.643 359.217 65.527 358.77 65.527C358.339 65.527 357.974 65.638 357.676 65.8601C357.381 66.0821 357.157 66.392 357.005 66.7898C356.853 67.1875 356.776 67.6515 356.776 68.1818ZM367.177 72.1541C366.461 72.1541 365.836 71.9901 365.303 71.6619C364.769 71.3338 364.355 70.8748 364.06 70.2848C363.765 69.6948 363.617 69.0054 363.617 68.2166C363.617 67.4245 363.765 66.7318 364.06 66.1385C364.355 65.5452 364.769 65.0845 365.303 64.7564C365.836 64.4283 366.461 64.2642 367.177 64.2642C367.893 64.2642 368.518 64.4283 369.051 64.7564C369.585 65.0845 369.999 65.5452 370.294 66.1385C370.589 66.7318 370.737 67.4245 370.737 68.2166C370.737 69.0054 370.589 69.6948 370.294 70.2848C369.999 70.8748 369.585 71.3338 369.051 71.6619C368.518 71.9901 367.893 72.1541 367.177 72.1541ZM367.182 70.9063C367.646 70.9063 368.03 70.7836 368.335 70.5384C368.64 70.2931 368.866 69.9666 369.011 69.5589C369.161 69.1513 369.235 68.7022 369.235 68.2116C369.235 67.7244 369.161 67.277 369.011 66.8693C368.866 66.4583 368.64 66.1286 368.335 65.88C368.03 65.6314 367.646 65.5071 367.182 65.5071C366.714 65.5071 366.327 65.6314 366.018 65.88C365.714 66.1286 365.487 66.4583 365.337 66.8693C365.192 67.277 365.119 67.7244 365.119 68.2116C365.119 68.7022 365.192 69.1513 365.337 69.5589C365.487 69.9666 365.714 70.2931 366.018 70.5384C366.327 70.7836 366.714 70.9063 367.182 70.9063ZM378.118 66.228L376.771 66.4666C376.714 66.2943 376.625 66.1302 376.502 65.9744C376.383 65.8187 376.221 65.6911 376.015 65.5916C375.81 65.4922 375.553 65.4425 375.244 65.4425C374.824 65.4425 374.472 65.5369 374.191 65.7259C373.909 65.9115 373.768 66.1518 373.768 66.4467C373.768 66.7019 373.862 66.9074 374.051 67.0632C374.24 67.219 374.545 67.3466 374.966 67.446L376.179 67.7244C376.882 67.8868 377.405 68.1371 377.75 68.4751C378.095 68.8132 378.267 69.2524 378.267 69.7926C378.267 70.25 378.135 70.6577 377.869 71.0156C377.608 71.3703 377.241 71.6487 376.771 71.8509C376.303 72.053 375.762 72.1541 375.145 72.1541C374.29 72.1541 373.592 71.9718 373.052 71.6072C372.512 71.2393 372.18 70.7173 372.058 70.0412L373.494 69.8224C373.584 70.197 373.768 70.4804 374.046 70.6726C374.325 70.8615 374.688 70.956 375.135 70.956C375.622 70.956 376.012 70.8549 376.303 70.6527C376.595 70.4472 376.741 70.197 376.741 69.902C376.741 69.6634 376.651 69.4628 376.472 69.3004C376.297 69.138 376.027 69.0154 375.662 68.9325L374.369 68.6491C373.657 68.4867 373.13 68.2282 372.789 67.8736C372.45 67.5189 372.281 67.0698 372.281 66.5263C372.281 66.0755 372.407 65.6811 372.659 65.343C372.911 65.005 373.259 64.7415 373.703 64.5526C374.147 64.3603 374.656 64.2642 375.23 64.2642C376.055 64.2642 376.704 64.4432 377.178 64.8011C377.652 65.1558 377.966 65.6314 378.118 66.228ZM379.902 72L379.902 64.3636L381.388 64.3636L381.388 72L379.902 72ZM380.652 63.1854C380.394 63.1854 380.172 63.0992 379.986 62.9268C379.804 62.7512 379.713 62.5424 379.713 62.3004C379.713 62.0552 379.804 61.8464 379.986 61.674C380.172 61.4983 380.394 61.4105 380.652 61.4105C380.911 61.4105 381.131 61.4983 381.314 61.674C381.499 61.8464 381.592 62.0552 381.592 62.3004C381.592 62.5424 381.499 62.7512 381.314 62.9268C381.131 63.0992 380.911 63.1854 380.652 63.1854ZM386.953 64.3636L386.953 65.5568L382.781 65.5568L382.781 64.3636L386.953 64.3636ZM383.9 62.5341L385.387 62.5341L385.387 69.7578C385.387 70.0462 385.43 70.2633 385.516 70.4091C385.602 70.5516 385.713 70.6494 385.849 70.7024C385.988 70.7521 386.139 70.777 386.301 70.777C386.421 70.777 386.525 70.7687 386.615 70.7521C386.704 70.7356 386.774 70.7223 386.823 70.7124L387.092 71.9403C387.006 71.9735 386.883 72.0066 386.724 72.0398C386.565 72.0762 386.366 72.0961 386.127 72.0994C385.736 72.1061 385.372 72.0365 385.034 71.8906C384.695 71.7448 384.422 71.5194 384.213 71.2145C384.004 70.9096 383.9 70.5268 383.9 70.0661L383.9 62.5341ZM391.806 72.1541C391.054 72.1541 390.406 71.9934 389.862 71.6719C389.322 71.3471 388.904 70.8913 388.609 70.3047C388.318 69.7147 388.172 69.0237 388.172 68.2315C388.172 67.4493 388.318 66.7599 388.609 66.1634C388.904 65.5668 389.315 65.1011 389.842 64.7663C390.373 64.4316 390.992 64.2642 391.702 64.2642C392.133 64.2642 392.55 64.3355 392.955 64.478C393.359 64.6205 393.722 64.8442 394.043 65.1491C394.365 65.4541 394.618 65.8501 394.804 66.3374C394.99 66.8213 395.082 67.4096 395.082 68.1023L395.082 68.6293L389.012 68.6293L389.012 67.5156L393.626 67.5156C393.626 67.1245 393.546 66.7782 393.387 66.4766C393.228 66.1716 393.004 65.9313 392.716 65.7557C392.431 65.58 392.096 65.4922 391.712 65.4922C391.294 65.4922 390.929 65.5949 390.618 65.8004C390.31 66.0026 390.071 66.2678 389.902 66.5959C389.736 66.9207 389.653 67.2737 389.653 67.6548L389.653 68.5249C389.653 69.0353 389.743 69.4695 389.922 69.8274C390.104 70.1854 390.358 70.4588 390.683 70.6477C391.007 70.8333 391.387 70.9261 391.821 70.9261C392.103 70.9261 392.36 70.8864 392.592 70.8068C392.824 70.724 393.024 70.6013 393.193 70.4389C393.362 70.2765 393.491 70.076 393.581 69.8374L394.988 70.0909C394.875 70.5052 394.673 70.8681 394.381 71.1797C394.093 71.4879 393.73 71.7282 393.293 71.9006C392.858 72.0696 392.363 72.1541 391.806 72.1541ZM399.59 72.1491C398.974 72.1491 398.424 71.9917 397.94 71.6768C397.459 71.3587 397.081 70.9063 396.806 70.3196C396.535 69.7296 396.399 69.022 396.399 68.1967C396.399 67.3714 396.536 66.6655 396.811 66.0788C397.09 65.4922 397.471 65.0431 397.955 64.7315C398.439 64.42 398.987 64.2642 399.6 64.2642C400.074 64.2642 400.455 64.3438 400.744 64.5028C401.035 64.6586 401.261 64.8409 401.42 65.0497C401.582 65.2585 401.708 65.4425 401.798 65.6016L401.887 65.6016L401.887 61.8182L403.374 61.8182L403.374 72L401.922 72L401.922 70.8118L401.798 70.8118C401.708 70.9742 401.579 71.1598 401.41 71.3686C401.244 71.5774 401.016 71.7597 400.724 71.9155C400.432 72.0713 400.054 72.1491 399.59 72.1491ZM399.919 70.8814C400.346 70.8814 400.707 70.7687 401.002 70.5433C401.301 70.3146 401.526 69.9981 401.678 69.5938C401.834 69.1894 401.912 68.7188 401.912 68.1818C401.912 67.6515 401.836 67.1875 401.683 66.7898C401.531 66.392 401.307 66.0821 401.012 65.8601C400.717 65.638 400.353 65.527 399.919 65.527C399.471 65.527 399.098 65.643 398.8 65.875C398.502 66.107 398.276 66.4235 398.124 66.8246C397.975 67.2256 397.9 67.678 397.9 68.1818C397.9 68.6922 397.976 69.1513 398.129 69.5589C398.281 69.9666 398.507 70.2898 398.805 70.5284C399.106 70.7637 399.478 70.8814 399.919 70.8814Z" fill="#374151"/>
<path d="M340.817 98L342.488 87.8182L343.681 87.8182L342.011 98L340.817 98ZM336.209 95.2756L336.403 94.0824L344.119 94.0824L343.925 95.2756L336.209 95.2756ZM337.238 98L338.908 87.8182L340.102 87.8182L338.431 98L337.238 98ZM336.8 91.7358L336.994 90.5426L344.71 90.5426L344.516 91.7358L336.8 91.7358ZM352.959 98.1392C352.336 98.1392 351.776 98.0199 351.279 97.7813C350.785 97.5393 350.391 97.2079 350.096 96.7869C349.801 96.366 349.643 95.8854 349.623 95.3452L351.115 95.3452C351.151 95.7827 351.345 96.1423 351.697 96.424C352.048 96.7057 352.469 96.8466 352.959 96.8466C353.35 96.8466 353.697 96.7571 353.998 96.5781C354.303 96.3958 354.542 96.1456 354.714 95.8274C354.89 95.5092 354.978 95.1463 354.978 94.7386C354.978 94.3243 354.888 93.9548 354.709 93.63C354.53 93.3052 354.283 93.05 353.969 92.8643C353.657 92.6787 353.299 92.5843 352.895 92.581C352.586 92.581 352.277 92.634 351.965 92.7401C351.653 92.8461 351.402 92.9853 351.209 93.1577L349.802 92.9489L350.374 87.8182L355.972 87.8182L355.972 89.1357L351.652 89.1357L351.329 91.9844L351.388 91.9844C351.587 91.7921 351.851 91.6314 352.179 91.5021C352.51 91.3729 352.865 91.3082 353.243 91.3082C353.863 91.3082 354.414 91.4557 354.898 91.7507C355.385 92.0457 355.768 92.4484 356.047 92.9588C356.328 93.4659 356.468 94.0492 356.464 94.7088C356.468 95.3684 356.318 95.9567 356.017 96.4737C355.719 96.9908 355.304 97.3984 354.774 97.6967C354.247 97.9917 353.642 98.1392 352.959 98.1392ZM358.28 98L358.28 96.8864L361.725 93.3168C362.093 92.929 362.397 92.5893 362.635 92.2976C362.877 92.0026 363.058 91.7225 363.177 91.4574C363.297 91.1922 363.356 90.9105 363.356 90.6122C363.356 90.2741 363.277 89.9825 363.118 89.7372C362.958 89.4886 362.741 89.2981 362.466 89.1655C362.191 89.0296 361.881 88.9616 361.537 88.9616C361.172 88.9616 360.854 89.0362 360.582 89.1854C360.31 89.3345 360.101 89.545 359.956 89.8168C359.81 90.0885 359.737 90.4067 359.737 90.7713L358.27 90.7713C358.27 90.1515 358.413 89.6096 358.698 89.1456C358.983 88.6816 359.374 88.322 359.871 88.0668C360.368 87.8082 360.933 87.679 361.566 87.679C362.206 87.679 362.77 87.8066 363.257 88.0618C363.747 88.3137 364.13 88.6584 364.405 89.0959C364.68 89.5301 364.818 90.0206 364.818 90.5675C364.818 90.9453 364.747 91.3149 364.604 91.6761C364.465 92.0374 364.221 92.4401 363.873 92.8842C363.525 93.325 363.041 93.8603 362.422 94.4901L360.398 96.608L360.398 96.6825L364.982 96.6825L364.982 98L358.28 98ZM367.865 98.0945C367.594 98.0945 367.36 97.9983 367.164 97.8061C366.969 97.6106 366.871 97.3752 366.871 97.1001C366.871 96.8284 366.969 96.5964 367.164 96.4041C367.36 96.2086 367.594 96.1108 367.865 96.1108C368.137 96.1108 368.371 96.2086 368.566 96.4041C368.762 96.5964 368.86 96.8284 368.86 97.1001C368.86 97.2824 368.813 97.4498 368.721 97.6023C368.631 97.7514 368.512 97.8707 368.363 97.9602C368.213 98.0497 368.048 98.0945 367.865 98.0945ZM374.017 98.1392C373.562 98.1326 373.115 98.0497 372.674 97.8906C372.237 97.7315 371.839 97.4664 371.481 97.0952C371.123 96.724 370.836 96.2251 370.621 95.5987C370.409 94.9723 370.303 94.1901 370.303 93.2521C370.303 92.3639 370.391 91.575 370.566 90.8857C370.745 90.1963 371.002 89.6146 371.337 89.1406C371.672 88.6634 372.076 88.3004 372.55 88.0518C373.024 87.8033 373.556 87.679 374.146 87.679C374.752 87.679 375.291 87.7983 375.762 88.0369C376.232 88.2756 376.613 88.6054 376.905 89.0263C377.2 89.4472 377.387 89.9261 377.467 90.4631L375.95 90.4631C375.848 90.0388 375.644 89.6925 375.339 89.424C375.034 89.1555 374.636 89.0213 374.146 89.0213C373.4 89.0213 372.818 89.3461 372.401 89.9957C371.986 90.6454 371.778 91.5485 371.774 92.7053L371.849 92.7053C372.025 92.4169 372.24 92.1716 372.495 91.9695C372.754 91.764 373.042 91.6065 373.36 91.4972C373.682 91.3845 374.02 91.3281 374.374 91.3281C374.964 91.3281 375.498 91.4723 375.975 91.7607C376.456 92.0457 376.839 92.4401 377.124 92.9439C377.409 93.4477 377.551 94.0244 377.551 94.674C377.551 95.3236 377.404 95.9119 377.109 96.4389C376.817 96.9659 376.406 97.3835 375.876 97.6918C375.346 97.9967 374.726 98.1458 374.017 98.1392ZM374.012 96.8466C374.403 96.8466 374.752 96.7505 375.061 96.5582C375.369 96.366 375.612 96.1075 375.791 95.7827C375.97 95.4579 376.06 95.0949 376.06 94.6939C376.06 94.3028 375.972 93.9465 375.796 93.625C375.624 93.3035 375.385 93.0483 375.08 92.8594C374.779 92.6705 374.434 92.576 374.046 92.576C373.751 92.576 373.478 92.6323 373.226 92.745C372.977 92.8577 372.759 93.0135 372.57 93.2124C372.381 93.4112 372.232 93.6399 372.122 93.8984C372.016 94.1536 371.963 94.4238 371.963 94.7088C371.963 95.09 372.051 95.4429 372.227 95.7678C372.406 96.0926 372.649 96.3544 372.958 96.5533C373.269 96.7488 373.62 96.8466 374.012 96.8466ZM382.917 98.1392C382.463 98.1326 382.015 98.0497 381.575 97.8906C381.137 97.7315 380.739 97.4664 380.381 97.0952C380.023 96.724 379.737 96.2251 379.521 95.5987C379.309 94.9723 379.203 94.1901 379.203 93.2521C379.203 92.3639 379.291 91.575 379.467 90.8857C379.646 90.1963 379.902 89.6146 380.237 89.1406C380.572 88.6634 380.976 88.3004 381.45 88.0518C381.924 87.8033 382.456 87.679 383.046 87.679C383.653 87.679 384.191 87.7983 384.662 88.0369C385.133 88.2756 385.514 88.6054 385.805 89.0263C386.1 89.4472 386.288 89.9261 386.367 90.4631L384.851 90.4631C384.748 90.0388 384.544 89.6925 384.239 89.424C383.934 89.1555 383.537 89.0213 383.046 89.0213C382.3 89.0213 381.719 89.3461 381.301 89.9957C380.887 90.6454 380.678 91.5485 380.675 92.7053L380.749 92.7053C380.925 92.4169 381.14 92.1716 381.396 91.9695C381.654 91.764 381.942 91.6065 382.261 91.4972C382.582 91.3845 382.92 91.3281 383.275 91.3281C383.865 91.3281 384.398 91.4723 384.876 91.7607C385.356 92.0457 385.739 92.4401 386.024 92.9439C386.309 93.4477 386.452 94.0244 386.452 94.674C386.452 95.3236 386.304 95.9119 386.009 96.4389C385.718 96.9659 385.307 97.3835 384.776 97.6918C384.246 97.9967 383.626 98.1458 382.917 98.1392ZM382.912 96.8466C383.303 96.8466 383.653 96.7505 383.961 96.5582C384.269 96.366 384.513 96.1075 384.692 95.7827C384.871 95.4579 384.96 95.0949 384.96 94.6939C384.96 94.3028 384.872 93.9465 384.697 93.625C384.524 93.3035 384.286 93.0483 383.981 92.8594C383.679 92.6705 383.335 92.576 382.947 92.576C382.652 92.576 382.378 92.6323 382.126 92.745C381.878 92.8577 381.659 93.0135 381.47 93.2124C381.281 93.4112 381.132 93.6399 381.023 93.8984C380.917 94.1536 380.864 94.4238 380.864 94.7088C380.864 95.09 380.951 95.4429 381.127 95.7678C381.306 96.0926 381.55 96.3544 381.858 96.5533C382.17 96.7488 382.521 96.8466 382.912 96.8466Z" fill="#374151"/>
<rect x="542" y="89" width="48" height="8" rx="2" fill="#F8F3EF"/>
<path d="M602.842 87.8182L602.842 98L601.301 98L601.301 89.3594L601.241 89.3594L598.805 90.9503L598.805 89.4787L601.346 87.8182L602.842 87.8182ZM605.94 98L610.384 89.2102L610.384 89.1357L605.244 89.1357L605.244 87.8182L611.975 87.8182L611.975 89.1804L607.545 98L605.94 98ZM619.019 96.0909L619.019 95.554C619.019 95.1695 619.098 94.8182 619.257 94.5C619.42 94.1785 619.655 93.9216 619.963 93.7294C620.275 93.5339 620.651 93.4361 621.092 93.4361C621.543 93.4361 621.92 93.5322 622.225 93.7244C622.53 93.9167 622.761 94.1735 622.916 94.495C623.075 94.8165 623.155 95.1695 623.155 95.554L623.155 96.0909C623.155 96.4754 623.075 96.8284 622.916 97.1499C622.757 97.468 622.524 97.7249 622.215 97.9205C621.91 98.1127 621.536 98.2088 621.092 98.2088C620.644 98.2088 620.267 98.1127 619.958 97.9205C619.65 97.7249 619.416 97.468 619.257 97.1499C619.098 96.8284 619.019 96.4754 619.019 96.0909ZM620.177 95.554L620.177 96.0909C620.177 96.3759 620.245 96.6345 620.381 96.8665C620.517 97.0985 620.754 97.2145 621.092 97.2145C621.427 97.2145 621.66 97.0985 621.793 96.8665C621.925 96.6345 621.992 96.3759 621.992 96.0909L621.992 95.554C621.992 95.2689 621.927 95.0104 621.798 94.7784C621.672 94.5464 621.436 94.4304 621.092 94.4304C620.76 94.4304 620.525 94.5464 620.386 94.7784C620.247 95.0104 620.177 95.2689 620.177 95.554ZM613.898 90.2642L613.898 89.7273C613.898 89.3428 613.977 88.9898 614.137 88.6683C614.299 88.3468 614.534 88.09 614.843 87.8977C615.154 87.7055 615.53 87.6094 615.971 87.6094C616.422 87.6094 616.8 87.7055 617.105 87.8977C617.41 88.09 617.64 88.3468 617.796 88.6683C617.951 88.9898 618.029 89.3428 618.029 89.7273L618.029 90.2642C618.029 90.6487 617.95 91.0017 617.791 91.3232C617.635 91.6413 617.403 91.8982 617.095 92.0938C616.79 92.286 616.415 92.3821 615.971 92.3821C615.52 92.3821 615.141 92.286 614.833 92.0938C614.528 91.8982 614.296 91.6413 614.137 91.3232C613.977 91.0017 613.898 90.6487 613.898 90.2642ZM615.061 89.7273L615.061 90.2642C615.061 90.5492 615.128 90.8078 615.26 91.0398C615.396 91.2718 615.633 91.3878 615.971 91.3878C616.302 91.3878 616.535 91.2718 616.667 91.0398C616.803 90.8078 616.871 90.5492 616.871 90.2642L616.871 89.7273C616.871 89.4422 616.806 89.1837 616.677 88.9517C616.548 88.7197 616.312 88.6037 615.971 88.6037C615.64 88.6037 615.404 88.7197 615.265 88.9517C615.129 89.1837 615.061 89.4422 615.061 89.7273ZM614.37 98L621.37 87.8182L622.558 87.8182L615.558 98L614.37 98Z" fill="#374151"/>
<line x1="312" y1="117.5" x2="625" y2="117.5" stroke="#E5E7EB"/>
<rect x="312" y="135" width="16" height="16" rx="4" fill="#06863B"/>
<path d="M338.655 137.818L338.655 148L337.119 148L337.119 137.818L338.655 137.818ZM342.259 143.466L342.259 148L340.773 148L340.773 140.364L342.2 140.364L342.2 141.607L342.294 141.607C342.47 141.202 342.745 140.877 343.119 140.632C343.497 140.387 343.973 140.264 344.546 140.264C345.067 140.264 345.522 140.374 345.913 140.592C346.304 140.808 346.608 141.129 346.823 141.557C347.039 141.984 347.146 142.513 347.146 143.143L347.146 148L345.66 148L345.66 143.322C345.66 142.768 345.516 142.336 345.227 142.024C344.939 141.709 344.543 141.552 344.039 141.552C343.694 141.552 343.388 141.626 343.119 141.776C342.854 141.925 342.644 142.143 342.488 142.432C342.335 142.717 342.259 143.062 342.259 143.466ZM355.399 140.364L352.63 148L351.039 148L348.265 140.364L349.861 140.364L351.795 146.24L351.874 146.24L353.803 140.364L355.399 140.364ZM359.828 148.154C359.075 148.154 358.427 147.993 357.884 147.672C357.343 147.347 356.926 146.891 356.631 146.305C356.339 145.715 356.193 145.024 356.193 144.232C356.193 143.449 356.339 142.76 356.631 142.163C356.926 141.567 357.337 141.101 357.864 140.766C358.394 140.432 359.014 140.264 359.723 140.264C360.154 140.264 360.572 140.335 360.976 140.478C361.38 140.621 361.743 140.844 362.065 141.149C362.386 141.454 362.64 141.85 362.825 142.337C363.011 142.821 363.104 143.41 363.104 144.102L363.104 144.629L357.034 144.629L357.034 143.516L361.647 143.516C361.647 143.125 361.568 142.778 361.409 142.477C361.249 142.172 361.026 141.931 360.737 141.756C360.452 141.58 360.118 141.492 359.733 141.492C359.316 141.492 358.951 141.595 358.639 141.8C358.331 142.003 358.093 142.268 357.923 142.596C357.758 142.921 357.675 143.274 357.675 143.655L357.675 144.525C357.675 145.035 357.764 145.469 357.943 145.827C358.126 146.185 358.379 146.459 358.704 146.648C359.029 146.833 359.408 146.926 359.843 146.926C360.124 146.926 360.381 146.886 360.613 146.807C360.845 146.724 361.046 146.601 361.215 146.439C361.384 146.277 361.513 146.076 361.602 145.837L363.009 146.091C362.897 146.505 362.695 146.868 362.403 147.18C362.115 147.488 361.752 147.728 361.314 147.901C360.88 148.07 360.384 148.154 359.828 148.154ZM370.475 142.228L369.128 142.467C369.072 142.294 368.982 142.13 368.86 141.974C368.74 141.819 368.578 141.691 368.373 141.592C368.167 141.492 367.91 141.442 367.602 141.442C367.181 141.442 366.83 141.537 366.548 141.726C366.266 141.911 366.125 142.152 366.125 142.447C366.125 142.702 366.22 142.907 366.409 143.063C366.598 143.219 366.903 143.347 367.324 143.446L368.537 143.724C369.239 143.887 369.763 144.137 370.108 144.475C370.452 144.813 370.625 145.252 370.625 145.793C370.625 146.25 370.492 146.658 370.227 147.016C369.965 147.37 369.599 147.649 369.128 147.851C368.661 148.053 368.119 148.154 367.502 148.154C366.647 148.154 365.95 147.972 365.409 147.607C364.869 147.239 364.538 146.717 364.415 146.041L365.852 145.822C365.941 146.197 366.125 146.48 366.404 146.673C366.682 146.862 367.045 146.956 367.493 146.956C367.98 146.956 368.369 146.855 368.661 146.653C368.953 146.447 369.098 146.197 369.098 145.902C369.098 145.663 369.009 145.463 368.83 145.3C368.654 145.138 368.384 145.015 368.02 144.933L366.727 144.649C366.014 144.487 365.487 144.228 365.146 143.874C364.808 143.519 364.639 143.07 364.639 142.526C364.639 142.076 364.765 141.681 365.017 141.343C365.269 141.005 365.617 140.741 366.061 140.553C366.505 140.36 367.014 140.264 367.587 140.264C368.412 140.264 369.062 140.443 369.536 140.801C370.01 141.156 370.323 141.631 370.475 142.228ZM375.824 140.364L375.824 141.557L371.653 141.557L371.653 140.364L375.824 140.364ZM372.771 138.534L374.258 138.534L374.258 145.758C374.258 146.046 374.301 146.263 374.387 146.409C374.473 146.552 374.584 146.649 374.72 146.702C374.859 146.752 375.01 146.777 375.172 146.777C375.292 146.777 375.396 146.769 375.486 146.752C375.575 146.736 375.645 146.722 375.694 146.712L375.963 147.94C375.877 147.973 375.754 148.007 375.595 148.04C375.436 148.076 375.237 148.096 374.998 148.099C374.607 148.106 374.243 148.036 373.905 147.891C373.567 147.745 373.293 147.519 373.084 147.214C372.876 146.91 372.771 146.527 372.771 146.066L372.771 138.534ZM380.677 148.154C379.925 148.154 379.277 147.993 378.733 147.672C378.193 147.347 377.775 146.891 377.48 146.305C377.189 145.715 377.043 145.024 377.043 144.232C377.043 143.449 377.189 142.76 377.48 142.163C377.775 141.567 378.186 141.101 378.713 140.766C379.244 140.432 379.864 140.264 380.573 140.264C381.004 140.264 381.421 140.335 381.826 140.478C382.23 140.621 382.593 140.844 382.914 141.149C383.236 141.454 383.489 141.85 383.675 142.337C383.861 142.821 383.953 143.41 383.953 144.102L383.953 144.629L377.883 144.629L377.883 143.516L382.497 143.516C382.497 143.125 382.417 142.778 382.258 142.477C382.099 142.172 381.875 141.931 381.587 141.756C381.302 141.58 380.967 141.492 380.583 141.492C380.165 141.492 379.801 141.595 379.489 141.8C379.181 142.003 378.942 142.268 378.773 142.596C378.607 142.921 378.525 143.274 378.525 143.655L378.525 144.525C378.525 145.035 378.614 145.469 378.793 145.827C378.975 146.185 379.229 146.459 379.554 146.648C379.878 146.833 380.258 146.926 380.692 146.926C380.974 146.926 381.231 146.886 381.463 146.807C381.695 146.724 381.895 146.601 382.064 146.439C382.233 146.277 382.363 146.076 382.452 145.837L383.859 146.091C383.746 146.505 383.544 146.868 383.252 147.18C382.964 147.488 382.601 147.728 382.164 147.901C381.73 148.07 381.234 148.154 380.677 148.154ZM388.461 148.149C387.845 148.149 387.295 147.992 386.811 147.677C386.33 147.359 385.952 146.906 385.677 146.32C385.406 145.73 385.27 145.022 385.27 144.197C385.27 143.371 385.407 142.665 385.682 142.079C385.961 141.492 386.342 141.043 386.826 140.732C387.31 140.42 387.858 140.264 388.471 140.264C388.945 140.264 389.327 140.344 389.615 140.503C389.907 140.659 390.132 140.841 390.291 141.05C390.453 141.259 390.579 141.442 390.669 141.602L390.758 141.602L390.758 137.818L392.245 137.818L392.245 148L390.793 148L390.793 146.812L390.669 146.812C390.579 146.974 390.45 147.16 390.281 147.369C390.115 147.577 389.887 147.76 389.595 147.915C389.303 148.071 388.925 148.149 388.461 148.149ZM388.79 146.881C389.217 146.881 389.578 146.769 389.873 146.543C390.172 146.315 390.397 145.998 390.55 145.594C390.705 145.189 390.783 144.719 390.783 144.182C390.783 143.652 390.707 143.188 390.555 142.79C390.402 142.392 390.178 142.082 389.883 141.86C389.588 141.638 389.224 141.527 388.79 141.527C388.342 141.527 387.969 141.643 387.671 141.875C387.373 142.107 387.147 142.424 386.995 142.825C386.846 143.226 386.771 143.678 386.771 144.182C386.771 144.692 386.847 145.151 387 145.559C387.152 145.967 387.378 146.29 387.676 146.528C387.978 146.764 388.349 146.881 388.79 146.881Z" fill="#374151"/>
<path d="M340.817 174L342.488 163.818L343.681 163.818L342.011 174L340.817 174ZM336.209 171.276L336.403 170.082L344.119 170.082L343.925 171.276L336.209 171.276ZM337.238 174L338.908 163.818L340.102 163.818L338.431 174L337.238 174ZM336.8 167.736L336.994 166.543L344.71 166.543L344.516 167.736L336.8 167.736ZM353.153 174.139C352.699 174.133 352.252 174.05 351.811 173.891C351.373 173.732 350.976 173.466 350.618 173.095C350.26 172.724 349.973 172.225 349.758 171.599C349.546 170.972 349.439 170.19 349.439 169.252C349.439 168.364 349.527 167.575 349.703 166.886C349.882 166.196 350.139 165.615 350.474 165.141C350.808 164.663 351.213 164.3 351.687 164.052C352.161 163.803 352.693 163.679 353.282 163.679C353.889 163.679 354.428 163.798 354.898 164.037C355.369 164.276 355.75 164.605 356.042 165.026C356.337 165.447 356.524 165.926 356.604 166.463L355.087 166.463C354.984 166.039 354.781 165.692 354.476 165.424C354.171 165.156 353.773 165.021 353.282 165.021C352.537 165.021 351.955 165.346 351.537 165.996C351.123 166.645 350.914 167.549 350.911 168.705L350.986 168.705C351.161 168.417 351.377 168.172 351.632 167.969C351.89 167.764 352.179 167.607 352.497 167.497C352.818 167.384 353.157 167.328 353.511 167.328C354.101 167.328 354.635 167.472 355.112 167.761C355.593 168.046 355.975 168.44 356.26 168.944C356.546 169.448 356.688 170.024 356.688 170.674C356.688 171.324 356.541 171.912 356.246 172.439C355.954 172.966 355.543 173.384 355.013 173.692C354.482 173.997 353.863 174.146 353.153 174.139ZM353.148 172.847C353.539 172.847 353.889 172.75 354.197 172.558C354.506 172.366 354.749 172.107 354.928 171.783C355.107 171.458 355.197 171.095 355.197 170.694C355.197 170.303 355.109 169.946 354.933 169.625C354.761 169.304 354.522 169.048 354.217 168.859C353.916 168.67 353.571 168.576 353.183 168.576C352.888 168.576 352.615 168.632 352.363 168.745C352.114 168.858 351.895 169.013 351.706 169.212C351.518 169.411 351.368 169.64 351.259 169.898C351.153 170.154 351.1 170.424 351.1 170.709C351.1 171.09 351.188 171.443 351.363 171.768C351.542 172.093 351.786 172.354 352.094 172.553C352.406 172.749 352.757 172.847 353.148 172.847ZM362.044 174.139C361.361 174.139 360.751 174.022 360.214 173.786C359.681 173.551 359.258 173.224 358.946 172.807C358.638 172.386 358.472 171.899 358.449 171.345L360.01 171.345C360.03 171.647 360.131 171.909 360.314 172.131C360.499 172.349 360.741 172.518 361.039 172.638C361.338 172.757 361.669 172.817 362.034 172.817C362.435 172.817 362.789 172.747 363.098 172.608C363.409 172.469 363.653 172.275 363.828 172.026C364.004 171.774 364.092 171.484 364.092 171.156C364.092 170.815 364.004 170.515 363.828 170.256C363.656 169.995 363.403 169.789 363.068 169.64C362.736 169.491 362.335 169.416 361.865 169.416L361.005 169.416L361.005 168.163L361.865 168.163C362.243 168.163 362.574 168.095 362.859 167.96C363.147 167.824 363.373 167.635 363.535 167.393C363.698 167.147 363.779 166.861 363.779 166.533C363.779 166.218 363.708 165.944 363.565 165.712C363.426 165.477 363.227 165.293 362.968 165.161C362.713 165.028 362.412 164.962 362.064 164.962C361.732 164.962 361.422 165.023 361.134 165.146C360.849 165.265 360.617 165.437 360.438 165.663C360.259 165.885 360.163 166.152 360.15 166.463L358.663 166.463C358.68 165.913 358.842 165.429 359.15 165.011C359.462 164.594 359.873 164.267 360.383 164.032C360.894 163.797 361.46 163.679 362.083 163.679C362.736 163.679 363.3 163.807 363.774 164.062C364.251 164.314 364.619 164.65 364.877 165.071C365.139 165.492 365.269 165.953 365.265 166.453C365.269 167.023 365.109 167.507 364.788 167.905C364.47 168.303 364.046 168.569 363.515 168.705L363.515 168.785C364.191 168.888 364.715 169.156 365.086 169.59C365.461 170.024 365.646 170.563 365.643 171.206C365.646 171.766 365.491 172.268 365.176 172.712C364.864 173.156 364.438 173.506 363.898 173.761C363.358 174.013 362.74 174.139 362.044 174.139ZM370.883 174.139C370.26 174.139 369.7 174.02 369.203 173.781C368.709 173.539 368.315 173.208 368.02 172.787C367.725 172.366 367.567 171.885 367.547 171.345L369.039 171.345C369.075 171.783 369.269 172.142 369.62 172.424C369.972 172.706 370.393 172.847 370.883 172.847C371.274 172.847 371.621 172.757 371.922 172.578C372.227 172.396 372.466 172.146 372.638 171.827C372.814 171.509 372.902 171.146 372.902 170.739C372.902 170.324 372.812 169.955 372.633 169.63C372.454 169.305 372.207 169.05 371.892 168.864C371.581 168.679 371.223 168.584 370.819 168.581C370.51 168.581 370.2 168.634 369.889 168.74C369.577 168.846 369.325 168.985 369.133 169.158L367.726 168.949L368.298 163.818L373.896 163.818L373.896 165.136L369.576 165.136L369.252 167.984L369.312 167.984C369.511 167.792 369.775 167.631 370.103 167.502C370.434 167.373 370.789 167.308 371.167 167.308C371.786 167.308 372.338 167.456 372.822 167.751C373.309 168.046 373.692 168.448 373.971 168.959C374.252 169.466 374.391 170.049 374.388 170.709C374.391 171.368 374.242 171.957 373.941 172.474C373.642 172.991 373.228 173.398 372.698 173.697C372.171 173.992 371.566 174.139 370.883 174.139ZM376.834 174.094C376.562 174.094 376.329 173.998 376.133 173.806C375.938 173.611 375.84 173.375 375.84 173.1C375.84 172.828 375.938 172.596 376.133 172.404C376.329 172.209 376.562 172.111 376.834 172.111C377.106 172.111 377.34 172.209 377.535 172.404C377.731 172.596 377.828 172.828 377.828 173.1C377.828 173.282 377.782 173.45 377.689 173.602C377.6 173.751 377.48 173.871 377.331 173.96C377.182 174.05 377.016 174.094 376.834 174.094ZM382.432 163.818L382.432 174L380.891 174L380.891 165.359L380.831 165.359L378.395 166.95L378.395 165.479L380.936 163.818L382.432 163.818ZM388.627 174.139C387.914 174.139 387.284 174.017 386.738 173.771C386.194 173.526 385.768 173.188 385.46 172.757C385.152 172.326 384.999 171.836 385.002 171.286C384.999 170.855 385.087 170.459 385.266 170.097C385.448 169.733 385.695 169.429 386.007 169.188C386.318 168.942 386.666 168.786 387.051 168.72L387.051 168.661C386.544 168.538 386.138 168.266 385.833 167.845C385.528 167.424 385.377 166.94 385.38 166.393C385.377 165.873 385.515 165.409 385.793 165.001C386.075 164.59 386.461 164.267 386.951 164.032C387.442 163.797 388 163.679 388.627 163.679C389.247 163.679 389.8 163.798 390.287 164.037C390.778 164.272 391.164 164.595 391.446 165.006C391.727 165.414 391.87 165.876 391.873 166.393C391.87 166.94 391.714 167.424 391.406 167.845C391.098 168.266 390.697 168.538 390.203 168.661L390.203 168.72C390.584 168.786 390.927 168.942 391.232 169.188C391.54 169.429 391.785 169.733 391.968 170.097C392.153 170.459 392.248 170.855 392.251 171.286C392.248 171.836 392.092 172.326 391.784 172.757C391.475 173.188 391.048 173.526 390.501 173.771C389.958 174.017 389.333 174.139 388.627 174.139ZM388.627 172.881C389.048 172.881 389.412 172.812 389.721 172.673C390.029 172.53 390.267 172.333 390.436 172.081C390.605 171.826 390.692 171.527 390.695 171.186C390.692 170.831 390.599 170.518 390.417 170.246C390.238 169.975 389.994 169.761 389.686 169.605C389.377 169.449 389.025 169.371 388.627 169.371C388.226 169.371 387.869 169.449 387.558 169.605C387.246 169.761 387.001 169.975 386.822 170.246C386.643 170.518 386.555 170.831 386.559 171.186C386.555 171.527 386.636 171.826 386.802 172.081C386.971 172.333 387.212 172.53 387.523 172.673C387.835 172.812 388.203 172.881 388.627 172.881ZM388.627 168.143C388.965 168.143 389.265 168.076 389.527 167.94C389.788 167.804 389.994 167.615 390.143 167.373C390.296 167.131 390.373 166.848 390.377 166.523C390.373 166.205 390.297 165.926 390.148 165.688C390.002 165.449 389.798 165.265 389.537 165.136C389.275 165.003 388.971 164.937 388.627 164.937C388.275 164.937 387.967 165.003 387.702 165.136C387.44 165.265 387.236 165.449 387.091 165.688C386.945 165.926 386.873 166.205 386.877 166.523C386.873 166.848 386.946 167.131 387.096 167.373C387.245 167.615 387.45 167.804 387.712 167.94C387.977 168.076 388.282 168.143 388.627 168.143Z" fill="#374151"/>
<rect x="487" y="165" width="100" height="8" rx="2" fill="#06863B"/>
<path d="M599.534 174.139C599.08 174.133 598.633 174.05 598.192 173.891C597.754 173.732 597.357 173.466 596.999 173.095C596.641 172.724 596.354 172.225 596.138 171.599C595.926 170.972 595.82 170.19 595.82 169.252C595.82 168.364 595.908 167.575 596.084 166.886C596.263 166.196 596.52 165.615 596.854 165.141C597.189 164.663 597.594 164.3 598.067 164.052C598.541 163.803 599.073 163.679 599.663 163.679C600.27 163.679 600.808 163.798 601.279 164.037C601.75 164.276 602.131 164.605 602.423 165.026C602.718 165.447 602.905 165.926 602.984 166.463L601.468 166.463C601.365 166.039 601.161 165.692 600.857 165.424C600.552 165.156 600.154 165.021 599.663 165.021C598.918 165.021 598.336 165.346 597.918 165.996C597.504 166.645 597.295 167.549 597.292 168.705L597.366 168.705C597.542 168.417 597.758 168.172 598.013 167.969C598.271 167.764 598.56 167.607 598.878 167.497C599.199 167.384 599.537 167.328 599.892 167.328C600.482 167.328 601.016 167.472 601.493 167.761C601.973 168.046 602.356 168.44 602.641 168.944C602.926 169.448 603.069 170.024 603.069 170.674C603.069 171.324 602.921 171.912 602.626 172.439C602.335 172.966 601.924 173.384 601.393 173.692C600.863 173.997 600.243 174.146 599.534 174.139ZM599.529 172.847C599.92 172.847 600.27 172.75 600.578 172.558C600.886 172.366 601.13 172.107 601.309 171.783C601.488 171.458 601.577 171.095 601.577 170.694C601.577 170.303 601.49 169.946 601.314 169.625C601.142 169.304 600.903 169.048 600.598 168.859C600.296 168.67 599.952 168.576 599.564 168.576C599.269 168.576 598.996 168.632 598.744 168.745C598.495 168.858 598.276 169.013 598.087 169.212C597.898 169.411 597.749 169.64 597.64 169.898C597.534 170.154 597.481 170.424 597.481 170.709C597.481 171.09 597.569 171.443 597.744 171.768C597.923 172.093 598.167 172.354 598.475 172.553C598.787 172.749 599.138 172.847 599.529 172.847ZM608.425 174.139C607.742 174.139 607.132 174.022 606.595 173.786C606.061 173.551 605.639 173.224 605.327 172.807C605.019 172.386 604.853 171.899 604.83 171.345L606.391 171.345C606.411 171.647 606.512 171.909 606.694 172.131C606.88 172.349 607.122 172.518 607.42 172.638C607.719 172.757 608.05 172.817 608.415 172.817C608.816 172.817 609.17 172.747 609.479 172.608C609.79 172.469 610.034 172.275 610.209 172.026C610.385 171.774 610.473 171.484 610.473 171.156C610.473 170.815 610.385 170.515 610.209 170.256C610.037 169.995 609.783 169.789 609.449 169.64C609.117 169.491 608.716 169.416 608.246 169.416L607.385 169.416L607.385 168.163L608.246 168.163C608.623 168.163 608.955 168.095 609.24 167.96C609.528 167.824 609.754 167.635 609.916 167.393C610.078 167.147 610.16 166.861 610.16 166.533C610.16 166.218 610.088 165.944 609.946 165.712C609.807 165.477 609.608 165.293 609.349 165.161C609.094 165.028 608.792 164.962 608.444 164.962C608.113 164.962 607.803 165.023 607.515 165.146C607.23 165.265 606.998 165.437 606.819 165.663C606.64 165.885 606.544 166.152 606.53 166.463L605.044 166.463C605.06 165.913 605.223 165.429 605.531 165.011C605.843 164.594 606.254 164.267 606.764 164.032C607.274 163.797 607.841 163.679 608.464 163.679C609.117 163.679 609.681 163.807 610.155 164.062C610.632 164.314 611 164.65 611.258 165.071C611.52 165.492 611.649 165.953 611.646 166.453C611.649 167.023 611.49 167.507 611.169 167.905C610.851 168.303 610.426 168.569 609.896 168.705L609.896 168.785C610.572 168.888 611.096 169.156 611.467 169.59C611.842 170.024 612.027 170.563 612.024 171.206C612.027 171.766 611.872 172.268 611.557 172.712C611.245 173.156 610.819 173.506 610.279 173.761C609.739 174.013 609.121 174.139 608.425 174.139ZM619.218 172.091L619.218 171.554C619.218 171.17 619.297 170.818 619.456 170.5C619.619 170.179 619.854 169.922 620.162 169.729C620.474 169.534 620.85 169.436 621.291 169.436C621.742 169.436 622.12 169.532 622.425 169.724C622.729 169.917 622.96 170.174 623.116 170.495C623.275 170.817 623.354 171.17 623.354 171.554L623.354 172.091C623.354 172.475 623.275 172.828 623.116 173.15C622.956 173.468 622.723 173.725 622.415 173.92C622.11 174.113 621.735 174.209 621.291 174.209C620.844 174.209 620.466 174.113 620.157 173.92C619.849 173.725 619.616 173.468 619.456 173.15C619.297 172.828 619.218 172.475 619.218 172.091ZM620.376 171.554L620.376 172.091C620.376 172.376 620.444 172.634 620.58 172.866C620.716 173.098 620.953 173.214 621.291 173.214C621.626 173.214 621.859 173.098 621.992 172.866C622.125 172.634 622.191 172.376 622.191 172.091L622.191 171.554C622.191 171.269 622.126 171.01 621.997 170.778C621.871 170.546 621.636 170.43 621.291 170.43C620.96 170.43 620.724 170.546 620.585 170.778C620.446 171.01 620.376 171.269 620.376 171.554ZM614.097 166.264L614.097 165.727C614.097 165.343 614.177 164.99 614.336 164.668C614.498 164.347 614.733 164.09 615.042 163.898C615.353 163.705 615.729 163.609 616.17 163.609C616.621 163.609 616.999 163.705 617.304 163.898C617.609 164.09 617.839 164.347 617.995 164.668C618.151 164.99 618.229 165.343 618.229 165.727L618.229 166.264C618.229 166.649 618.149 167.002 617.99 167.323C617.834 167.641 617.602 167.898 617.294 168.094C616.989 168.286 616.614 168.382 616.17 168.382C615.72 168.382 615.34 168.286 615.032 168.094C614.727 167.898 614.495 167.641 614.336 167.323C614.177 167.002 614.097 166.649 614.097 166.264ZM615.26 165.727L615.26 166.264C615.26 166.549 615.327 166.808 615.459 167.04C615.595 167.272 615.832 167.388 616.17 167.388C616.502 167.388 616.734 167.272 616.866 167.04C617.002 166.808 617.07 166.549 617.07 166.264L617.07 165.727C617.07 165.442 617.006 165.184 616.876 164.952C616.747 164.72 616.512 164.604 616.17 164.604C615.839 164.604 615.604 164.72 615.464 164.952C615.328 165.184 615.26 165.442 615.26 165.727ZM614.569 174L621.569 163.818L622.758 163.818L615.758 174L614.569 174Z" fill="#374151"/>
<line x1="312" y1="193.5" x2="625" y2="193.5" stroke="#E5E7EB"/>
<rect x="312" y="211" width="16" height="16" rx="4" fill="#9CA3AF"/>
<path d="M339.112 224L336.288 213.818L337.904 213.818L339.888 221.703L339.982 221.703L342.045 213.818L343.646 213.818L345.71 221.708L345.804 221.708L347.783 213.818L349.403 213.818L346.575 224L345.028 224L342.886 216.374L342.806 216.374L340.663 224L339.112 224ZM350.685 224L350.685 216.364L352.171 216.364L352.171 224L350.685 224ZM351.436 215.185C351.177 215.185 350.955 215.099 350.769 214.927C350.587 214.751 350.496 214.542 350.496 214.3C350.496 214.055 350.587 213.846 350.769 213.674C350.955 213.498 351.177 213.411 351.436 213.411C351.694 213.411 351.914 213.498 352.097 213.674C352.282 213.846 352.375 214.055 352.375 214.3C352.375 214.542 352.282 214.751 352.097 214.927C351.914 215.099 351.694 215.185 351.436 215.185ZM357.736 216.364L357.736 217.557L353.565 217.557L353.565 216.364L357.736 216.364ZM354.683 214.534L356.17 214.534L356.17 221.758C356.17 222.046 356.213 222.263 356.299 222.409C356.385 222.552 356.496 222.649 356.632 222.702C356.771 222.752 356.922 222.777 357.085 222.777C357.204 222.777 357.308 222.769 357.398 222.752C357.487 222.736 357.557 222.722 357.607 222.712L357.875 223.94C357.789 223.973 357.666 224.007 357.507 224.04C357.348 224.076 357.149 224.096 356.911 224.099C356.519 224.106 356.155 224.036 355.817 223.891C355.479 223.745 355.205 223.519 354.996 223.214C354.788 222.91 354.683 222.527 354.683 222.066L354.683 214.534ZM361.031 219.466L361.031 224L359.544 224L359.544 213.818L361.011 213.818L361.011 217.607L361.105 217.607C361.284 217.196 361.558 216.869 361.926 216.627C362.294 216.385 362.774 216.264 363.367 216.264C363.891 216.264 364.348 216.372 364.74 216.587C365.134 216.803 365.439 217.124 365.654 217.552C365.873 217.976 365.982 218.506 365.982 219.143L365.982 224L364.496 224L364.496 219.322C364.496 218.762 364.352 218.327 364.063 218.019C363.775 217.708 363.374 217.552 362.86 217.552C362.509 217.552 362.194 217.626 361.916 217.776C361.641 217.925 361.423 218.143 361.264 218.432C361.109 218.717 361.031 219.062 361.031 219.466ZM370.825 224.149C370.208 224.149 369.658 223.992 369.174 223.677C368.694 223.359 368.316 222.906 368.041 222.32C367.769 221.73 367.633 221.022 367.633 220.197C367.633 219.371 367.771 218.665 368.046 218.079C368.324 217.492 368.705 217.043 369.189 216.732C369.673 216.42 370.222 216.264 370.835 216.264C371.309 216.264 371.69 216.344 371.978 216.503C372.27 216.659 372.495 216.841 372.654 217.05C372.817 217.259 372.943 217.442 373.032 217.602L373.122 217.602L373.122 213.818L374.608 213.818L374.608 224L373.156 224L373.156 222.812L373.032 222.812C372.943 222.974 372.813 223.16 372.644 223.369C372.479 223.577 372.25 223.76 371.958 223.915C371.667 224.071 371.289 224.149 370.825 224.149ZM371.153 222.881C371.58 222.881 371.942 222.769 372.237 222.543C372.535 222.315 372.76 221.998 372.913 221.594C373.069 221.189 373.146 220.719 373.146 220.182C373.146 219.652 373.07 219.188 372.918 218.79C372.765 218.392 372.542 218.082 372.247 217.86C371.952 217.638 371.587 217.527 371.153 217.527C370.705 217.527 370.333 217.643 370.034 217.875C369.736 218.107 369.511 218.424 369.358 218.825C369.209 219.226 369.134 219.678 369.134 220.182C369.134 220.692 369.211 221.151 369.363 221.559C369.516 221.967 369.741 222.29 370.039 222.528C370.341 222.764 370.712 222.881 371.153 222.881ZM376.73 224L376.73 216.364L378.167 216.364L378.167 217.577L378.246 217.577C378.385 217.166 378.631 216.843 378.982 216.607C379.337 216.369 379.738 216.249 380.185 216.249C380.278 216.249 380.387 216.253 380.513 216.259C380.642 216.266 380.743 216.274 380.816 216.284L380.816 217.706C380.757 217.689 380.651 217.671 380.498 217.651C380.346 217.628 380.193 217.616 380.041 217.616C379.69 217.616 379.376 217.691 379.101 217.84C378.829 217.986 378.614 218.19 378.455 218.452C378.296 218.71 378.216 219.005 378.216 219.337L378.216 224L376.73 224ZM384.257 224.169C383.773 224.169 383.335 224.08 382.944 223.901C382.553 223.718 382.243 223.455 382.015 223.11C381.789 222.765 381.676 222.343 381.676 221.842C381.676 221.411 381.759 221.057 381.925 220.778C382.091 220.5 382.315 220.28 382.596 220.117C382.878 219.955 383.193 219.832 383.541 219.749C383.889 219.666 384.243 219.603 384.605 219.56C385.062 219.507 385.433 219.464 385.718 219.431C386.003 219.395 386.211 219.337 386.34 219.257C386.469 219.178 386.534 219.048 386.534 218.869L386.534 218.835C386.534 218.4 386.411 218.064 386.166 217.825C385.924 217.587 385.563 217.467 385.082 217.467C384.582 217.467 384.187 217.578 383.899 217.8C383.614 218.019 383.417 218.263 383.307 218.531L381.91 218.213C382.076 217.749 382.318 217.375 382.636 217.089C382.958 216.801 383.327 216.592 383.745 216.463C384.162 216.33 384.601 216.264 385.062 216.264C385.367 216.264 385.69 216.301 386.032 216.374C386.376 216.443 386.698 216.572 386.996 216.761C387.298 216.95 387.545 217.22 387.737 217.572C387.929 217.92 388.025 218.372 388.025 218.929L388.025 224L386.574 224L386.574 222.956L386.514 222.956C386.418 223.148 386.274 223.337 386.081 223.523C385.889 223.708 385.642 223.862 385.341 223.985C385.039 224.108 384.678 224.169 384.257 224.169ZM384.58 222.976C384.991 222.976 385.342 222.895 385.634 222.732C385.929 222.57 386.153 222.358 386.305 222.096C386.461 221.831 386.539 221.547 386.539 221.246L386.539 220.261C386.486 220.314 386.383 220.364 386.23 220.411C386.081 220.454 385.911 220.492 385.718 220.525C385.526 220.555 385.339 220.583 385.157 220.609C384.974 220.633 384.822 220.652 384.699 220.669C384.411 220.705 384.147 220.767 383.909 220.853C383.673 220.939 383.484 221.063 383.342 221.226C383.203 221.385 383.133 221.597 383.133 221.862C383.133 222.23 383.269 222.509 383.541 222.697C383.813 222.883 384.159 222.976 384.58 222.976ZM391.661 224L389.414 216.364L390.95 216.364L392.446 221.972L392.521 221.972L394.022 216.364L395.558 216.364L397.05 221.947L397.124 221.947L398.611 216.364L400.147 216.364L397.905 224L396.389 224L394.838 218.487L394.723 218.487L393.172 224L391.661 224ZM403.044 219.466L403.044 224L401.558 224L401.558 216.364L402.985 216.364L402.985 217.607L403.079 217.607C403.255 217.202 403.53 216.877 403.904 216.632C404.282 216.387 404.758 216.264 405.331 216.264C405.852 216.264 406.307 216.374 406.699 216.592C407.09 216.808 407.393 217.129 407.608 217.557C407.824 217.984 407.931 218.513 407.931 219.143L407.931 224L406.445 224L406.445 219.322C406.445 218.768 406.301 218.336 406.012 218.024C405.724 217.709 405.328 217.552 404.824 217.552C404.48 217.552 404.173 217.626 403.904 217.776C403.639 217.925 403.429 218.143 403.273 218.432C403.121 218.717 403.044 219.062 403.044 219.466Z" fill="#374151"/>
<path d="M340.817 250L342.488 239.818L343.681 239.818L342.011 250L340.817 250ZM336.209 247.276L336.403 246.082L344.119 246.082L343.925 247.276L336.209 247.276ZM337.238 250L338.908 239.818L340.102 239.818L338.431 250L337.238 250ZM336.8 243.736L336.994 242.543L344.71 242.543L344.516 243.736L336.8 243.736ZM349.599 250L349.599 248.886L353.044 245.317C353.412 244.929 353.715 244.589 353.954 244.298C354.196 244.003 354.376 243.723 354.496 243.457C354.615 243.192 354.675 242.911 354.675 242.612C354.675 242.274 354.595 241.982 354.436 241.737C354.277 241.489 354.06 241.298 353.785 241.165C353.51 241.03 353.2 240.962 352.855 240.962C352.49 240.962 352.172 241.036 351.9 241.185C351.629 241.335 351.42 241.545 351.274 241.817C351.128 242.089 351.055 242.407 351.055 242.771L349.589 242.771C349.589 242.152 349.731 241.61 350.016 241.146C350.301 240.682 350.692 240.322 351.189 240.067C351.687 239.808 352.252 239.679 352.885 239.679C353.524 239.679 354.088 239.807 354.575 240.062C355.066 240.314 355.448 240.658 355.724 241.096C355.999 241.53 356.136 242.021 356.136 242.567C356.136 242.945 356.065 243.315 355.922 243.676C355.783 244.037 355.54 244.44 355.192 244.884C354.844 245.325 354.36 245.86 353.74 246.49L351.716 248.608L351.716 248.683L356.3 248.683L356.3 250L349.599 250ZM362.047 239.818L362.047 250L360.506 250L360.506 241.359L360.447 241.359L358.01 242.95L358.01 241.479L360.551 239.818L362.047 239.818ZM365.213 250.094C364.941 250.094 364.708 249.998 364.512 249.806C364.317 249.611 364.219 249.375 364.219 249.1C364.219 248.828 364.317 248.596 364.512 248.404C364.708 248.209 364.941 248.111 365.213 248.111C365.485 248.111 365.719 248.209 365.914 248.404C366.11 248.596 366.207 248.828 366.207 249.1C366.207 249.282 366.161 249.45 366.068 249.602C365.979 249.751 365.859 249.871 365.71 249.96C365.561 250.05 365.395 250.094 365.213 250.094ZM371.354 250.169C370.569 250.166 369.898 249.959 369.341 249.548C368.784 249.137 368.358 248.538 368.063 247.753C367.768 246.967 367.621 246.021 367.621 244.914C367.621 243.81 367.768 242.867 368.063 242.085C368.361 241.303 368.789 240.706 369.346 240.295C369.906 239.884 370.575 239.679 371.354 239.679C372.133 239.679 372.801 239.886 373.358 240.3C373.915 240.711 374.34 241.308 374.635 242.09C374.934 242.869 375.083 243.81 375.083 244.914C375.083 246.024 374.935 246.972 374.64 247.758C374.345 248.54 373.92 249.138 373.363 249.553C372.806 249.964 372.136 250.169 371.354 250.169ZM371.354 248.842C372.044 248.842 372.582 248.505 372.97 247.832C373.361 247.16 373.557 246.187 373.557 244.914C373.557 244.069 373.467 243.355 373.288 242.771C373.113 242.185 372.859 241.741 372.528 241.439C372.199 241.134 371.808 240.982 371.354 240.982C370.668 240.982 370.13 241.32 369.738 241.996C369.347 242.672 369.15 243.645 369.147 244.914C369.147 245.763 369.235 246.48 369.41 247.067C369.589 247.65 369.843 248.093 370.171 248.394C370.499 248.692 370.894 248.842 371.354 248.842ZM380.391 250.169C379.606 250.166 378.935 249.959 378.378 249.548C377.821 249.137 377.395 248.538 377.1 247.753C376.805 246.967 376.658 246.021 376.658 244.914C376.658 243.81 376.805 242.867 377.1 242.085C377.398 241.303 377.826 240.706 378.383 240.295C378.943 239.884 379.612 239.679 380.391 239.679C381.17 239.679 381.838 239.886 382.395 240.3C382.952 240.711 383.378 241.308 383.673 242.09C383.971 242.869 384.12 243.81 384.12 244.914C384.12 246.024 383.973 246.972 383.678 247.758C383.383 248.54 382.957 249.138 382.4 249.553C381.843 249.964 381.174 250.169 380.391 250.169ZM380.391 248.842C381.081 248.842 381.619 248.505 382.007 247.832C382.398 247.16 382.594 246.187 382.594 244.914C382.594 244.069 382.504 243.355 382.325 242.771C382.15 242.185 381.896 241.741 381.565 241.439C381.237 241.134 380.845 240.982 380.391 240.982C379.705 240.982 379.167 241.32 378.776 241.996C378.384 242.672 378.187 243.645 378.184 244.914C378.184 245.763 378.272 246.48 378.447 247.067C378.626 247.65 378.88 248.093 379.208 248.394C379.536 248.692 379.931 248.842 380.391 248.842Z" fill="#374151"/>
<rect x="569" y="241" width="20" height="8" rx="2" fill="#9CA3AF"/>
<path d="M601.842 239.818L601.842 250L600.301 250L600.301 241.359L600.241 241.359L597.805 242.95L597.805 241.479L600.346 239.818L601.842 239.818ZM608.141 250.169C607.356 250.166 606.685 249.959 606.128 249.548C605.571 249.137 605.145 248.538 604.85 247.753C604.555 246.967 604.408 246.021 604.408 244.914C604.408 243.81 604.555 242.867 604.85 242.085C605.148 241.303 605.576 240.706 606.133 240.295C606.693 239.884 607.362 239.679 608.141 239.679C608.92 239.679 609.588 239.886 610.145 240.3C610.702 240.711 611.128 241.308 611.423 242.09C611.721 242.869 611.87 243.81 611.87 244.914C611.87 246.024 611.723 246.972 611.428 247.758C611.133 248.54 610.707 249.138 610.15 249.553C609.593 249.964 608.924 250.169 608.141 250.169ZM608.141 248.842C608.831 248.842 609.369 248.505 609.757 247.832C610.148 247.16 610.344 246.187 610.344 244.914C610.344 244.069 610.254 243.355 610.075 242.771C609.9 242.185 609.646 241.741 609.315 241.439C608.987 241.134 608.595 240.982 608.141 240.982C607.455 240.982 606.917 241.32 606.526 241.996C606.134 242.672 605.937 243.645 605.934 244.914C605.934 245.763 606.022 246.48 606.197 247.067C606.376 247.65 606.63 248.093 606.958 248.394C607.286 248.692 607.681 248.842 608.141 248.842ZM618.948 248.091L618.948 247.554C618.948 247.17 619.028 246.818 619.187 246.5C619.349 246.179 619.585 245.922 619.893 245.729C620.204 245.534 620.581 245.436 621.021 245.436C621.472 245.436 621.85 245.532 622.155 245.724C622.46 245.917 622.69 246.174 622.846 246.495C623.005 246.817 623.085 247.17 623.085 247.554L623.085 248.091C623.085 248.475 623.005 248.828 622.846 249.15C622.687 249.468 622.453 249.725 622.145 249.92C621.84 250.113 621.466 250.209 621.021 250.209C620.574 250.209 620.196 250.113 619.888 249.92C619.58 249.725 619.346 249.468 619.187 249.15C619.028 248.828 618.948 248.475 618.948 248.091ZM620.107 247.554L620.107 248.091C620.107 248.376 620.175 248.634 620.311 248.866C620.446 249.098 620.683 249.214 621.021 249.214C621.356 249.214 621.59 249.098 621.722 248.866C621.855 248.634 621.921 248.376 621.921 248.091L621.921 247.554C621.921 247.269 621.857 247.01 621.727 246.778C621.602 246.546 621.366 246.43 621.021 246.43C620.69 246.43 620.455 246.546 620.316 246.778C620.176 247.01 620.107 247.269 620.107 247.554ZM613.828 242.264L613.828 241.727C613.828 241.343 613.907 240.99 614.066 240.668C614.229 240.347 614.464 240.09 614.772 239.898C615.084 239.705 615.46 239.609 615.901 239.609C616.352 239.609 616.729 239.705 617.034 239.898C617.339 240.09 617.57 240.347 617.725 240.668C617.881 240.99 617.959 241.343 617.959 241.727L617.959 242.264C617.959 242.649 617.879 243.002 617.72 243.323C617.565 243.641 617.333 243.898 617.024 244.094C616.719 244.286 616.345 244.382 615.901 244.382C615.45 244.382 615.07 244.286 614.762 244.094C614.457 243.898 614.225 243.641 614.066 243.323C613.907 243.002 613.828 242.649 613.828 242.264ZM614.991 241.727L614.991 242.264C614.991 242.549 615.057 242.808 615.19 243.04C615.326 243.272 615.563 243.388 615.901 243.388C616.232 243.388 616.464 243.272 616.597 243.04C616.733 242.808 616.801 242.549 616.801 242.264L616.801 241.727C616.801 241.442 616.736 241.184 616.607 240.952C616.477 240.72 616.242 240.604 615.901 240.604C615.569 240.604 615.334 240.72 615.195 240.952C615.059 241.184 614.991 241.442 614.991 241.727ZM614.3 250L621.3 239.818L622.488 239.818L615.488 250L614.3 250Z" fill="#374151"/>
</g>
<defs>
<clipPath id="clip0_646_250">
<rect width="625" height="306" fill="white"/>
</clipPath>
</defs>
</svg>
