<svg width="40" height="40" viewBox="0 0 40 40" fill="none" xmlns="http://www.w3.org/2000/svg">
<path fill-rule="evenodd" clip-rule="evenodd" d="M33.3333 6.66675C36.0947 6.66675 38.3333 8.90532 38.3333 11.6667V28.3334C38.3333 31.0948 36.0947 33.3334 33.3333 33.3334H6.66663C3.9052 33.3334 1.66663 31.0948 1.66663 28.3334V11.6667C1.66663 8.90532 3.9052 6.66675 6.66663 6.66675H33.3333ZM33.3333 10.0001C34.2538 10.0001 35 10.7463 35 11.6667V15.0001H4.99996V11.6667C4.99996 10.7463 5.74615 10.0001 6.66663 10.0001H33.3333ZM4.99996 18.3334V28.3334C4.99996 29.2539 5.74615 30.0001 6.66663 30.0001H33.3333C34.2538 30.0001 35 29.2539 35 28.3334V18.3334H4.99996Z" fill="#0F0F0F"/>
</svg>
