<svg width="18" height="18" viewBox="0 0 18 18" fill="none" xmlns="http://www.w3.org/2000/svg">
<path d="M3.37161 5.58057C2.66041 6.08831 2.08381 6.63123 1.64196 7.10974C0.643028 8.19156 0.643029 9.80826 1.64196 10.8901C2.93751 12.2931 5.39158 14.2499 8.99998 14.2499C9.9718 14.2499 10.8599 14.108 11.6642 13.8731L10.4171 12.6261C9.9702 12.7056 9.49784 12.7499 8.99998 12.7499C5.97516 12.7499 3.89123 11.1149 2.744 9.87247C2.27568 9.3653 2.27568 8.63452 2.744 8.12735C3.17814 7.65718 3.74643 7.13079 4.44909 6.65806L3.37161 5.58057Z" fill="#0F0F0F"/>
<path d="M6.39973 8.60869C6.38066 8.73633 6.37077 8.86696 6.37077 8.99991C6.37077 10.4497 7.54603 11.6249 8.99577 11.6249C9.12872 11.6249 9.25935 11.615 9.38699 11.596L6.39973 8.60869Z" fill="#0F0F0F"/>
<path d="M11.5996 9.33522L8.66046 6.39612C8.77026 6.38212 8.88217 6.37491 8.99577 6.37491C10.4455 6.37491 11.6208 7.55016 11.6208 8.99991C11.6208 9.11351 11.6136 9.22542 11.5996 9.33522Z" fill="#0F0F0F"/>
<path d="M13.5838 11.3195C14.2713 10.8525 14.8286 10.3353 15.256 9.87247C15.7243 9.3653 15.7243 8.63452 15.256 8.12735C14.1087 6.88492 12.0248 5.24991 8.99998 5.24991C8.51954 5.24991 8.06284 5.29115 7.62986 5.36552L6.37861 4.11427C7.17156 3.88686 8.04537 3.74991 8.99998 3.74991C12.6084 3.74991 15.0624 5.70669 16.358 7.10974C17.3569 8.19156 17.3569 9.80825 16.358 10.8901C15.9228 11.3613 15.3569 11.8951 14.6605 12.3962L13.5838 11.3195Z" fill="#0F0F0F"/>
<path d="M1.5059 2.56646C1.21301 2.27357 1.21301 1.7987 1.5059 1.5058C1.79879 1.21291 2.27367 1.21291 2.56656 1.5058L16.5003 15.4396C16.7932 15.7324 16.7932 16.2073 16.5003 16.5002C16.2074 16.7931 15.7325 16.7931 15.4396 16.5002L1.5059 2.56646Z" fill="#0F0F0F"/>
</svg>
