<svg width="53" height="46" viewBox="0 0 53 46" fill="none" xmlns="http://www.w3.org/2000/svg">
<path d="M43.4515 29.3489C44.7127 29.3489 45.7351 28.4248 45.7351 27.2847C45.7351 26.1447 44.7127 25.2205 43.4515 25.2205C42.1903 25.2205 41.1679 26.1447 41.1679 27.2847C41.1679 28.4248 42.1903 29.3489 43.4515 29.3489Z" fill="#0F0F0F"/>
<path fill-rule="evenodd" clip-rule="evenodd" d="M36.0869 0.41971C40.0076 -0.66321 44.0958 1.58822 44.8291 5.23431L45.5894 9.01423C48.3261 9.82605 50.3023 12.1541 50.3023 14.8994V20.6047C51.7039 21.7386 52.5859 23.3864 52.5859 25.2205V29.3489C52.5859 31.183 51.7039 32.8308 50.3023 33.9648V39.67C50.3023 43.0901 47.2351 45.8627 43.4515 45.8627H6.91375C3.13014 45.8627 0.0629196 43.0901 0.0629196 39.67V14.8994C0.0629196 11.8301 2.53319 9.28231 5.77463 8.79195L36.0869 0.41971ZM45.7351 31.4132C46.9963 31.4132 48.0187 30.489 48.0187 29.3489V25.2205C48.0187 24.0805 46.9963 23.1563 45.7351 23.1563H38.8843C37.6231 23.1563 36.6007 24.0805 36.6007 25.2205V29.3489C36.6007 30.489 37.6231 31.4132 38.8843 31.4132H45.7351ZM45.7351 35.5416V39.67C45.7351 40.8101 44.7127 41.7343 43.4515 41.7343H6.91375C5.65255 41.7343 4.63014 40.8101 4.63014 39.67V14.8994C4.63014 13.7594 5.65255 12.8352 6.91375 12.8352H43.4515C44.7074 12.8352 45.7265 13.7516 45.7351 14.885L45.7351 19.0278H38.8843C35.1007 19.0278 32.0335 21.8004 32.0335 25.2205V29.3489C32.0335 32.769 35.1007 35.5416 38.8843 35.5416H45.7351ZM40.4723 5.83137L41.0336 8.70673H20.6154L37.5672 4.21294C38.8762 3.85796 40.2348 4.6148 40.4723 5.83137Z" fill="#0F0F0F"/>
</svg>
