<svg width="34" height="34" viewBox="0 0 34 34" fill="none" xmlns="http://www.w3.org/2000/svg">
<rect x="0.5" y="0.5" width="33" height="33" fill="#181F17"/>
<rect x="0.5" y="0.5" width="33" height="33" stroke="#36BA67"/>
<path d="M25 3H9C5.68629 3 3 5.68629 3 9V25C3 28.3137 5.68629 31 9 31H25C28.3137 31 31 28.3137 31 25V9C31 5.68629 28.3137 3 25 3Z" fill="#1FF49F"/>
<path d="M24 11.5C24 12.3284 23.3284 13 22.5 13C21.6716 13 21 12.3284 21 11.5C21 10.6716 21.6716 10 22.5 10C23.3284 10 24 10.6716 24 11.5Z" fill="#0B0B0B"/>
<path fill-rule="evenodd" clip-rule="evenodd" d="M17 22C19.7614 22 22 19.7614 22 17C22 14.2386 19.7614 12 17 12C14.2386 12 12 14.2386 12 17C12 19.7614 14.2386 22 17 22ZM17 20C18.6569 20 20 18.6569 20 17C20 15.3431 18.6569 14 17 14C15.3431 14 14 15.3431 14 17C14 18.6569 15.3431 20 17 20Z" fill="#0B0B0B"/>
<path fill-rule="evenodd" clip-rule="evenodd" d="M7 16.6C7 13.2397 7 11.5595 7.65396 10.2761C8.2292 9.14708 9.14708 8.2292 10.2761 7.65396C11.5595 7 13.2397 7 16.6 7H17.4C20.7603 7 22.4405 7 23.7239 7.65396C24.8529 8.2292 25.7708 9.14708 26.346 10.2761C27 11.5595 27 13.2397 27 16.6V17.4C27 20.7603 27 22.4405 26.346 23.7239C25.7708 24.8529 24.8529 25.7708 23.7239 26.346C22.4405 27 20.7603 27 17.4 27H16.6C13.2397 27 11.5595 27 10.2761 26.346C9.14708 25.7708 8.2292 24.8529 7.65396 23.7239C7 22.4405 7 20.7603 7 17.4V16.6ZM16.6 9H17.4C19.1132 9 20.2777 9.00156 21.1779 9.0751C22.0548 9.14674 22.5032 9.27659 22.816 9.43597C23.5686 9.81947 24.1805 10.4314 24.564 11.184C24.7234 11.4968 24.8533 11.9452 24.9249 12.8221C24.9984 13.7223 25 14.8868 25 16.6V17.4C25 19.1132 24.9984 20.2777 24.9249 21.1779C24.8533 22.0548 24.7234 22.5032 24.564 22.816C24.1805 23.5686 23.5686 24.1805 22.816 24.564C22.5032 24.7234 22.0548 24.8533 21.1779 24.9249C20.2777 24.9984 19.1132 25 17.4 25H16.6C14.8868 25 13.7223 24.9984 12.8221 24.9249C11.9452 24.8533 11.4968 24.7234 11.184 24.564C10.4314 24.1805 9.81947 23.5686 9.43597 22.816C9.27659 22.5032 9.14674 22.0548 9.0751 21.1779C9.00156 20.2777 9 19.1132 9 17.4V16.6C9 14.8868 9.00156 13.7223 9.0751 12.8221C9.14674 11.9452 9.27659 11.4968 9.43597 11.184C9.81947 10.4314 10.4314 9.81947 11.184 9.43597C11.4968 9.27659 11.9452 9.14674 12.8221 9.0751C13.7223 9.00156 14.8868 9 16.6 9Z" fill="#0B0B0B"/>
</svg>
