<svg width="26" height="26" viewBox="0 0 26 26" fill="none" xmlns="http://www.w3.org/2000/svg">
<path d="M4.16219 7.09091H7.09091C7.74361 7.09091 8.27273 7.62003 8.27273 8.27273C8.27273 8.92543 7.74361 9.45455 7.09091 9.45455H2.36364C1.05824 9.45455 0 8.39631 0 7.09091V2.36364C0 1.71094 0.529118 1.18183 1.18182 1.18183C1.83452 1.18183 2.36364 1.71094 2.36364 2.36364V5.5255C3.71339 3.60475 5.5647 2.07657 7.72888 1.1166C10.3851 -0.0616324 13.3596 -0.315947 16.1773 0.394262C18.995 1.10447 21.4935 2.73825 23.274 5.03476C24.8122 7.01882 25.7378 9.39871 25.952 11.8834C26.008 12.5337 25.4655 13.0613 24.8128 13.0581C24.1601 13.0549 23.6351 12.5215 23.5659 11.8725C23.3575 9.91941 22.6106 8.05387 21.3977 6.48942C19.9424 4.61231 17.9002 3.2769 15.597 2.6964C13.2939 2.11589 10.8627 2.32376 8.69152 3.28682C6.882 4.08947 5.34008 5.37811 4.23084 6.99907C4.20913 7.0308 4.18621 7.06143 4.16219 7.09091Z" fill="#0F0F0F"/>
<path d="M23.6364 20.4745C22.2866 22.3953 20.4353 23.9234 18.2711 24.8834C15.6149 26.0616 12.6404 26.3159 9.82271 25.6057C7.00499 24.8955 4.50646 23.2617 2.72601 20.9652C1.1878 18.9812 0.262204 16.6013 0.0480281 14.1166C-0.0080259 13.4663 0.534519 12.9387 1.18721 12.9419C1.8399 12.9451 2.36486 13.4785 2.43411 14.1275C2.64251 16.0806 3.38941 17.9461 4.60231 19.5106C6.0576 21.3877 8.09983 22.7231 10.403 23.3036C12.7061 23.8841 15.1373 23.6762 17.3085 22.7132C19.118 21.9105 20.6599 20.6219 21.7692 19.0009C21.7909 18.9692 21.8138 18.9386 21.8378 18.9091H18.9091C18.2564 18.9091 17.7273 18.38 17.7273 17.7273C17.7273 17.0746 18.2564 16.5455 18.9091 16.5455H23.6364C24.9418 16.5455 26 17.6037 26 18.9091V23.6364C26 24.2891 25.4709 24.8182 24.8182 24.8182C24.1655 24.8182 23.6364 24.2891 23.6364 23.6364V20.4745Z" fill="#0F0F0F"/>
</svg>
