<svg width="32" height="32" viewBox="0 0 32 32" fill="none" xmlns="http://www.w3.org/2000/svg">
<rect width="32" height="32" rx="16" fill="#1FF49F"/>
<path d="M11.6423 26C8.82934 26 6.2071 25.1818 4 23.7701C5.8739 23.8914 9.18093 23.601 11.2379 21.639C8.14355 21.497 6.74805 19.1237 6.56603 18.1096C6.82895 18.211 8.08287 18.3327 8.79073 18.0487C5.23122 17.1562 4.68516 14.0324 4.8065 13.0791C5.47391 13.5457 6.60648 13.7079 7.05142 13.6673C3.7346 11.2941 4.92785 7.72414 5.51436 6.95335C7.89463 10.251 11.4619 12.1031 15.8751 12.2061C15.7919 11.8412 15.748 11.4612 15.748 11.071C15.748 8.27037 18.0117 6 20.8041 6C22.263 6 23.5777 6.61978 24.5006 7.61117C25.4756 7.3827 26.9429 6.84789 27.6602 6.38539C27.2986 7.68357 26.173 8.76651 25.4921 9.1679C25.4865 9.15418 25.4977 9.18155 25.4921 9.1679C26.0902 9.07743 27.7085 8.76641 28.3478 8.33266C28.0317 9.06196 26.8383 10.2745 25.8589 10.9534C26.0411 18.9897 19.8926 26 11.6423 26Z" fill="#0B0B0B"/>
</svg>
